STARTFONT 2.1
COMMENT
COMMENT Converted from OpenType font "arial.ttf" by "otf2bdf 3.0".
COMMENT
FONT -FreeType-Arial-Medium-R-Normal--30-220-100-100-P-150-ISO10646-1
SIZE 22 100 100
FONTBOUNDINGBOX 55 40 -21 -10
STARTPROPERTIES 19
FOUNDRY "FreeType"
FAMILY_NAME "Arial"
WEIGHT_NAME "Medium"
SLANT "R"
SETWIDTH_NAME "Normal"
ADD_STYLE_NAME ""
PIXEL_SIZE 30
POINT_SIZE 220
RESOLUTION_X 100
RESOLUTION_Y 100
SPACING "P"
AVERAGE_WIDTH 150
CHARSET_REGISTRY "ISO10646"
CHARSET_ENCODING "1"
FONT_ASCENT 28
FONT_DESCENT 6
COPYRIGHT "Typeface © The Monotype Corporation plc. Data © The Monotype Corporation plc/Type Solutions Inc. 1990-1992. All Rights Reserved"
_OTF_FONTFILE "arial.ttf"
_OTF_PSNAME "ArialMT"
ENDPROPERTIES
CHARS 1419
STARTCHAR 0020
ENCODING 32
SWIDTH 294 0
DWIDTH 9 0
BBX 0 0 0 0
BITMAP
ENDCHAR
STARTCHAR 0021
ENCODING 33
SWIDTH 294 0
DWIDTH 9 0
BBX 3 22 3 0
BITMAP
E0
E0
E0
E0
E0
E0
E0
E0
E0
E0
E0
E0
E0
C0
C0
C0
C0
00
00
E0
E0
E0
ENDCHAR
STARTCHAR 0022
ENCODING 34
SWIDTH 360 0
DWIDTH 11 0
BBX 9 8 1 14
BITMAP
F780
F780
F780
F780
6300
6300
6300
6300
ENDCHAR
STARTCHAR 0023
ENCODING 35
SWIDTH 556 0
DWIDTH 17 0
BBX 17 22 0 0
BITMAP
030600
030600
030600
070600
070E00
060C00
FFFF80
FFFF80
FFFF80
0C1C00
0C1800
0C1800
0C1800
1C3800
FFFF80
FFFF80
FFFF80
183000
387000
306000
306000
306000
ENDCHAR
STARTCHAR 0024
ENCODING 36
SWIDTH 556 0
DWIDTH 17 0
BBX 15 26 1 -3
BITMAP
0100
0FE0
3FF0
3FF8
793C
711C
6100
7100
7900
7F00
3FC0
0FF0
01F8
013C
011C
010E
E10E
E10E
711C
793C
3FF8
1FF0
0FE0
0100
0100
0100
ENDCHAR
STARTCHAR 0025
ENCODING 37
SWIDTH 916 0
DWIDTH 28 0
BBX 24 22 2 0
BITMAP
3E00E0
7F00C0
E381C0
E18180
C18300
C18300
C18600
C18600
C18C00
E39C00
7F1878
3E39FC
0031CE
006386
006387
00C387
00C387
018387
038386
0301CE
0700FC
060078
ENDCHAR
STARTCHAR 0026
ENCODING 38
SWIDTH 687 0
DWIDTH 21 0
BBX 19 22 1 0
BITMAP
03E000
07F000
0FF800
1E3C00
1C1C00
1C1C00
0E1800
0F7800
07F000
07C000
1FC000
3DE000
78F380
707B80
E03B80
E01F00
F01F00
700F00
783F80
3FFBC0
1FF1E0
0FC0C0
ENDCHAR
STARTCHAR 0027
ENCODING 39
SWIDTH 196 0
DWIDTH 6 0
BBX 3 8 1 14
BITMAP
E0
E0
E0
E0
E0
60
60
60
ENDCHAR
STARTCHAR 0028
ENCODING 40
SWIDTH 327 0
DWIDTH 10 0
BBX 7 28 2 -6
BITMAP
06
0C
1C
18
38
30
70
70
60
E0
E0
E0
E0
E0
E0
E0
E0
E0
E0
60
70
70
30
38
18
1C
0C
06
ENDCHAR
STARTCHAR 0029
ENCODING 41
SWIDTH 327 0
DWIDTH 10 0
BBX 7 28 2 -6
BITMAP
C0
60
70
30
38
18
1C
1C
0C
0E
0E
0E
0E
0E
0E
0E
0E
0E
0E
0C
1C
1C
18
38
30
70
60
C0
ENDCHAR
STARTCHAR 002A
ENCODING 42
SWIDTH 392 0
DWIDTH 12 0
BBX 10 9 1 13
BITMAP
0C00
0C00
4C80
FFC0
3F00
1E00
3F00
7380
2100
ENDCHAR
STARTCHAR 002B
ENCODING 43
SWIDTH 589 0
DWIDTH 18 0
BBX 14 15 2 3
BITMAP
0300
0300
0300
0300
0300
0300
FFFC
FFFC
FFFC
0300
0300
0300
0300
0300
0300
ENDCHAR
STARTCHAR 002C
ENCODING 44
SWIDTH 294 0
DWIDTH 9 0
BBX 3 7 3 -4
BITMAP
E0
E0
E0
60
60
C0
80
ENDCHAR
STARTCHAR 002D
ENCODING 45
SWIDTH 327 0
DWIDTH 10 0
BBX 8 3 1 7
BITMAP
FF
FF
FF
ENDCHAR
STARTCHAR 002E
ENCODING 46
SWIDTH 294 0
DWIDTH 9 0
BBX 3 3 3 0
BITMAP
E0
E0
E0
ENDCHAR
STARTCHAR 002F
ENCODING 47
SWIDTH 294 0
DWIDTH 9 0
BBX 8 22 0 0
BITMAP
03
03
03
07
06
06
06
0C
0C
0C
1C
18
18
38
30
30
30
70
60
60
E0
C0
ENDCHAR
STARTCHAR 0030
ENCODING 48
SWIDTH 556 0
DWIDTH 17 0
BBX 15 22 1 0
BITMAP
07C0
1FF0
3FF8
3C78
701C
701C
700C
E00E
E00E
E00E
E00E
E00E
E00E
E00E
E00E
701C
701C
701C
3C78
3FF8
1FF0
07C0
ENDCHAR
STARTCHAR 0031
ENCODING 49
SWIDTH 556 0
DWIDTH 17 0
BBX 9 22 3 0
BITMAP
0180
0380
0780
0F80
3F80
FB80
F380
C380
0380
0380
0380
0380
0380
0380
0380
0380
0380
0380
0380
0380
0380
0380
ENDCHAR
STARTCHAR 0032
ENCODING 50
SWIDTH 556 0
DWIDTH 17 0
BBX 15 22 1 0
BITMAP
07E0
1FF0
3FF8
783C
701C
E00E
000E
000C
001C
001C
0038
0070
01E0
03C0
0780
0E00
1C00
3800
7000
FFFE
FFFE
FFFE
ENDCHAR
STARTCHAR 0033
ENCODING 51
SWIDTH 556 0
DWIDTH 17 0
BBX 15 22 1 0
BITMAP
07C0
1FF0
3FF8
7838
701C
601C
0018
0078
03F0
03F0
03F8
003C
001C
000E
000E
000E
E00E
701C
783C
3FF8
1FF0
0FC0
ENDCHAR
STARTCHAR 0034
ENCODING 52
SWIDTH 556 0
DWIDTH 17 0
BBX 16 22 0 0
BITMAP
0038
0078
0078
00F8
01F8
01B8
03B8
0738
0E38
0C38
1C38
3838
7038
6038
FFFF
FFFF
FFFF
0038
0038
0038
0038
0038
ENDCHAR
STARTCHAR 0035
ENCODING 53
SWIDTH 556 0
DWIDTH 17 0
BBX 15 22 1 0
BITMAP
1FFC
1FFC
3FFC
3800
3800
3800
3000
73E0
7FF0
7FF8
703C
001E
000E
000E
000E
000E
E00E
701C
783C
3FF8
1FF0
0FC0
ENDCHAR
STARTCHAR 0036
ENCODING 54
SWIDTH 556 0
DWIDTH 17 0
BBX 15 22 1 0
BITMAP
07E0
0FF0
1FF8
3C3C
781C
700C
6000
E000
E3E0
EFF0
FFF8
F83C
F01C
F00E
E00E
E00E
700E
701C
3C3C
3FF8
1FF0
07E0
ENDCHAR
STARTCHAR 0037
ENCODING 55
SWIDTH 556 0
DWIDTH 17 0
BBX 15 22 1 0
BITMAP
FFFE
FFFE
FFFE
001C
0038
0070
0070
00E0
00E0
01C0
01C0
0380
0380
0700
0700
0700
0E00
0E00
0E00
0E00
0E00
0C00
ENDCHAR
STARTCHAR 0038
ENCODING 56
SWIDTH 556 0
DWIDTH 17 0
BBX 15 22 1 0
BITMAP
07C0
1FF0
3FF8
783C
701C
701C
701C
3838
1FF0
0FE0
3FF8
783C
701C
E00E
E00E
E00E
E00E
701C
783C
3FF8
1FF0
07E0
ENDCHAR
STARTCHAR 0039
ENCODING 57
SWIDTH 556 0
DWIDTH 17 0
BBX 15 22 1 0
BITMAP
07C0
1FF0
3FF8
7838
701C
E00C
E00E
E00E
E00E
701E
783E
3FFE
1FEE
0F8E
000E
000C
601C
703C
7878
3FF8
1FE0
0FC0
ENDCHAR
STARTCHAR 003A
ENCODING 58
SWIDTH 294 0
DWIDTH 9 0
BBX 3 16 3 0
BITMAP
E0
E0
E0
00
00
00
00
00
00
00
00
00
00
E0
E0
E0
ENDCHAR
STARTCHAR 003B
ENCODING 59
SWIDTH 294 0
DWIDTH 9 0
BBX 3 20 3 -4
BITMAP
E0
E0
E0
00
00
00
00
00
00
00
00
00
00
E0
E0
E0
60
60
C0
80
ENDCHAR
STARTCHAR 003C
ENCODING 60
SWIDTH 589 0
DWIDTH 18 0
BBX 14 15 2 3
BITMAP
0004
001C
00FC
03F8
1FE0
7F00
F800
E000
F800
7F00
1FE0
03F8
00FC
001C
0004
ENDCHAR
STARTCHAR 003D
ENCODING 61
SWIDTH 589 0
DWIDTH 18 0
BBX 14 9 2 6
BITMAP
FFFC
FFFC
FFFC
0000
0000
0000
FFFC
FFFC
FFFC
ENDCHAR
STARTCHAR 003E
ENCODING 62
SWIDTH 589 0
DWIDTH 18 0
BBX 14 15 2 3
BITMAP
8000
E000
FC00
7F00
0FE0
03F8
007C
001C
007C
03F8
0FE0
7F00
FC00
E000
8000
ENDCHAR
STARTCHAR 003F
ENCODING 63
SWIDTH 556 0
DWIDTH 17 0
BBX 15 22 1 0
BITMAP
07E0
1FF8
3FFC
783C
701E
E00E
000E
001C
003C
0078
00F0
00E0
01C0
0380
0380
0380
0380
0000
0000
0380
0380
0380
ENDCHAR
STARTCHAR 0040
ENCODING 64
SWIDTH 1014 0
DWIDTH 31 0
BBX 28 29 2 -7
BITMAP
003FE000
00FFF800
03FFFE00
07E03F00
0F000780
1E0003C0
381E39C0
307FB8E0
70FFF860
61F1F060
E1C0F070
C3807070
C3807070
C3806060
C7006060
C700E0E0
C300E0C0
C381E1C0
C3C7E780
E1FFFF00
E1FEFE00
70787800
78000070
3C0000E0
1E0003E0
0FE00FC0
07FFFF00
01FFFC00
003FF000
ENDCHAR
STARTCHAR 0041
ENCODING 65
SWIDTH 687 0
DWIDTH 21 0
BBX 21 22 0 0
BITMAP
00F000
00F000
01F800
01F800
019800
039C00
039C00
030E00
070E00
060700
0E0700
0E0300
0FFF80
1FFF80
1FFFC0
3801C0
3801C0
3800E0
7000E0
7000F0
700070
E00078
ENDCHAR
STARTCHAR 0042
ENCODING 66
SWIDTH 687 0
DWIDTH 21 0
BBX 17 22 2 0
BITMAP
FFF000
FFFC00
FFFE00
E01F00
E00700
E00700
E00700
E00600
E01E00
FFFC00
FFFC00
FFFE00
E00F00
E00780
E00380
E00380
E00380
E00780
E00F00
FFFF00
FFFE00
FFF800
ENDCHAR
STARTCHAR 0043
ENCODING 67
SWIDTH 720 0
DWIDTH 22 0
BBX 19 22 2 0
BITMAP
01F800
0FFE00
1FFF80
3E0780
7803C0
7001C0
F000E0
E00000
E00000
E00000
E00000
E00000
E00000
E00000
E000E0
F000E0
7001E0
7803C0
3E0F80
1FFF00
0FFE00
03F800
ENDCHAR
STARTCHAR 0044
ENCODING 68
SWIDTH 720 0
DWIDTH 22 0
BBX 19 22 2 0
BITMAP
FFF800
FFFE00
FFFF00
E00F80
E00780
E003C0
E001C0
E001C0
E000E0
E000E0
E000E0
E000E0
E000E0
E001E0
E001C0
E001C0
E003C0
E00380
E00F80
FFFF00
FFFE00
FFF000
ENDCHAR
STARTCHAR 0045
ENCODING 69
SWIDTH 687 0
DWIDTH 21 0
BBX 17 22 2 0
BITMAP
FFFF80
FFFF80
FFFF80
E00000
E00000
E00000
E00000
E00000
E00000
FFFF00
FFFF00
FFFF00
E00000
E00000
E00000
E00000
E00000
E00000
E00000
FFFF80
FFFF80
FFFF80
ENDCHAR
STARTCHAR 0046
ENCODING 70
SWIDTH 621 0
DWIDTH 19 0
BBX 15 22 3 0
BITMAP
FFFE
FFFE
FFFE
C000
C000
C000
C000
C000
C000
FFF8
FFF8
FFF8
C000
C000
C000
C000
C000
C000
C000
C000
C000
C000
ENDCHAR
STARTCHAR 0047
ENCODING 71
SWIDTH 785 0
DWIDTH 24 0
BBX 20 22 2 0
BITMAP
01FC00
07FF00
1FFFC0
3F03C0
7C01E0
7000E0
F00070
E00000
E00000
E00000
E00000
E01FF0
E01FF0
E01FF0
E00070
F00070
700070
7C0070
3F03F0
1FFFE0
07FF80
01FE00
ENDCHAR
STARTCHAR 0048
ENCODING 72
SWIDTH 720 0
DWIDTH 22 0
BBX 18 22 2 0
BITMAP
E001C0
E001C0
E001C0
E001C0
E001C0
E001C0
E001C0
E001C0
E001C0
FFFFC0
FFFFC0
FFFFC0
E001C0
E001C0
E001C0
E001C0
E001C0
E001C0
E001C0
E001C0
E001C0
E001C0
ENDCHAR
STARTCHAR 0049
ENCODING 73
SWIDTH 294 0
DWIDTH 9 0
BBX 3 22 3 0
BITMAP
E0
E0
E0
E0
E0
E0
E0
E0
E0
E0
E0
E0
E0
E0
E0
E0
E0
E0
E0
E0
E0
E0
ENDCHAR
STARTCHAR 004A
ENCODING 74
SWIDTH 523 0
DWIDTH 16 0
BBX 12 22 1 0
BITMAP
0070
0070
0070
0070
0070
0070
0070
0070
0070
0070
0070
0070
0070
0070
0070
E070
E070
E070
F0F0
7FE0
3FC0
1F80
ENDCHAR
STARTCHAR 004B
ENCODING 75
SWIDTH 687 0
DWIDTH 21 0
BBX 18 22 2 0
BITMAP
E003C0
E00780
E00F00
E03C00
E07800
E0F000
E1E000
E3C000
E78000
EF8000
FFC000
FDE000
F8F000
F07000
E07800
E03C00
E01E00
E00E00
E00F00
E00780
E003C0
E003C0
ENDCHAR
STARTCHAR 004C
ENCODING 76
SWIDTH 556 0
DWIDTH 17 0
BBX 14 22 2 0
BITMAP
E000
E000
E000
E000
E000
E000
E000
E000
E000
E000
E000
E000
E000
E000
E000
E000
E000
E000
E000
FFFC
FFFC
FFFC
ENDCHAR
STARTCHAR 004D
ENCODING 77
SWIDTH 850 0
DWIDTH 26 0
BBX 21 22 2 0
BITMAP
F80078
F80078
FC0078
FC00D8
EC00D8
EE00D8
EE0198
E60198
E70198
E70318
E30318
E38318
E38618
E18618
E1C618
E1CC18
E0CC18
E0EC18
E0F818
E07818
E07818
E07018
ENDCHAR
STARTCHAR 004E
ENCODING 78
SWIDTH 720 0
DWIDTH 22 0
BBX 18 22 2 0
BITMAP
F001C0
F001C0
F801C0
FC01C0
FC01C0
EE01C0
E701C0
E701C0
E381C0
E1C1C0
E1C1C0
E0E1C0
E071C0
E071C0
E039C0
E01DC0
E01DC0
E00FC0
E007C0
E007C0
E003C0
E003C0
ENDCHAR
STARTCHAR 004F
ENCODING 79
SWIDTH 785 0
DWIDTH 24 0
BBX 22 22 1 0
BITMAP
00FE00
07FF80
0FFFC0
1F03E0
3C00F0
380070
780038
700038
700038
70001C
F0001C
F0001C
70001C
700038
700038
780038
380078
3C00F0
1F03E0
0FFFC0
07FF80
00FC00
ENDCHAR
STARTCHAR 0050
ENCODING 80
SWIDTH 687 0
DWIDTH 21 0
BBX 17 22 2 0
BITMAP
FFF800
FFFE00
FFFF00
E00780
E00380
E00380
E00380
E00380
E00380
E00F80
FFFF00
FFFE00
FFF800
E00000
E00000
E00000
E00000
E00000
E00000
E00000
E00000
E00000
ENDCHAR
STARTCHAR 0051
ENCODING 81
SWIDTH 785 0
DWIDTH 24 0
BBX 22 23 1 -1
BITMAP
00FC00
07FF80
0FFFC0
1F03E0
3C00F0
380070
700078
700038
700038
E00038
E0001C
E0001C
E00038
700038
700038
700878
381E70
3C0FE0
1F03C0
0FFFE0
07FFF8
00FE7C
000018
ENDCHAR
STARTCHAR 0052
ENCODING 82
SWIDTH 720 0
DWIDTH 22 0
BBX 20 22 2 0
BITMAP
FFFC00
FFFF00
FFFF80
E007C0
E001C0
E001C0
E001C0
E001C0
E007C0
FFFF80
FFFF00
FFFC00
E07800
E03C00
E01E00
E00F00
E00700
E00780
E003C0
E001C0
E001E0
E000F0
ENDCHAR
STARTCHAR 0053
ENCODING 83
SWIDTH 687 0
DWIDTH 21 0
BBX 18 22 1 0
BITMAP
03F000
0FFE00
3FFF00
3C0F00
780380
700380
700380
780000
3E0000
1FE000
0FFC00
01FF00
000F80
0003C0
E001C0
6001C0
7001C0
7803C0
3E0780
1FFF80
0FFE00
03F800
ENDCHAR
STARTCHAR 0054
ENCODING 84
SWIDTH 621 0
DWIDTH 19 0
BBX 17 22 1 0
BITMAP
FFFF80
FFFF80
FFFF80
01C000
01C000
01C000
01C000
01C000
01C000
01C000
01C000
01C000
01C000
01C000
01C000
01C000
01C000
01C000
01C000
01C000
01C000
01C000
ENDCHAR
STARTCHAR 0055
ENCODING 85
SWIDTH 720 0
DWIDTH 22 0
BBX 18 22 2 0
BITMAP
E001C0
E001C0
E001C0
E001C0
E001C0
E001C0
E001C0
E001C0
E001C0
E001C0
E001C0
E001C0
E001C0
E001C0
E001C0
7001C0
700380
780380
3C0F80
3FFF00
1FFE00
07F800
ENDCHAR
STARTCHAR 0056
ENCODING 86
SWIDTH 687 0
DWIDTH 21 0
BBX 20 22 0 0
BITMAP
F00070
700070
7000E0
7800E0
3800E0
3801C0
1C01C0
1C0180
1C0380
0E0380
0E0700
060700
070700
070E00
038E00
038C00
019C00
01DC00
01D800
00F800
00F000
007000
ENDCHAR
STARTCHAR 0057
ENCODING 87
SWIDTH 949 0
DWIDTH 29 0
BBX 28 22 1 0
BITMAP
E00F0070
E01F0070
E01F00E0
E01B00E0
601B80E0
703B80C0
703981C0
7031C1C0
3071C1C0
3870C180
3860C380
3860E380
18E0E300
1CE06300
1CC07700
0CC07700
0DC07600
0DC03600
0F803E00
07803E00
07801C00
07001C00
ENDCHAR
STARTCHAR 0058
ENCODING 88
SWIDTH 687 0
DWIDTH 21 0
BBX 19 22 1 0
BITMAP
7001E0
7801C0
380380
1C0700
1E0F00
0F1E00
071C00
03B800
03F800
01F000
00E000
01F000
03F800
03B800
071C00
0E1E00
1E0F00
1C0700
380780
7003C0
F001C0
E001E0
ENDCHAR
STARTCHAR 0059
ENCODING 89
SWIDTH 687 0
DWIDTH 21 0
BBX 20 22 0 0
BITMAP
F00070
7800E0
3801E0
3C01C0
1E0380
0E0780
0F0700
078E00
039E00
03DC00
01F800
00F000
007000
007000
007000
007000
007000
007000
007000
007000
007000
007000
ENDCHAR
STARTCHAR 005A
ENCODING 90
SWIDTH 621 0
DWIDTH 19 0
BBX 17 22 1 0
BITMAP
7FFF80
7FFF80
7FFF80
000700
000F00
001E00
003C00
007800
00F000
01E000
01C000
03C000
078000
0F0000
1E0000
3C0000
380000
780000
F00000
FFFF80
FFFF80
FFFF80
ENDCHAR
STARTCHAR 005B
ENCODING 91
SWIDTH 294 0
DWIDTH 9 0
BBX 6 28 2 -6
BITMAP
FC
FC
FC
E0
E0
E0
E0
E0
E0
E0
E0
E0
E0
E0
E0
E0
E0
E0
E0
E0
E0
E0
E0
E0
E0
FC
FC
FC
ENDCHAR
STARTCHAR 005C
ENCODING 92
SWIDTH 294 0
DWIDTH 9 0
BBX 8 22 0 0
BITMAP
C0
E0
60
60
60
30
30
30
38
18
18
1C
0C
0C
0C
06
06
06
07
03
03
03
ENDCHAR
STARTCHAR 005D
ENCODING 93
SWIDTH 294 0
DWIDTH 9 0
BBX 6 28 1 -6
BITMAP
FC
FC
FC
1C
1C
1C
1C
1C
1C
1C
1C
1C
1C
1C
1C
1C
1C
1C
1C
1C
1C
1C
1C
1C
1C
FC
FC
FC
ENDCHAR
STARTCHAR 005E
ENCODING 94
SWIDTH 490 0
DWIDTH 15 0
BBX 13 12 1 11
BITMAP
0700
0F00
0F00
0F80
1D80
19C0
38C0
30E0
7060
7070
E070
E038
ENDCHAR
STARTCHAR 005F
ENCODING 95
SWIDTH 556 0
DWIDTH 17 0
BBX 18 3 0 -6
BITMAP
FFFFC0
FFFFC0
FFFFC0
ENDCHAR
STARTCHAR 0060
ENCODING 96
SWIDTH 327 0
DWIDTH 10 0
BBX 5 4 2 18
BITMAP
E0
70
30
38
ENDCHAR
STARTCHAR 0061
ENCODING 97
SWIDTH 556 0
DWIDTH 17 0
BBX 15 16 1 0
BITMAP
0FE0
3FF8
3FFC
703C
601C
001C
007C
1FFC
3F9C
701C
E01C
E03C
F07C
7FFC
7FEC
1F8E
ENDCHAR
STARTCHAR 0062
ENCODING 98
SWIDTH 556 0
DWIDTH 17 0
BBX 14 22 2 0
BITMAP
E000
E000
E000
E000
E000
E000
E7C0
EFE0
FFF0
F878
F038
E01C
E01C
E01C
E01C
E01C
E01C
E038
F878
FFF0
EFE0
E7C0
ENDCHAR
STARTCHAR 0063
ENCODING 99
SWIDTH 523 0
DWIDTH 16 0
BBX 14 16 1 0
BITMAP
07C0
1FF0
3FF8
7838
701C
E000
E000
E000
E000
E000
E01C
701C
7838
3FF8
1FF0
07C0
ENDCHAR
STARTCHAR 0064
ENCODING 100
SWIDTH 556 0
DWIDTH 17 0
BBX 14 22 1 0
BITMAP
001C
001C
001C
001C
001C
001C
0F9C
1FDC
3FFC
787C
703C
E01C
E01C
E01C
E01C
E01C
E01C
701C
787C
3FFC
1FDC
0F9C
ENDCHAR
STARTCHAR 0065
ENCODING 101
SWIDTH 556 0
DWIDTH 17 0
BBX 15 16 1 0
BITMAP
07C0
1FF0
3FF8
783C
701C
E00E
E00E
FFFE
FFFE
E000
E000
700E
783C
3FFC
1FF8
07E0
ENDCHAR
STARTCHAR 0066
ENCODING 102
SWIDTH 294 0
DWIDTH 9 0
BBX 10 22 0 0
BITMAP
07C0
1FC0
1F80
1C00
1800
1800
FF80
FF80
FF80
1800
1800
1800
1800
1800
1800
1800
1800
1800
1800
1800
1800
1800
ENDCHAR
STARTCHAR 0067
ENCODING 103
SWIDTH 556 0
DWIDTH 17 0
BBX 14 22 1 -6
BITMAP
0FCC
1FEC
3FFC
787C
701C
E01C
E01C
E00C
E00C
E01C
E01C
701C
787C
3FFC
1FFC
0F9C
001C
601C
703C
7FF8
3FF0
0FC0
ENDCHAR
STARTCHAR 0068
ENCODING 104
SWIDTH 556 0
DWIDTH 17 0
BBX 13 22 2 0
BITMAP
E000
E000
E000
E000
E000
E000
E7C0
EFF0
FFF8
F878
F038
E038
E038
E038
E038
E038
E038
E038
E038
E038
E038
E038
ENDCHAR
STARTCHAR 0069
ENCODING 105
SWIDTH 229 0
DWIDTH 7 0
BBX 3 22 2 0
BITMAP
E0
E0
E0
00
00
00
E0
E0
E0
E0
E0
E0
E0
E0
E0
E0
E0
E0
E0
E0
E0
E0
ENDCHAR
STARTCHAR 006A
ENCODING 106
SWIDTH 229 0
DWIDTH 7 0
BBX 6 28 -1 -6
BITMAP
1C
1C
1C
00
00
00
1C
1C
1C
1C
1C
1C
1C
1C
1C
1C
1C
1C
1C
1C
1C
1C
1C
1C
1C
F8
F8
F0
ENDCHAR
STARTCHAR 006B
ENCODING 107
SWIDTH 523 0
DWIDTH 16 0
BBX 13 22 2 0
BITMAP
E000
E000
E000
E000
E000
E000
E070
E0E0
E1C0
E380
E700
EE00
FE00
FF00
F700
E380
E3C0
E1C0
E0E0
E0F0
E070
E038
ENDCHAR
STARTCHAR 006C
ENCODING 108
SWIDTH 229 0
DWIDTH 7 0
BBX 3 22 2 0
BITMAP
E0
E0
E0
E0
E0
E0
E0
E0
E0
E0
E0
E0
E0
E0
E0
E0
E0
E0
E0
E0
E0
E0
ENDCHAR
STARTCHAR 006D
ENCODING 109
SWIDTH 850 0
DWIDTH 26 0
BBX 22 16 2 0
BITMAP
C7C1E0
CFE7F8
DFFFF8
F87C3C
F0781C
E0381C
E0301C
E0301C
E0301C
E0301C
E0301C
E0301C
E0301C
E0301C
E0301C
E0301C
ENDCHAR
STARTCHAR 006E
ENCODING 110
SWIDTH 556 0
DWIDTH 17 0
BBX 13 16 2 0
BITMAP
E7C0
FFF0
FFF8
F878
F038
E038
E038
E038
E038
E038
E038
E038
E038
E038
E038
E038
ENDCHAR
STARTCHAR 006F
ENCODING 111
SWIDTH 556 0
DWIDTH 17 0
BBX 15 16 1 0
BITMAP
07E0
1FF0
3FF8
783C
701E
E00E
E00E
E00E
E00E
E00E
E00E
701E
783C
3FF8
1FF0
07C0
ENDCHAR
STARTCHAR 0070
ENCODING 112
SWIDTH 556 0
DWIDTH 17 0
BBX 14 22 2 -6
BITMAP
E7C0
EFE0
FFF0
F878
F038
E01C
E01C
E01C
E01C
E01C
E01C
E038
F878
FFF0
EFE0
E7C0
E000
E000
E000
E000
E000
E000
ENDCHAR
STARTCHAR 0071
ENCODING 113
SWIDTH 556 0
DWIDTH 17 0
BBX 14 22 1 -6
BITMAP
0F8C
1FCC
3FEC
787C
703C
E01C
E01C
E00C
E00C
E01C
E01C
701C
787C
3FFC
1FDC
079C
001C
001C
001C
001C
001C
001C
ENDCHAR
STARTCHAR 0072
ENCODING 114
SWIDTH 327 0
DWIDTH 10 0
BBX 8 16 2 0
BITMAP
CF
DF
DF
F0
E0
E0
E0
E0
E0
E0
E0
E0
E0
E0
E0
E0
ENDCHAR
STARTCHAR 0073
ENCODING 115
SWIDTH 523 0
DWIDTH 16 0
BBX 13 16 1 0
BITMAP
1FC0
3FE0
79F0
E038
E000
7800
7F80
3FE0
0FF8
00F8
0038
E038
F078
7FF8
3FF0
0FC0
ENDCHAR
STARTCHAR 0074
ENCODING 116
SWIDTH 294 0
DWIDTH 9 0
BBX 7 21 1 1
BITMAP
30
30
30
30
30
FE
FE
FE
30
30
30
30
30
30
30
30
30
38
3E
3E
1E
ENDCHAR
STARTCHAR 0075
ENCODING 117
SWIDTH 556 0
DWIDTH 17 0
BBX 13 16 2 0
BITMAP
E038
E038
E038
E038
E038
E038
E038
E038
E038
E038
E038
E078
F0F8
7FD8
7F98
1F18
ENDCHAR
STARTCHAR 0076
ENCODING 118
SWIDTH 523 0
DWIDTH 16 0
BBX 14 16 1 0
BITMAP
C01C
E01C
E038
7038
7030
7070
3870
3860
18E0
1CE0
1DC0
0DC0
0F80
0780
0780
0700
ENDCHAR
STARTCHAR 0077
ENCODING 119
SWIDTH 720 0
DWIDTH 22 0
BBX 22 16 0 0
BITMAP
E0381C
60781C
707818
707C38
707C38
30EC30
38CC30
38CE70
19CE60
1DC660
1D86E0
0D87E0
0F87C0
0F83C0
0703C0
070380
ENDCHAR
STARTCHAR 0078
ENCODING 120
SWIDTH 523 0
DWIDTH 16 0
BBX 14 16 1 0
BITMAP
E038
7038
7870
38E0
1DE0
0FC0
0F80
0780
0780
0FC0
1DC0
3CE0
3870
7078
F038
E01C
ENDCHAR
STARTCHAR 0079
ENCODING 121
SWIDTH 523 0
DWIDTH 16 0
BBX 14 22 1 -6
BITMAP
E01C
E01C
E018
7038
7038
3870
3870
3860
1CE0
1CE0
0CC0
0FC0
0FC0
0780
0780
0300
0700
0700
0E00
7E00
7C00
7800
ENDCHAR
STARTCHAR 007A
ENCODING 122
SWIDTH 523 0
DWIDTH 16 0
BBX 14 16 1 0
BITMAP
FFF8
FFF8
FFF8
0070
00E0
01E0
03C0
0780
0F00
1E00
3C00
7800
F000
FFFC
FFFC
FFFC
ENDCHAR
STARTCHAR 007B
ENCODING 123
SWIDTH 327 0
DWIDTH 10 0
BBX 9 28 1 -6
BITMAP
0780
0F80
1F80
1C00
1C00
1C00
1C00
1C00
1C00
1800
1800
3800
F000
C000
F000
3800
3800
1800
1C00
1C00
1C00
1C00
1C00
1C00
1C00
1F80
0F80
0780
ENDCHAR
STARTCHAR 007C
ENCODING 124
SWIDTH 261 0
DWIDTH 8 0
BBX 2 29 3 -7
BITMAP
C0
C0
C0
C0
C0
C0
C0
C0
C0
C0
C0
C0
C0
C0
C0
C0
C0
C0
C0
C0
C0
C0
C0
C0
C0
C0
C0
C0
C0
ENDCHAR
STARTCHAR 007D
ENCODING 125
SWIDTH 327 0
DWIDTH 10 0
BBX 8 28 1 -6
BITMAP
E0
F8
F8
38
18
18
18
18
18
1C
1C
1E
0F
03
0F
0E
1C
1C
18
18
18
18
18
18
38
F8
F0
E0
ENDCHAR
STARTCHAR 007E
ENCODING 126
SWIDTH 589 0
DWIDTH 18 0
BBX 16 6 1 7
BITMAP
1E01
7F81
7FC7
E3FE
80FE
8078
ENDCHAR
STARTCHAR 00A0
ENCODING 160
SWIDTH 294 0
DWIDTH 9 0
BBX 0 0 0 0
BITMAP
ENDCHAR
STARTCHAR 00A1
ENCODING 161
SWIDTH 327 0
DWIDTH 10 0
BBX 3 22 4 -6
BITMAP
E0
E0
E0
00
00
C0
C0
C0
C0
C0
C0
E0
E0
E0
E0
E0
E0
E0
E0
E0
E0
E0
ENDCHAR
STARTCHAR 00A2
ENCODING 162
SWIDTH 556 0
DWIDTH 17 0
BBX 14 28 2 -6
BITMAP
0030
0020
0060
0060
0060
00C0
0FC0
3FE0
7FF0
79F8
E1B8
E198
E300
C300
C300
E600
E61C
F438
7C78
7FF0
3FE0
1F80
1800
1800
1800
3000
3000
3000
ENDCHAR
STARTCHAR 00A3
ENCODING 163
SWIDTH 556 0
DWIDTH 17 0
BBX 15 22 1 0
BITMAP
07E0
1FF8
3FF8
3C3C
781C
700E
7000
7000
3000
3800
FFC0
FFC0
FFC0
1C00
1C00
1800
3800
3000
FF86
FFFE
FFFE
C0FC
ENDCHAR
STARTCHAR 00A4
ENCODING 164
SWIDTH 556 0
DWIDTH 17 0
BBX 15 15 1 2
BITMAP
4004
E7CE
7FFC
3FF8
3C38
701C
701C
701C
701C
701C
3C38
3FF8
7FFC
E7CE
4004
ENDCHAR
STARTCHAR 00A5
ENCODING 165
SWIDTH 556 0
DWIDTH 17 0
BBX 17 22 0 0
BITMAP
E00380
700700
700700
380E00
3C1E00
1C1C00
0E3C00
0E3800
077000
077000
03E000
7FFF00
7FFF00
7FFF00
01C000
01C000
7FFF00
7FFF00
7FFF00
01C000
01C000
01C000
ENDCHAR
STARTCHAR 00A6
ENCODING 166
SWIDTH 261 0
DWIDTH 8 0
BBX 2 29 3 -7
BITMAP
C0
C0
C0
C0
C0
C0
C0
C0
C0
C0
C0
C0
00
00
00
00
00
C0
C0
C0
C0
C0
C0
C0
C0
C0
C0
C0
C0
ENDCHAR
STARTCHAR 00A7
ENCODING 167
SWIDTH 556 0
DWIDTH 17 0
BBX 15 29 1 -7
BITMAP
07C0
1FF0
3FF8
3838
3018
3800
3C00
1E00
3F80
73E0
E1F0
E078
E03C
E00E
780E
3C0E
1F0C
07DC
03F0
00F0
0078
0038
701C
701C
381C
3C38
1FF8
0FF0
07C0
ENDCHAR
STARTCHAR 00A8
ENCODING 168
SWIDTH 327 0
DWIDTH 10 0
BBX 8 3 1 19
BITMAP
E3
E3
E3
ENDCHAR
STARTCHAR 00A9
ENCODING 169
SWIDTH 752 0
DWIDTH 23 0
BBX 23 22 0 0
BITMAP
00FE00
03FF80
0F03E0
1C0070
380038
307C18
61FE0C
63830C
C30186
C30006
C70006
C30006
C30006
C30186
63830C
61FF0C
307C18
380038
1C0070
0F01E0
03FF80
00FE00
ENDCHAR
STARTCHAR 00AA
ENCODING 170
SWIDTH 360 0
DWIDTH 11 0
BBX 10 11 1 11
BITMAP
3F00
7F80
E180
0180
0780
7F80
E180
C180
C380
FF80
7DC0
ENDCHAR
STARTCHAR 00AB
ENCODING 171
SWIDTH 556 0
DWIDTH 17 0
BBX 13 14 2 1
BITMAP
0E38
0C30
1C70
38E0
38C0
71C0
E380
E380
71C0
38C0
38E0
1C70
0C30
0638
ENDCHAR
STARTCHAR 00AC
ENCODING 172
SWIDTH 589 0
DWIDTH 18 0
BBX 14 9 2 6
BITMAP
FFFC
FFFC
FFFC
000C
000C
000C
000C
000C
000C
ENDCHAR
STARTCHAR 00AD
ENCODING 173
SWIDTH 327 0
DWIDTH 10 0
BBX 8 3 1 7
BITMAP
FF
FF
FF
ENDCHAR
STARTCHAR 00AE
ENCODING 174
SWIDTH 752 0
DWIDTH 23 0
BBX 23 22 0 0
BITMAP
00FE00
03FF80
0F03E0
1C0070
380038
33FC18
63FE0C
63070C
C30306
C30706
C3FE06
C3FC06
C31806
C30C06
63060C
63070C
330318
380038
1C0070
0F01E0
03FF80
00FE00
ENDCHAR
STARTCHAR 00AF
ENCODING 175
SWIDTH 556 0
DWIDTH 17 0
BBX 18 3 0 24
BITMAP
FFFFC0
FFFFC0
FFFFC0
ENDCHAR
STARTCHAR 00B0
ENCODING 176
SWIDTH 392 0
DWIDTH 12 0
BBX 8 8 2 14
BITMAP
3C
7E
E3
C1
C1
C3
7E
3C
ENDCHAR
STARTCHAR 00B1
ENCODING 177
SWIDTH 556 0
DWIDTH 17 0
BBX 15 19 1 0
BITMAP
0380
0380
0380
0380
0380
0380
FFFE
FFFE
FFFE
0380
0380
0380
0380
0380
0380
0000
FFFE
FFFE
FFFE
ENDCHAR
STARTCHAR 00B2
ENCODING 178
SWIDTH 327 0
DWIDTH 10 0
BBX 10 11 0 11
BITMAP
1F00
7F80
61C0
01C0
0180
0300
0E00
1C00
3800
7FC0
FFC0
ENDCHAR
STARTCHAR 00B3
ENCODING 179
SWIDTH 327 0
DWIDTH 10 0
BBX 9 11 1 11
BITMAP
3E00
7F00
C300
0300
1E00
1F00
0380
0380
C380
FF00
7E00
ENDCHAR
STARTCHAR 00B4
ENCODING 180
SWIDTH 327 0
DWIDTH 10 0
BBX 5 4 4 18
BITMAP
78
70
E0
C0
ENDCHAR
STARTCHAR 00B5
ENCODING 181
SWIDTH 589 0
DWIDTH 18 0
BBX 13 22 2 -6
BITMAP
E018
E018
E018
E018
E018
E018
E018
E018
E018
E018
E038
F038
F878
FFF8
EFD8
E798
E000
E000
E000
E000
E000
E000
ENDCHAR
STARTCHAR 00B6
ENCODING 182
SWIDTH 556 0
DWIDTH 17 0
BBX 17 28 0 -6
BITMAP
0FFF80
3FFF80
7FFF80
7F8E00
FF8E00
FF8E00
FF8E00
FF8E00
FF8E00
7F8E00
7F8E00
3F8E00
0F8E00
038E00
038E00
038E00
038E00
038E00
038E00
038E00
038E00
038E00
038E00
038E00
038E00
038E00
038E00
038E00
ENDCHAR
STARTCHAR 00B7
ENCODING 183
SWIDTH 294 0
DWIDTH 9 0
BBX 3 3 3 9
BITMAP
E0
E0
E0
ENDCHAR
STARTCHAR 00B8
ENCODING 184
SWIDTH 327 0
DWIDTH 10 0
BBX 6 7 2 -7
BITMAP
30
30
78
1C
1C
FC
F0
ENDCHAR
STARTCHAR 00B9
ENCODING 185
SWIDTH 327 0
DWIDTH 10 0
BBX 5 11 2 11
BITMAP
18
38
78
F8
D8
98
18
18
18
18
18
ENDCHAR
STARTCHAR 00BA
ENCODING 186
SWIDTH 360 0
DWIDTH 11 0
BBX 10 11 1 11
BITMAP
3E00
7F00
E380
C180
C1C0
C1C0
C1C0
C180
E380
7F00
3E00
ENDCHAR
STARTCHAR 00BB
ENCODING 187
SWIDTH 556 0
DWIDTH 17 0
BBX 13 14 2 1
BITMAP
E380
6180
31C0
38E0
1860
1C70
0E38
0E38
1C70
1860
38E0
31C0
6180
E380
ENDCHAR
STARTCHAR 00BC
ENCODING 188
SWIDTH 850 0
DWIDTH 26 0
BBX 23 22 2 0
BITMAP
180030
380070
780060
F800C0
D80180
980380
180300
180600
180C00
181C00
181800
00300C
00601C
00E03C
01C06C
0180CC
0301CC
07038C
0E03FE
0C03FE
18000C
38000C
ENDCHAR
STARTCHAR 00BD
ENCODING 189
SWIDTH 850 0
DWIDTH 26 0
BBX 23 22 2 0
BITMAP
180030
380060
7800E0
F801C0
D80180
980300
180700
180E00
180C00
181800
183800
0070FC
0061FE
00C18E
01C386
038006
03001C
060038
0C0060
1C01C0
1801FE
3003FE
ENDCHAR
STARTCHAR 00BE
ENCODING 190
SWIDTH 850 0
DWIDTH 26 0
BBX 24 22 1 0
BITMAP
3E0018
7F0038
C30030
030060
1E00C0
1F01C0
038180
C38300
E38600
FF0E00
3E0C00
001806
00300E
00701E
00E03E
00C076
0180E6
0381C6
0701FF
0601FF
0C0006
1C0006
ENDCHAR
STARTCHAR 00BF
ENCODING 191
SWIDTH 621 0
DWIDTH 19 0
BBX 15 22 2 -6
BITMAP
0380
0380
0380
0000
0000
0380
0380
0380
0380
0700
0F00
1E00
3C00
7800
7000
E000
E00E
701C
783C
7FF8
1FF0
0FE0
ENDCHAR
STARTCHAR 00C0
ENCODING 192
SWIDTH 687 0
DWIDTH 21 0
BBX 21 28 0 0
BITMAP
01E000
00E000
007000
003000
000000
000000
00F000
00F000
01F800
01F800
019800
039C00
039C00
030E00
070E00
060700
0E0700
0E0300
0FFF80
1FFF80
1FFFC0
3801C0
3801C0
3800E0
7000E0
7000F0
700070
E00078
ENDCHAR
STARTCHAR 00C1
ENCODING 193
SWIDTH 687 0
DWIDTH 21 0
BBX 21 28 0 0
BITMAP
003800
007800
007000
00E000
000000
000000
00F000
00F000
01F800
01F800
019800
039C00
039C00
030E00
070E00
060700
0E0700
0E0300
0FFF80
1FFF80
1FFFC0
3801C0
3801C0
3800E0
7000E0
7000F0
700070
E00078
ENDCHAR
STARTCHAR 00C2
ENCODING 194
SWIDTH 687 0
DWIDTH 21 0
BBX 21 28 0 0
BITMAP
00F000
01F800
03FC00
039C00
000000
000000
00F000
00F000
01F800
01F800
019800
039C00
039C00
030E00
070E00
060700
0E0700
0E0300
0FFF80
1FFF80
1FFFC0
3801C0
3801C0
3800E0
7000E0
7000F0
700070
E00078
ENDCHAR
STARTCHAR 00C3
ENCODING 195
SWIDTH 687 0
DWIDTH 21 0
BBX 21 28 0 0
BITMAP
01C600
03FE00
07FE00
063C00
000000
000000
00F000
00F000
01F800
01F800
019800
039C00
039C00
030E00
070E00
060700
0E0700
0E0300
0FFF80
1FFF80
1FFFC0
3801C0
3801C0
3800E0
7000E0
7000F0
700070
E00078
ENDCHAR
STARTCHAR 00C4
ENCODING 196
SWIDTH 687 0
DWIDTH 21 0
BBX 21 27 0 0
BITMAP
039C00
039C00
039C00
000000
000000
00F000
00F000
01F800
01F800
019800
039C00
039C00
030E00
070E00
060700
0E0700
0E0300
0FFF80
1FFF80
1FFFC0
3801C0
3801C0
3800E0
7000E0
7000F0
700070
E00078
ENDCHAR
STARTCHAR 00C5
ENCODING 197
SWIDTH 687 0
DWIDTH 21 0
BBX 21 26 0 0
BITMAP
00F000
019800
010800
019800
00F000
00F000
01F800
01F800
019800
039C00
039C00
030E00
070E00
060700
0E0700
0E0300
0FFF80
1FFF80
1FFFC0
3801C0
3801C0
3800E0
7000E0
7000F0
700070
E00078
ENDCHAR
STARTCHAR 00C6
ENCODING 198
SWIDTH 1014 0
DWIDTH 31 0
BBX 29 22 0 0
BITMAP
003FFFF8
003FFFF8
007FFFF8
0071C000
00F1C000
00E1C000
00E1C000
01C1C000
01C1C000
0381FFF0
0381FFF0
0701FFF0
0701C000
0FFFC000
0FFFC000
1FFFC000
1C01C000
3801C000
3801C000
7001FFF8
7001FFF8
E001FFF8
ENDCHAR
STARTCHAR 00C7
ENCODING 199
SWIDTH 720 0
DWIDTH 22 0
BBX 19 29 2 -7
BITMAP
01F800
0FFE00
1FFF80
3E0780
7803C0
7001C0
F000E0
E00000
E00000
E00000
E00000
E00000
E00000
E00000
E000E0
F000E0
7001E0
7803C0
3E0F80
1FFF00
0FFE00
03F800
00C000
00C000
00F000
003000
007000
03F000
03E000
ENDCHAR
STARTCHAR 00C8
ENCODING 200
SWIDTH 687 0
DWIDTH 21 0
BBX 17 28 2 0
BITMAP
038000
03C000
01C000
00E000
000000
000000
FFFF80
FFFF80
FFFF80
E00000
E00000
E00000
E00000
E00000
E00000
FFFF00
FFFF00
FFFF00
E00000
E00000
E00000
E00000
E00000
E00000
E00000
FFFF80
FFFF80
FFFF80
ENDCHAR
STARTCHAR 00C9
ENCODING 201
SWIDTH 687 0
DWIDTH 21 0
BBX 17 28 2 0
BITMAP
00F000
00E000
01C000
018000
000000
000000
FFFF80
FFFF80
FFFF80
E00000
E00000
E00000
E00000
E00000
E00000
FFFF00
FFFF00
FFFF00
E00000
E00000
E00000
E00000
E00000
E00000
E00000
FFFF80
FFFF80
FFFF80
ENDCHAR
STARTCHAR 00CA
ENCODING 202
SWIDTH 687 0
DWIDTH 21 0
BBX 17 28 2 0
BITMAP
01C000
03E000
077000
0E3800
000000
000000
FFFF80
FFFF80
FFFF80
E00000
E00000
E00000
E00000
E00000
E00000
FFFF00
FFFF00
FFFF00
E00000
E00000
E00000
E00000
E00000
E00000
E00000
FFFF80
FFFF80
FFFF80
ENDCHAR
STARTCHAR 00CB
ENCODING 203
SWIDTH 687 0
DWIDTH 21 0
BBX 17 27 2 0
BITMAP
0E3800
0E3800
0E3800
000000
000000
FFFF80
FFFF80
FFFF80
E00000
E00000
E00000
E00000
E00000
E00000
FFFF00
FFFF00
FFFF00
E00000
E00000
E00000
E00000
E00000
E00000
E00000
FFFF80
FFFF80
FFFF80
ENDCHAR
STARTCHAR 00CC
ENCODING 204
SWIDTH 294 0
DWIDTH 9 0
BBX 5 28 1 0
BITMAP
F0
70
38
18
00
00
38
38
38
38
38
38
38
38
38
38
38
38
38
38
38
38
38
38
38
38
38
38
ENDCHAR
STARTCHAR 00CD
ENCODING 205
SWIDTH 294 0
DWIDTH 9 0
BBX 5 28 2 0
BITMAP
38
70
70
E0
00
00
70
70
70
70
70
70
70
70
70
70
70
70
70
70
70
70
70
70
70
70
70
70
ENDCHAR
STARTCHAR 00CE
ENCODING 206
SWIDTH 294 0
DWIDTH 9 0
BBX 9 28 0 0
BITMAP
3C00
3E00
7700
E380
0000
0000
1C00
1C00
1C00
1C00
1C00
1C00
1C00
1C00
1C00
1C00
1C00
1C00
1C00
1C00
1C00
1C00
1C00
1C00
1C00
1C00
1C00
1C00
ENDCHAR
STARTCHAR 00CF
ENCODING 207
SWIDTH 294 0
DWIDTH 9 0
BBX 9 27 0 0
BITMAP
E380
E380
E380
0000
0000
1C00
1C00
1C00
1C00
1C00
1C00
1C00
1C00
1C00
1C00
1C00
1C00
1C00
1C00
1C00
1C00
1C00
1C00
1C00
1C00
1C00
1C00
ENDCHAR
STARTCHAR 00D0
ENCODING 208
SWIDTH 720 0
DWIDTH 22 0
BBX 21 22 0 0
BITMAP
3FFE00
3FFF80
3FFFC0
3803E0
3800E0
3800F0
380070
380070
380038
FFE038
FFE038
FFE038
380038
380078
380070
380070
3800F0
3800E0
3803E0
3FFFC0
3FFF80
3FFC00
ENDCHAR
STARTCHAR 00D1
ENCODING 209
SWIDTH 720 0
DWIDTH 22 0
BBX 18 28 2 0
BITMAP
03C600
07FC00
07FC00
067800
000000
000000
F001C0
F001C0
F801C0
FC01C0
FC01C0
EE01C0
E701C0
E701C0
E381C0
E1C1C0
E1C1C0
E0E1C0
E071C0
E071C0
E039C0
E01DC0
E01DC0
E00FC0
E007C0
E007C0
E003C0
E003C0
ENDCHAR
STARTCHAR 00D2
ENCODING 210
SWIDTH 785 0
DWIDTH 24 0
BBX 22 28 1 0
BITMAP
00E000
00F000
007000
003800
000000
000000
00FE00
07FF80
0FFFC0
1F03E0
3C00F0
380070
780038
700038
700038
70001C
F0001C
F0001C
70001C
700038
700038
780038
380078
3C00F0
1F03E0
0FFFC0
07FF80
00FC00
ENDCHAR
STARTCHAR 00D3
ENCODING 211
SWIDTH 785 0
DWIDTH 24 0
BBX 22 28 1 0
BITMAP
001C00
003C00
003800
007000
000000
000000
00FE00
07FF80
0FFFC0
1F03E0
3C00F0
380070
780038
700038
700038
70001C
F0001C
F0001C
70001C
700038
700038
780038
380078
3C00F0
1F03E0
0FFFC0
07FF80
00FC00
ENDCHAR
STARTCHAR 00D4
ENCODING 212
SWIDTH 785 0
DWIDTH 24 0
BBX 22 28 1 0
BITMAP
007800
00FC00
01FE00
01CE00
000000
000000
00FE00
07FF80
0FFFC0
1F03E0
3C00F0
380070
780038
700038
700038
70001C
F0001C
F0001C
70001C
700038
700038
780038
380078
3C00F0
1F03E0
0FFFC0
07FF80
00FC00
ENDCHAR
STARTCHAR 00D5
ENCODING 213
SWIDTH 785 0
DWIDTH 24 0
BBX 22 28 1 0
BITMAP
00E300
01FF00
03FF00
031E00
000000
000000
00FE00
07FF80
0FFFC0
1F03E0
3C00F0
380070
780038
700038
700038
70001C
F0001C
F0001C
70001C
700038
700038
780038
380078
3C00F0
1F03E0
0FFFC0
07FF80
00FC00
ENDCHAR
STARTCHAR 00D6
ENCODING 214
SWIDTH 785 0
DWIDTH 24 0
BBX 22 27 1 0
BITMAP
01CE00
01CE00
01CE00
000000
000000
00FE00
07FF80
0FFFC0
1F03E0
3C00F0
380070
780038
700038
700038
70001C
F0001C
F0001C
70001C
700038
700038
780038
380078
3C00F0
1F03E0
0FFFC0
07FF80
00FC00
ENDCHAR
STARTCHAR 00D7
ENCODING 215
SWIDTH 589 0
DWIDTH 18 0
BBX 12 13 3 4
BITMAP
4020
E070
F0F0
79E0
3FC0
1F80
0F00
1F80
3FC0
79E0
F0F0
E070
4020
ENDCHAR
STARTCHAR 00D8
ENCODING 216
SWIDTH 785 0
DWIDTH 24 0
BBX 22 24 1 -1
BITMAP
000008
00FE1C
07FFB8
0FFFF0
1F03E0
3C00F0
3801F8
7003B8
700738
700E38
701C3C
E0381C
E0701C
F0E01C
71C038
738038
730038
3E0070
3C00F0
1F03E0
3FFFC0
77FF80
E1FC00
400000
ENDCHAR
STARTCHAR 00D9
ENCODING 217
SWIDTH 720 0
DWIDTH 22 0
BBX 18 28 2 0
BITMAP
038000
01C000
01C000
00E000
000000
000000
E001C0
E001C0
E001C0
E001C0
E001C0
E001C0
E001C0
E001C0
E001C0
E001C0
E001C0
E001C0
E001C0
E001C0
E001C0
7001C0
700380
780380
3C0F80
3FFF00
1FFE00
07F800
ENDCHAR
STARTCHAR 00DA
ENCODING 218
SWIDTH 720 0
DWIDTH 22 0
BBX 18 28 2 0
BITMAP
007000
007000
00E000
00C000
000000
000000
E001C0
E001C0
E001C0
E001C0
E001C0
E001C0
E001C0
E001C0
E001C0
E001C0
E001C0
E001C0
E001C0
E001C0
E001C0
7001C0
700380
780380
3C0F80
3FFF00
1FFE00
07F800
ENDCHAR
STARTCHAR 00DB
ENCODING 219
SWIDTH 720 0
DWIDTH 22 0
BBX 18 28 2 0
BITMAP
01E000
03F000
03B800
073800
000000
000000
E001C0
E001C0
E001C0
E001C0
E001C0
E001C0
E001C0
E001C0
E001C0
E001C0
E001C0
E001C0
E001C0
E001C0
E001C0
7001C0
700380
780380
3C0F80
3FFF00
1FFE00
07F800
ENDCHAR
STARTCHAR 00DC
ENCODING 220
SWIDTH 720 0
DWIDTH 22 0
BBX 18 27 2 0
BITMAP
071800
071800
071800
000000
000000
E001C0
E001C0
E001C0
E001C0
E001C0
E001C0
E001C0
E001C0
E001C0
E001C0
E001C0
E001C0
E001C0
E001C0
E001C0
7001C0
700380
780380
3C0F80
3FFF00
1FFE00
07F800
ENDCHAR
STARTCHAR 00DD
ENCODING 221
SWIDTH 687 0
DWIDTH 21 0
BBX 20 28 0 0
BITMAP
003C00
003800
007000
006000
000000
000000
F00070
7800E0
3801E0
3C01C0
1E0380
0E0780
0F0700
078E00
039E00
03DC00
01F800
00F000
007000
007000
007000
007000
007000
007000
007000
007000
007000
007000
ENDCHAR
STARTCHAR 00DE
ENCODING 222
SWIDTH 687 0
DWIDTH 21 0
BBX 17 22 2 0
BITMAP
E00000
E00000
E00000
E00000
FFF800
FFFE00
FFFF00
E00F80
E00380
E00380
E00380
E00380
E00380
E00780
E00F00
FFFF00
FFFE00
FFF800
E00000
E00000
E00000
E00000
ENDCHAR
STARTCHAR 00DF
ENCODING 223
SWIDTH 621 0
DWIDTH 19 0
BBX 16 22 2 0
BITMAP
0F80
3FE0
7FF0
7870
7030
E030
E070
E060
E0E0
E0C0
E1C0
E1E0
E0F8
E07C
E01E
E007
E007
E307
E78F
E3FE
E1FC
E0F8
ENDCHAR
STARTCHAR 00E0
ENCODING 224
SWIDTH 556 0
DWIDTH 17 0
BBX 15 22 1 0
BITMAP
0700
0780
0380
01C0
0000
0000
0FE0
3FF8
3FFC
703C
601C
001C
007C
1FFC
3F9C
701C
E01C
E03C
F07C
7FFC
7FEC
1F8E
ENDCHAR
STARTCHAR 00E1
ENCODING 225
SWIDTH 556 0
DWIDTH 17 0
BBX 15 22 1 0
BITMAP
00E0
01C0
01C0
0380
0000
0000
0FE0
3FF8
3FFC
703C
601C
001C
007C
1FFC
3F9C
701C
E01C
E03C
F07C
7FFC
7FEC
1F8E
ENDCHAR
STARTCHAR 00E2
ENCODING 226
SWIDTH 556 0
DWIDTH 17 0
BBX 15 22 1 0
BITMAP
0380
07C0
0EE0
1C70
0000
0000
0FE0
3FF8
3FFC
703C
601C
001C
007C
1FFC
3F9C
701C
E01C
E03C
F07C
7FFC
7FEC
1F8E
ENDCHAR
STARTCHAR 00E3
ENCODING 227
SWIDTH 556 0
DWIDTH 17 0
BBX 15 22 1 0
BITMAP
0F38
1FF0
1FF0
39E0
0000
0000
0FE0
3FF8
3FFC
703C
601C
001C
007C
1FFC
3F9C
701C
E01C
E03C
F07C
7FFC
7FEC
1F8E
ENDCHAR
STARTCHAR 00E4
ENCODING 228
SWIDTH 556 0
DWIDTH 17 0
BBX 15 21 1 0
BITMAP
1C70
1C70
1C70
0000
0000
0FE0
3FF8
3FFC
703C
601C
001C
007C
1FFC
3F9C
701C
E01C
E03C
F07C
7FFC
7FEC
1F8E
ENDCHAR
STARTCHAR 00E5
ENCODING 229
SWIDTH 556 0
DWIDTH 17 0
BBX 15 23 1 0
BITMAP
0380
0440
0440
0440
0380
0000
0000
0FE0
3FF8
3FFC
703C
601C
001C
007C
1FFC
3F9C
701C
E01C
E03C
F07C
7FFC
7FEC
1F8E
ENDCHAR
STARTCHAR 00E6
ENCODING 230
SWIDTH 916 0
DWIDTH 28 0
BBX 25 16 1 0
BITMAP
0FE1F800
3FF3FE00
7FFFFF00
703F0700
601C0380
007C0380
0FFFFF80
3FFFFF80
7F9FFF80
F01C0000
E01C0000
E03C0380
F07F0780
7FF7FF00
7FC3FE00
1F01F800
ENDCHAR
STARTCHAR 00E7
ENCODING 231
SWIDTH 523 0
DWIDTH 16 0
BBX 14 23 1 -7
BITMAP
07C0
1FF0
3FF8
7838
701C
E000
E000
E000
E000
E000
E01C
701C
7838
3FF8
1FF0
07C0
0300
0300
0780
01C0
01C0
0FC0
0F00
ENDCHAR
STARTCHAR 00E8
ENCODING 232
SWIDTH 556 0
DWIDTH 17 0
BBX 15 22 1 0
BITMAP
0F00
0700
0380
0180
0000
0000
07C0
1FF0
3FF8
783C
701C
E00E
E00E
FFFE
FFFE
E000
E000
700E
783C
3FFC
1FF8
07E0
ENDCHAR
STARTCHAR 00E9
ENCODING 233
SWIDTH 556 0
DWIDTH 17 0
BBX 15 22 1 0
BITMAP
00E0
01C0
01C0
0380
0000
0000
07C0
1FF0
3FF8
783C
701C
E00E
E00E
FFFE
FFFE
E000
E000
700E
783C
3FFC
1FF8
07E0
ENDCHAR
STARTCHAR 00EA
ENCODING 234
SWIDTH 556 0
DWIDTH 17 0
BBX 15 22 1 0
BITMAP
0380
07C0
0EE0
1C70
0000
0000
07C0
1FF0
3FF8
783C
701C
E00E
E00E
FFFE
FFFE
E000
E000
700E
783C
3FFC
1FF8
07E0
ENDCHAR
STARTCHAR 00EB
ENCODING 235
SWIDTH 556 0
DWIDTH 17 0
BBX 15 21 1 0
BITMAP
1C70
1C70
1C70
0000
0000
07C0
1FF0
3FF8
783C
701C
E00E
E00E
FFFE
FFFE
E000
E000
700E
783C
3FFC
1FF8
07E0
ENDCHAR
STARTCHAR 00EC
ENCODING 236
SWIDTH 294 0
DWIDTH 9 0
BBX 5 22 1 0
BITMAP
E0
70
30
18
00
00
38
38
38
38
38
38
38
38
38
38
38
38
38
38
38
38
ENDCHAR
STARTCHAR 00ED
ENCODING 237
SWIDTH 294 0
DWIDTH 9 0
BBX 5 22 3 0
BITMAP
38
70
60
E0
00
00
E0
E0
E0
E0
E0
E0
E0
E0
E0
E0
E0
E0
E0
E0
E0
E0
ENDCHAR
STARTCHAR 00EE
ENCODING 238
SWIDTH 294 0
DWIDTH 9 0
BBX 9 22 0 0
BITMAP
1C00
3E00
7700
E380
0000
0000
1C00
1C00
1C00
1C00
1C00
1C00
1C00
1C00
1C00
1C00
1C00
1C00
1C00
1C00
1C00
1C00
ENDCHAR
STARTCHAR 00EF
ENCODING 239
SWIDTH 294 0
DWIDTH 9 0
BBX 9 21 0 0
BITMAP
E380
E380
E380
0000
0000
1C00
1C00
1C00
1C00
1C00
1C00
1C00
1C00
1C00
1C00
1C00
1C00
1C00
1C00
1C00
1C00
ENDCHAR
STARTCHAR 00F0
ENCODING 240
SWIDTH 556 0
DWIDTH 17 0
BBX 15 22 1 0
BITMAP
0F10
03F8
01E0
07E0
1EE0
0870
0FB8
1FF8
3FFC
783C
701E
E00E
E00E
E00E
E00E
E00E
E00E
701C
783C
3FF8
1FF0
07C0
ENDCHAR
STARTCHAR 00F1
ENCODING 241
SWIDTH 556 0
DWIDTH 17 0
BBX 13 22 2 0
BITMAP
1E30
1FF0
3FF0
31E0
0000
0000
E7C0
FFF0
FFF8
F878
F038
E038
E038
E038
E038
E038
E038
E038
E038
E038
E038
E038
ENDCHAR
STARTCHAR 00F2
ENCODING 242
SWIDTH 556 0
DWIDTH 17 0
BBX 15 22 1 0
BITMAP
0F00
0700
0380
0180
0000
0000
07E0
1FF0
3FF8
783C
701E
E00E
E00E
E00E
E00E
E00E
E00E
701E
783C
3FF8
1FF0
07C0
ENDCHAR
STARTCHAR 00F3
ENCODING 243
SWIDTH 556 0
DWIDTH 17 0
BBX 15 22 1 0
BITMAP
00E0
01C0
01C0
0380
0000
0000
07E0
1FF0
3FF8
783C
701E
E00E
E00E
E00E
E00E
E00E
E00E
701E
783C
3FF8
1FF0
07C0
ENDCHAR
STARTCHAR 00F4
ENCODING 244
SWIDTH 556 0
DWIDTH 17 0
BBX 15 22 1 0
BITMAP
0380
07C0
0EE0
1C70
0000
0000
07E0
1FF0
3FF8
783C
701E
E00E
E00E
E00E
E00E
E00E
E00E
701E
783C
3FF8
1FF0
07C0
ENDCHAR
STARTCHAR 00F5
ENCODING 245
SWIDTH 556 0
DWIDTH 17 0
BBX 15 22 1 0
BITMAP
0F38
1FF0
1FF0
39E0
0000
0000
07E0
1FF0
3FF8
783C
701E
E00E
E00E
E00E
E00E
E00E
E00E
701E
783C
3FF8
1FF0
07C0
ENDCHAR
STARTCHAR 00F6
ENCODING 246
SWIDTH 556 0
DWIDTH 17 0
BBX 15 21 1 0
BITMAP
1C70
1C70
1C70
0000
0000
07E0
1FF0
3FF8
783C
701E
E00E
E00E
E00E
E00E
E00E
E00E
701E
783C
3FF8
1FF0
07C0
ENDCHAR
STARTCHAR 00F7
ENCODING 247
SWIDTH 556 0
DWIDTH 17 0
BBX 15 13 1 4
BITMAP
0380
0380
0380
0000
0000
FFFE
FFFE
FFFE
0000
0000
0380
0380
0380
ENDCHAR
STARTCHAR 00F8
ENCODING 248
SWIDTH 621 0
DWIDTH 19 0
BBX 15 18 2 -1
BITMAP
0004
07CE
1FFC
3FFC
783C
F06E
E0EE
E1CE
E18E
E30E
E70E
EE0E
EC1C
783C
3FF8
7FF0
E7C0
4000
ENDCHAR
STARTCHAR 00F9
ENCODING 249
SWIDTH 556 0
DWIDTH 17 0
BBX 13 22 2 0
BITMAP
0E00
0700
0300
0380
0000
0000
E038
E038
E038
E038
E038
E038
E038
E038
E038
E038
E038
E078
F0F8
7FD8
7F98
1F18
ENDCHAR
STARTCHAR 00FA
ENCODING 250
SWIDTH 556 0
DWIDTH 17 0
BBX 13 22 2 0
BITMAP
01C0
0380
0300
0700
0000
0000
E038
E038
E038
E038
E038
E038
E038
E038
E038
E038
E038
E078
F0F8
7FD8
7F98
1F18
ENDCHAR
STARTCHAR 00FB
ENCODING 251
SWIDTH 556 0
DWIDTH 17 0
BBX 13 22 2 0
BITMAP
0700
0F80
1DC0
38E0
0000
0000
E038
E038
E038
E038
E038
E038
E038
E038
E038
E038
E038
E078
F0F8
7FD8
7F98
1F18
ENDCHAR
STARTCHAR 00FC
ENCODING 252
SWIDTH 556 0
DWIDTH 17 0
BBX 13 21 2 0
BITMAP
38E0
38E0
38E0
0000
0000
E038
E038
E038
E038
E038
E038
E038
E038
E038
E038
E038
E078
F0F8
7FD8
7F98
1F18
ENDCHAR
STARTCHAR 00FD
ENCODING 253
SWIDTH 523 0
DWIDTH 16 0
BBX 14 28 1 -6
BITMAP
01E0
01C0
0380
0300
0000
0000
E01C
E01C
E018
7038
7038
3870
3870
3860
1CE0
1CE0
0CC0
0FC0
0FC0
0780
0780
0300
0700
0700
0E00
7E00
7C00
7800
ENDCHAR
STARTCHAR 00FE
ENCODING 254
SWIDTH 556 0
DWIDTH 17 0
BBX 14 28 2 -6
BITMAP
E000
E000
E000
E000
E000
E000
E7C0
EFE0
FFF0
F878
F038
E01C
E01C
E01C
E01C
E01C
E01C
E038
F878
FFF0
EFE0
E7C0
E000
E000
E000
E000
E000
E000
ENDCHAR
STARTCHAR 00FF
ENCODING 255
SWIDTH 523 0
DWIDTH 16 0
BBX 14 27 1 -6
BITMAP
1CE0
1CE0
1CE0
0000
0000
E01C
E01C
E018
7038
7038
3870
3870
3860
1CE0
1CE0
0CC0
0FC0
0FC0
0780
0780
0300
0700
0700
0E00
7E00
7C00
7800
ENDCHAR
STARTCHAR 0100
ENCODING 256
SWIDTH 687 0
DWIDTH 21 0
BBX 21 27 0 0
BITMAP
07FE00
07FE00
07FE00
000000
000000
00F000
00F000
01F800
01F800
019800
039C00
039C00
030E00
070E00
060700
0E0700
0E0300
0FFF80
1FFF80
1FFFC0
3801C0
3801C0
3800E0
7000E0
7000F0
700070
E00078
ENDCHAR
STARTCHAR 0101
ENCODING 257
SWIDTH 556 0
DWIDTH 17 0
BBX 15 21 1 0
BITMAP
1FF8
1FF8
1FF8
0000
0000
0FE0
3FF8
3FFC
703C
601C
001C
007C
1FFC
3F9C
701C
E01C
E03C
F07C
7FFC
7FEC
1F8E
ENDCHAR
STARTCHAR 0102
ENCODING 258
SWIDTH 687 0
DWIDTH 21 0
BBX 21 28 0 0
BITMAP
030600
038C00
01FC00
00F800
000000
000000
00F000
00F000
01F800
01F800
019800
039C00
039C00
030E00
070E00
060700
0E0700
0E0300
0FFF80
1FFF80
1FFFC0
3801C0
3801C0
3800E0
7000E0
7000F0
700070
E00078
ENDCHAR
STARTCHAR 0103
ENCODING 259
SWIDTH 556 0
DWIDTH 17 0
BBX 15 22 1 0
BITMAP
1830
0C30
0FE0
03C0
0000
0000
0FE0
3FF8
3FFC
703C
601C
001C
007C
1FFC
3F9C
701C
E01C
E03C
F07C
7FFC
7FEC
1F8E
ENDCHAR
STARTCHAR 0104
ENCODING 260
SWIDTH 687 0
DWIDTH 21 0
BBX 23 28 0 -6
BITMAP
00F000
00F000
01F800
01F800
019800
039C00
039C00
030E00
070E00
060700
0E0700
0E0300
0FFF80
1FFF80
1FFFC0
3801C0
3801C0
3800E0
7000E0
7000F0
700070
E00078
000060
000060
000060
000060
00007E
00003C
ENDCHAR
STARTCHAR 0105
ENCODING 261
SWIDTH 556 0
DWIDTH 17 0
BBX 18 22 1 -6
BITMAP
0FE000
3FF800
3FFC00
703C00
601C00
001C00
007C00
1FFC00
3F9C00
701C00
E01C00
E03C00
F07C00
7FFC00
7FEC00
1F8E00
000C00
000C00
000C00
000C00
000FC0
000780
ENDCHAR
STARTCHAR 0106
ENCODING 262
SWIDTH 720 0
DWIDTH 22 0
BBX 19 28 2 0
BITMAP
003800
007000
007000
00E000
000000
000000
01F800
0FFE00
1FFF80
3E0780
7803C0
7001C0
F000E0
E00000
E00000
E00000
E00000
E00000
E00000
E00000
E000E0
F000E0
7001E0
7803C0
3E0F80
1FFF00
0FFE00
03F800
ENDCHAR
STARTCHAR 0107
ENCODING 263
SWIDTH 523 0
DWIDTH 16 0
BBX 14 22 1 0
BITMAP
01E0
01C0
0380
0300
0000
0000
07C0
1FF0
3FF8
7838
701C
E000
E000
E000
E000
E000
E01C
701C
7838
3FF8
1FF0
07C0
ENDCHAR
STARTCHAR 0108
ENCODING 264
SWIDTH 720 0
DWIDTH 22 0
BBX 19 28 2 0
BITMAP
00F000
01F000
03B800
071C00
000000
000000
01F800
0FFE00
1FFF80
3E0780
7803C0
7001C0
F000E0
E00000
E00000
E00000
E00000
E00000
E00000
E00000
E000E0
F000E0
7001E0
7803C0
3E0F80
1FFF00
0FFE00
03F800
ENDCHAR
STARTCHAR 0109
ENCODING 265
SWIDTH 523 0
DWIDTH 16 0
BBX 14 22 1 0
BITMAP
03C0
07E0
0FE0
0E70
0000
0000
07C0
1FF0
3FF8
7838
701C
E000
E000
E000
E000
E000
E01C
701C
7838
3FF8
1FF0
07C0
ENDCHAR
STARTCHAR 010A
ENCODING 266
SWIDTH 720 0
DWIDTH 22 0
BBX 19 27 2 0
BITMAP
00E000
00E000
00E000
000000
000000
01F800
0FFE00
1FFF80
3E0780
7803C0
7001C0
F000E0
E00000
E00000
E00000
E00000
E00000
E00000
E00000
E000E0
F000E0
7001E0
7803C0
3E0F80
1FFF00
0FFE00
03F800
ENDCHAR
STARTCHAR 010B
ENCODING 267
SWIDTH 523 0
DWIDTH 16 0
BBX 14 21 1 0
BITMAP
0380
0380
0380
0000
0000
07C0
1FF0
3FF8
7838
701C
E000
E000
E000
E000
E000
E01C
701C
7838
3FF8
1FF0
07C0
ENDCHAR
STARTCHAR 010C
ENCODING 268
SWIDTH 720 0
DWIDTH 22 0
BBX 19 28 2 0
BITMAP
039C00
03F800
01F800
00F000
000000
000000
01F800
0FFE00
1FFF80
3E0780
7803C0
7001C0
F000E0
E00000
E00000
E00000
E00000
E00000
E00000
E00000
E000E0
F000E0
7001E0
7803C0
3E0F80
1FFF00
0FFE00
03F800
ENDCHAR
STARTCHAR 010D
ENCODING 269
SWIDTH 523 0
DWIDTH 16 0
BBX 14 22 1 0
BITMAP
1C70
0EE0
07C0
0380
0000
0000
07C0
1FF0
3FF8
7838
701C
E000
E000
E000
E000
E000
E01C
701C
7838
3FF8
1FF0
07C0
ENDCHAR
STARTCHAR 010E
ENCODING 270
SWIDTH 720 0
DWIDTH 22 0
BBX 19 28 2 0
BITMAP
1CE000
1FE000
0FC000
078000
000000
000000
FFF800
FFFE00
FFFF00
E00F80
E00780
E003C0
E001C0
E001C0
E000E0
E000E0
E000E0
E000E0
E000E0
E001E0
E001C0
E001C0
E003C0
E00380
E00F80
FFFF00
FFFE00
FFF000
ENDCHAR
STARTCHAR 010F
ENCODING 271
SWIDTH 621 0
DWIDTH 19 0
BBX 18 22 1 0
BITMAP
001DC0
001DC0
001DC0
001C40
001CC0
001CC0
0F9D80
1FFC00
3FFC00
787C00
703C00
E01C00
E01C00
E01C00
E00C00
E01C00
E01C00
701C00
787C00
3FFC00
1FDC00
0F9C00
ENDCHAR
STARTCHAR 0110
ENCODING 272
SWIDTH 720 0
DWIDTH 22 0
BBX 21 22 0 0
BITMAP
3FFE00
3FFF80
3FFFC0
3803E0
3800E0
3800F0
380070
380070
380038
FFE038
FFE038
FFE038
380038
380078
380070
380070
3800F0
3800E0
3803E0
3FFFC0
3FFF80
3FFC00
ENDCHAR
STARTCHAR 0111
ENCODING 273
SWIDTH 556 0
DWIDTH 17 0
BBX 16 22 1 0
BITMAP
001C
03FF
03FF
001C
001C
001C
0F9C
1FDC
3FFC
787C
703C
E01C
E01C
E01C
E01C
E01C
E01C
701C
787C
3FFC
1FDC
0F9C
ENDCHAR
STARTCHAR 0112
ENCODING 274
SWIDTH 687 0
DWIDTH 21 0
BBX 17 27 2 0
BITMAP
0FFC00
0FFC00
0FFC00
000000
000000
FFFF80
FFFF80
FFFF80
E00000
E00000
E00000
E00000
E00000
E00000
FFFF00
FFFF00
FFFF00
E00000
E00000
E00000
E00000
E00000
E00000
E00000
FFFF80
FFFF80
FFFF80
ENDCHAR
STARTCHAR 0113
ENCODING 275
SWIDTH 556 0
DWIDTH 17 0
BBX 15 21 1 0
BITMAP
1FF0
1FF0
1FF0
0000
0000
07C0
1FF0
3FF8
783C
701C
E00E
E00E
FFFE
FFFE
E000
E000
700E
783C
3FFC
1FF8
07E0
ENDCHAR
STARTCHAR 0114
ENCODING 276
SWIDTH 687 0
DWIDTH 21 0
BBX 17 28 2 0
BITMAP
0C1800
063800
07F000
03E000
000000
000000
FFFF80
FFFF80
FFFF80
E00000
E00000
E00000
E00000
E00000
E00000
FFFF00
FFFF00
FFFF00
E00000
E00000
E00000
E00000
E00000
E00000
E00000
FFFF80
FFFF80
FFFF80
ENDCHAR
STARTCHAR 0115
ENCODING 277
SWIDTH 556 0
DWIDTH 17 0
BBX 15 22 1 0
BITMAP
1830
0C30
0FE0
03C0
0000
0000
07C0
1FF0
3FF8
783C
701C
E00E
E00E
FFFE
FFFE
E000
E000
700E
783C
3FFC
1FF8
07E0
ENDCHAR
STARTCHAR 0116
ENCODING 278
SWIDTH 687 0
DWIDTH 21 0
BBX 17 27 2 0
BITMAP
01E000
01E000
01E000
000000
000000
FFFF80
FFFF80
FFFF80
E00000
E00000
E00000
E00000
E00000
E00000
FFFF00
FFFF00
FFFF00
E00000
E00000
E00000
E00000
E00000
E00000
E00000
FFFF80
FFFF80
FFFF80
ENDCHAR
STARTCHAR 0117
ENCODING 279
SWIDTH 556 0
DWIDTH 17 0
BBX 15 21 1 0
BITMAP
03C0
03C0
03C0
0000
0000
07C0
1FF0
3FF8
783C
701C
E00E
E00E
FFFE
FFFE
E000
E000
700E
783C
3FFC
1FF8
07E0
ENDCHAR
STARTCHAR 0118
ENCODING 280
SWIDTH 687 0
DWIDTH 21 0
BBX 17 28 2 -6
BITMAP
FFFF80
FFFF80
FFFF80
E00000
E00000
E00000
E00000
E00000
E00000
FFFF00
FFFF00
FFFF00
E00000
E00000
E00000
E00000
E00000
E00000
E00000
FFFF80
FFFF80
FFFF80
001800
001000
003000
003800
001F80
000F00
ENDCHAR
STARTCHAR 0119
ENCODING 281
SWIDTH 556 0
DWIDTH 17 0
BBX 15 22 1 -6
BITMAP
07C0
1FF0
3FF8
783C
701C
E00E
E00E
FFFE
FFFE
E000
E000
700E
783C
3FFC
1FF8
07E0
0180
0180
0180
0180
01F8
00F0
ENDCHAR
STARTCHAR 011A
ENCODING 282
SWIDTH 687 0
DWIDTH 21 0
BBX 17 28 2 0
BITMAP
0E7000
0FF000
07E000
03C000
000000
000000
FFFF80
FFFF80
FFFF80
E00000
E00000
E00000
E00000
E00000
E00000
FFFF00
FFFF00
FFFF00
E00000
E00000
E00000
E00000
E00000
E00000
E00000
FFFF80
FFFF80
FFFF80
ENDCHAR
STARTCHAR 011B
ENCODING 283
SWIDTH 556 0
DWIDTH 17 0
BBX 15 22 1 0
BITMAP
1E70
0EE0
07C0
03C0
0000
0000
07C0
1FF0
3FF8
783C
701C
E00E
E00E
FFFE
FFFE
E000
E000
700E
783C
3FFC
1FF8
07E0
ENDCHAR
STARTCHAR 011C
ENCODING 284
SWIDTH 785 0
DWIDTH 24 0
BBX 20 28 2 0
BITMAP
007800
00FC00
00EE00
01CF00
000000
000000
01FC00
07FF00
1FFFC0
3F03C0
7C01E0
7000E0
F00070
E00000
E00000
E00000
E00000
E01FF0
E01FF0
E01FF0
E00070
F00070
700070
7C0070
3F03F0
1FFFE0
07FF80
01FE00
ENDCHAR
STARTCHAR 011D
ENCODING 285
SWIDTH 556 0
DWIDTH 17 0
BBX 14 28 1 -6
BITMAP
0780
0FC0
0EE0
1CF0
0000
0000
0FCC
1FEC
3FFC
787C
701C
E01C
E01C
E00C
E00C
E01C
E01C
701C
787C
3FFC
1FFC
0F9C
001C
601C
703C
7FF8
3FF0
0FC0
ENDCHAR
STARTCHAR 011E
ENCODING 286
SWIDTH 785 0
DWIDTH 24 0
BBX 20 28 2 0
BITMAP
018300
018600
00FE00
007800
000000
000000
01FC00
07FF00
1FFFC0
3F03C0
7C01E0
7000E0
F00070
E00000
E00000
E00000
E00000
E01FF0
E01FF0
E01FF0
E00070
F00070
700070
7C0070
3F03F0
1FFFE0
07FF80
01FE00
ENDCHAR
STARTCHAR 011F
ENCODING 287
SWIDTH 556 0
DWIDTH 17 0
BBX 14 28 1 -6
BITMAP
1830
0C70
0FE0
07C0
0000
0000
0FCC
1FEC
3FFC
787C
701C
E01C
E01C
E00C
E00C
E01C
E01C
701C
787C
3FFC
1FFC
0F9C
001C
601C
703C
7FF8
3FF0
0FC0
ENDCHAR
STARTCHAR 0120
ENCODING 288
SWIDTH 785 0
DWIDTH 24 0
BBX 20 27 2 0
BITMAP
007800
007800
007800
000000
000000
01FC00
07FF00
1FFFC0
3F03C0
7C01E0
7000E0
F00070
E00000
E00000
E00000
E00000
E01FF0
E01FF0
E01FF0
E00070
F00070
700070
7C0070
3F03F0
1FFFE0
07FF80
01FE00
ENDCHAR
STARTCHAR 0121
ENCODING 289
SWIDTH 556 0
DWIDTH 17 0
BBX 14 27 1 -6
BITMAP
0380
0380
0380
0000
0000
0FCC
1FEC
3FFC
787C
701C
E01C
E01C
E00C
E00C
E01C
E01C
701C
787C
3FFC
1FFC
0F9C
001C
601C
703C
7FF8
3FF0
0FC0
ENDCHAR
STARTCHAR 0122
ENCODING 290
SWIDTH 785 0
DWIDTH 24 0
BBX 20 29 2 -7
BITMAP
01FC00
07FF00
1FFFC0
3F03C0
7C01E0
7000E0
F00070
E00000
E00000
E00000
E00000
E01FF0
E01FF0
E01FF0
E00070
F00070
700070
7C0070
3F03F0
1FFFE0
07FF80
01FE00
003000
003000
007C00
000C00
001C00
00FC00
00F000
ENDCHAR
STARTCHAR 0123
ENCODING 291
SWIDTH 556 0
DWIDTH 17 0
BBX 14 29 1 -6
BITMAP
0100
0300
0200
0780
0780
0780
0000
0FCC
1FEC
3FFC
787C
701C
E01C
E01C
E00C
E00C
E01C
E01C
701C
787C
3FFC
1FFC
0F9C
001C
601C
703C
7FF8
3FF0
0FC0
ENDCHAR
STARTCHAR 0124
ENCODING 292
SWIDTH 720 0
DWIDTH 22 0
BBX 18 28 2 0
BITMAP
00E000
01F000
03B800
071C00
000000
000000
E001C0
E001C0
E001C0
E001C0
E001C0
E001C0
E001C0
E001C0
E001C0
FFFFC0
FFFFC0
FFFFC0
E001C0
E001C0
E001C0
E001C0
E001C0
E001C0
E001C0
E001C0
E001C0
E001C0
ENDCHAR
STARTCHAR 0125
ENCODING 293
SWIDTH 556 0
DWIDTH 17 0
BBX 13 28 2 0
BITMAP
03C0
07C0
0EE0
1C70
0000
0000
E000
E000
E000
E000
E000
E000
E7C0
EFF0
FFF8
F878
F038
E038
E038
E038
E038
E038
E038
E038
E038
E038
E038
E038
ENDCHAR
STARTCHAR 0126
ENCODING 294
SWIDTH 720 0
DWIDTH 22 0
BBX 22 22 0 0
BITMAP
380070
380070
FFFFFC
FFFFFC
FFFFFC
380070
380070
380070
380070
3FFFF0
3FFFF0
3FFFF0
380070
380070
380070
380070
380070
380070
380070
380070
380070
380070
ENDCHAR
STARTCHAR 0127
ENCODING 295
SWIDTH 556 0
DWIDTH 17 0
BBX 15 22 0 0
BITMAP
3800
3800
FFC0
FFC0
3800
3800
39F0
3FFC
3FFE
3E1E
3C0E
380E
380E
380E
380E
380E
380E
380E
380E
380E
380E
380E
ENDCHAR
STARTCHAR 0128
ENCODING 296
SWIDTH 294 0
DWIDTH 9 0
BBX 10 28 -1 0
BITMAP
38C0
7FC0
FFC0
C780
0000
0000
0E00
0E00
0E00
0E00
0E00
0E00
0E00
0E00
0E00
0E00
0E00
0E00
0E00
0E00
0E00
0E00
0E00
0E00
0E00
0E00
0E00
0E00
ENDCHAR
STARTCHAR 0129
ENCODING 297
SWIDTH 294 0
DWIDTH 9 0
BBX 10 22 -1 0
BITMAP
3CC0
7FC0
FFC0
C780
0000
0000
0E00
0E00
0E00
0E00
0E00
0E00
0E00
0E00
0E00
0E00
0E00
0E00
0E00
0E00
0E00
0E00
ENDCHAR
STARTCHAR 012A
ENCODING 298
SWIDTH 294 0
DWIDTH 9 0
BBX 9 27 0 0
BITMAP
FF80
FF80
FF80
0000
0000
1C00
1C00
1C00
1C00
1C00
1C00
1C00
1C00
1C00
1C00
1C00
1C00
1C00
1C00
1C00
1C00
1C00
1C00
1C00
1C00
1C00
1C00
ENDCHAR
STARTCHAR 012B
ENCODING 299
SWIDTH 294 0
DWIDTH 9 0
BBX 9 21 0 0
BITMAP
FF80
FF80
FF80
0000
0000
1C00
1C00
1C00
1C00
1C00
1C00
1C00
1C00
1C00
1C00
1C00
1C00
1C00
1C00
1C00
1C00
ENDCHAR
STARTCHAR 012C
ENCODING 300
SWIDTH 294 0
DWIDTH 9 0
BBX 9 28 0 0
BITMAP
C180
E380
7F00
3E00
0000
0000
1C00
1C00
1C00
1C00
1C00
1C00
1C00
1C00
1C00
1C00
1C00
1C00
1C00
1C00
1C00
1C00
1C00
1C00
1C00
1C00
1C00
1C00
ENDCHAR
STARTCHAR 012D
ENCODING 301
SWIDTH 294 0
DWIDTH 9 0
BBX 9 22 0 0
BITMAP
C180
E300
7F00
3E00
0000
0000
1C00
1C00
1C00
1C00
1C00
1C00
1C00
1C00
1C00
1C00
1C00
1C00
1C00
1C00
1C00
1C00
ENDCHAR
STARTCHAR 012E
ENCODING 302
SWIDTH 294 0
DWIDTH 9 0
BBX 7 28 2 -6
BITMAP
70
70
70
70
70
70
70
70
70
70
70
70
70
70
70
70
70
70
70
70
70
70
60
40
C0
60
7E
3C
ENDCHAR
STARTCHAR 012F
ENCODING 303
SWIDTH 229 0
DWIDTH 7 0
BBX 6 28 2 -6
BITMAP
E0
E0
E0
00
00
00
E0
E0
E0
E0
E0
E0
E0
E0
E0
E0
E0
E0
E0
E0
E0
E0
C0
80
C0
C0
FC
78
ENDCHAR
STARTCHAR 0130
ENCODING 304
SWIDTH 294 0
DWIDTH 9 0
BBX 3 27 3 0
BITMAP
E0
E0
E0
00
00
E0
E0
E0
E0
E0
E0
E0
E0
E0
E0
E0
E0
E0
E0
E0
E0
E0
E0
E0
E0
E0
E0
ENDCHAR
STARTCHAR 0131
ENCODING 305
SWIDTH 294 0
DWIDTH 9 0
BBX 3 16 3 0
BITMAP
E0
E0
E0
E0
E0
E0
E0
E0
E0
E0
E0
E0
E0
E0
E0
E0
ENDCHAR
STARTCHAR 0132
ENCODING 306
SWIDTH 752 0
DWIDTH 23 0
BBX 18 22 3 0
BITMAP
E001C0
E001C0
E001C0
E001C0
E001C0
E001C0
E001C0
E001C0
E001C0
E001C0
E001C0
E001C0
E001C0
E001C0
E001C0
E381C0
E381C0
E381C0
E3C3C0
E1FF80
E0FF00
E07E00
ENDCHAR
STARTCHAR 0133
ENCODING 307
SWIDTH 458 0
DWIDTH 14 0
BBX 10 28 2 -6
BITMAP
E1C0
E1C0
E1C0
0000
0000
0000
E1C0
E1C0
E1C0
E1C0
E1C0
E1C0
E1C0
E1C0
E1C0
E1C0
E1C0
E1C0
E1C0
E1C0
E1C0
E1C0
01C0
01C0
01C0
0FC0
0F80
0F00
ENDCHAR
STARTCHAR 0134
ENCODING 308
SWIDTH 523 0
DWIDTH 16 0
BBX 15 28 1 0
BITMAP
0078
00FC
01FC
01CE
0000
0000
0070
0070
0070
0070
0070
0070
0070
0070
0070
0070
0070
0070
0070
0070
0070
E070
E070
E070
F0F0
7FE0
3FC0
1F80
ENDCHAR
STARTCHAR 0135
ENCODING 309
SWIDTH 229 0
DWIDTH 7 0
BBX 9 28 -1 -6
BITMAP
1C00
3E00
7700
E380
0000
0000
1C00
1C00
1C00
1C00
1C00
1C00
1C00
1C00
1C00
1C00
1C00
1C00
1C00
1C00
1C00
1C00
1C00
1C00
1C00
F800
F800
F000
ENDCHAR
STARTCHAR 0136
ENCODING 310
SWIDTH 687 0
DWIDTH 21 0
BBX 18 29 2 -7
BITMAP
E003C0
E00780
E00F00
E03C00
E07800
E0F000
E1E000
E3C000
E78000
EF8000
FFC000
FDE000
F8F000
F07000
E07800
E03C00
E01E00
E00E00
E00F00
E00780
E003C0
E003C0
000000
00F000
00F800
003800
003800
01F800
01E000
ENDCHAR
STARTCHAR 0137
ENCODING 311
SWIDTH 523 0
DWIDTH 16 0
BBX 13 29 2 -7
BITMAP
E000
E000
E000
E000
E000
E000
E070
E0E0
E1C0
E380
E700
EE00
FE00
FF00
F700
E380
E3C0
E1C0
E0E0
E0F0
E070
E038
0000
0380
03C0
00E0
00C0
0FC0
0F80
ENDCHAR
STARTCHAR 0138
ENCODING 312
SWIDTH 523 0
DWIDTH 16 0
BBX 13 16 2 0
BITMAP
E070
E0E0
E1C0
E380
E700
EE00
FE00
FF00
F700
E380
E1C0
E1C0
E0E0
E0F0
E070
E038
ENDCHAR
STARTCHAR 0139
ENCODING 313
SWIDTH 556 0
DWIDTH 17 0
BBX 14 28 2 0
BITMAP
0F00
0E00
1C00
1800
0000
0000
E000
E000
E000
E000
E000
E000
E000
E000
E000
E000
E000
E000
E000
E000
E000
E000
E000
E000
E000
FFFC
FFFC
FFFC
ENDCHAR
STARTCHAR 013A
ENCODING 314
SWIDTH 229 0
DWIDTH 7 0
BBX 5 28 1 0
BITMAP
38
70
70
E0
00
00
70
70
70
70
70
70
70
70
70
70
70
70
70
70
70
70
70
70
70
70
70
70
ENDCHAR
STARTCHAR 013B
ENCODING 315
SWIDTH 556 0
DWIDTH 17 0
BBX 14 29 2 -7
BITMAP
E000
E000
E000
E000
E000
E000
E000
E000
E000
E000
E000
E000
E000
E000
E000
E000
E000
E000
E000
FFFC
FFFC
FFFC
0000
03C0
03E0
0060
00E0
07E0
07C0
ENDCHAR
STARTCHAR 013C
ENCODING 316
SWIDTH 229 0
DWIDTH 7 0
BBX 6 29 0 -7
BITMAP
38
38
38
38
38
38
38
38
38
38
38
38
38
38
38
38
38
38
38
38
38
38
00
38
3C
0C
0C
FC
F8
ENDCHAR
STARTCHAR 013D
ENCODING 317
SWIDTH 556 0
DWIDTH 17 0
BBX 14 22 2 0
BITMAP
E070
E070
E070
E030
E030
E030
E060
E040
E000
E000
E000
E000
E000
E000
E000
E000
E000
E000
E000
FFFC
FFFC
FFFC
ENDCHAR
STARTCHAR 013E
ENCODING 318
SWIDTH 294 0
DWIDTH 9 0
BBX 7 22 2 0
BITMAP
EE
EE
EE
E2
E6
E4
EC
E0
E0
E0
E0
E0
E0
E0
E0
E0
E0
E0
E0
E0
E0
E0
ENDCHAR
STARTCHAR 013F
ENCODING 319
SWIDTH 556 0
DWIDTH 17 0
BBX 14 22 2 0
BITMAP
E000
E000
E000
E000
E000
E000
E000
E000
E000
E070
E070
E070
E000
E000
E000
E000
E000
E000
E000
FFFC
FFFC
FFFC
ENDCHAR
STARTCHAR 0140
ENCODING 320
SWIDTH 327 0
DWIDTH 10 0
BBX 8 22 2 0
BITMAP
E0
E0
E0
E0
E0
E0
E0
E0
E0
E7
E7
E7
E0
E0
E0
E0
E0
E0
E0
E0
E0
E0
ENDCHAR
STARTCHAR 0141
ENCODING 321
SWIDTH 556 0
DWIDTH 17 0
BBX 16 22 0 0
BITMAP
3800
3800
3800
3800
3840
38C0
39C0
3B80
3F00
3E00
3C00
7800
F800
F800
B800
3800
3800
3800
3800
3FFF
3FFF
3FFF
ENDCHAR
STARTCHAR 0142
ENCODING 322
SWIDTH 229 0
DWIDTH 7 0
BBX 7 22 0 0
BITMAP
38
38
38
38
38
38
38
3A
3E
3E
3C
78
F8
F8
B8
38
38
38
38
38
38
38
ENDCHAR
STARTCHAR 0143
ENCODING 323
SWIDTH 720 0
DWIDTH 22 0
BBX 18 28 2 0
BITMAP
00F000
00E000
01C000
018000
000000
000000
F001C0
F001C0
F801C0
FC01C0
FC01C0
EE01C0
E701C0
E701C0
E381C0
E1C1C0
E1C1C0
E0E1C0
E071C0
E071C0
E039C0
E01DC0
E01DC0
E00FC0
E007C0
E007C0
E003C0
E003C0
ENDCHAR
STARTCHAR 0144
ENCODING 324
SWIDTH 556 0
DWIDTH 17 0
BBX 13 22 2 0
BITMAP
01C0
0380
0300
0600
0000
0000
E7C0
FFF0
FFF8
F878
F038
E038
E038
E038
E038
E038
E038
E038
E038
E038
E038
E038
ENDCHAR
STARTCHAR 0145
ENCODING 325
SWIDTH 720 0
DWIDTH 22 0
BBX 18 29 2 -7
BITMAP
F001C0
F001C0
F801C0
FC01C0
FC01C0
EE01C0
E701C0
E701C0
E381C0
E1C1C0
E1C1C0
E0E1C0
E071C0
E071C0
E039C0
E01DC0
E01DC0
E00FC0
E007C0
E007C0
E003C0
E003C0
000000
007000
007800
001800
001800
01F800
01F000
ENDCHAR
STARTCHAR 0146
ENCODING 326
SWIDTH 556 0
DWIDTH 17 0
BBX 13 23 2 -7
BITMAP
E7C0
FFF0
FFF8
F878
F038
E038
E038
E038
E038
E038
E038
E038
E038
E038
E038
E038
0000
0700
07C0
01C0
01C0
0F80
1F00
ENDCHAR
STARTCHAR 0147
ENCODING 327
SWIDTH 720 0
DWIDTH 22 0
BBX 18 28 2 0
BITMAP
073800
03B800
03F000
01E000
000000
000000
F001C0
F001C0
F801C0
FC01C0
FC01C0
EE01C0
E701C0
E701C0
E381C0
E1C1C0
E1C1C0
E0E1C0
E071C0
E071C0
E039C0
E01DC0
E01DC0
E00FC0
E007C0
E007C0
E003C0
E003C0
ENDCHAR
STARTCHAR 0148
ENCODING 328
SWIDTH 556 0
DWIDTH 17 0
BBX 13 22 2 0
BITMAP
3CE0
1DC0
0F80
0780
0000
0000
E7C0
FFF0
FFF8
F878
F038
E038
E038
E038
E038
E038
E038
E038
E038
E038
E038
E038
ENDCHAR
STARTCHAR 0149
ENCODING 329
SWIDTH 621 0
DWIDTH 19 0
BBX 17 22 0 0
BITMAP
E00000
E00000
E00000
600000
400000
C00000
9CFC00
1DFE00
1FFF00
1F0F00
1E0700
1E0380
1C0380
1C0380
1C0380
1C0380
1C0380
1C0380
1C0380
1C0380
1C0380
1C0380
ENDCHAR
STARTCHAR 014A
ENCODING 330
SWIDTH 720 0
DWIDTH 22 0
BBX 19 22 2 0
BITMAP
E1FC00
E7FE00
EFFF00
FE0F80
F803C0
F001C0
F001C0
F001E0
F000E0
E000E0
E000E0
E000E0
E000E0
E000E0
E001E0
E001C0
E001C0
E003C0
E04780
E0FF80
E0FF00
E07C00
ENDCHAR
STARTCHAR 014B
ENCODING 331
SWIDTH 556 0
DWIDTH 17 0
BBX 13 22 2 -6
BITMAP
E7C0
FFF0
FFF8
F078
E038
E038
E038
E038
E038
E038
E038
E038
E038
E038
E038
E038
0038
0038
0038
00F8
01F0
01E0
ENDCHAR
STARTCHAR 014C
ENCODING 332
SWIDTH 785 0
DWIDTH 24 0
BBX 22 27 1 0
BITMAP
01FF00
01FF00
01FF00
000000
000000
00FE00
07FF80
0FFFC0
1F03E0
3C00F0
380070
780038
700038
700038
70001C
F0001C
F0001C
70001C
700038
700038
780038
380078
3C00F0
1F03E0
0FFFC0
07FF80
00FC00
ENDCHAR
STARTCHAR 014D
ENCODING 333
SWIDTH 556 0
DWIDTH 17 0
BBX 15 21 1 0
BITMAP
1FF0
1FF0
1FF0
0000
0000
07E0
1FF0
3FF8
783C
701E
E00E
E00E
E00E
E00E
E00E
E00E
701E
783C
3FF8
1FF0
07C0
ENDCHAR
STARTCHAR 014E
ENCODING 334
SWIDTH 785 0
DWIDTH 24 0
BBX 22 28 1 0
BITMAP
018300
01C600
00FE00
007C00
000000
000000
00FE00
07FF80
0FFFC0
1F03E0
3C00F0
380070
780038
700038
700038
70001C
F0001C
F0001C
70001C
700038
700038
780038
380078
3C00F0
1F03E0
0FFFC0
07FF80
00FC00
ENDCHAR
STARTCHAR 014F
ENCODING 335
SWIDTH 556 0
DWIDTH 17 0
BBX 15 22 1 0
BITMAP
1830
0C30
0FE0
07C0
0000
0000
07E0
1FF0
3FF8
783C
701E
E00E
E00E
E00E
E00E
E00E
E00E
701E
783C
3FF8
1FF0
07C0
ENDCHAR
STARTCHAR 0150
ENCODING 336
SWIDTH 785 0
DWIDTH 24 0
BBX 22 28 1 0
BITMAP
00E700
01C700
01CE00
038C00
000000
000000
00FE00
07FF80
0FFFC0
1F03E0
3C00F0
380070
780038
700038
700038
70001C
F0001C
F0001C
70001C
700038
700038
780038
380078
3C00F0
1F03E0
0FFFC0
07FF80
00FC00
ENDCHAR
STARTCHAR 0151
ENCODING 337
SWIDTH 556 0
DWIDTH 17 0
BBX 15 22 1 0
BITMAP
073C
0E38
0E70
0C60
0000
0000
07E0
1FF0
3FF8
783C
701E
E00E
E00E
E00E
E00E
E00E
E00E
701E
783C
3FF8
1FF0
07C0
ENDCHAR
STARTCHAR 0152
ENCODING 338
SWIDTH 1014 0
DWIDTH 31 0
BBX 28 22 2 0
BITMAP
03F1FFF0
0FF9FFF0
1FFDFFF0
3E1FC000
7807C000
7003C000
7003C000
E003C000
E001C000
E001FFE0
E001FFE0
E001FFE0
E001C000
E001C000
E003C000
7003C000
7003C000
7807C000
3E1FC000
1FFDFFF0
0FF9FFF0
03F1FFF0
ENDCHAR
STARTCHAR 0153
ENCODING 339
SWIDTH 949 0
DWIDTH 29 0
BBX 27 16 1 0
BITMAP
07C07C00
1FF0FF00
3FF9FF80
7C3F83C0
701F00C0
700E00E0
E00FFFE0
E00FFFE0
E00FFFE0
E00E0000
F00F0000
701F00E0
7C3FC3C0
3FFBFFC0
1FF0FF80
07C07E00
ENDCHAR
STARTCHAR 0154
ENCODING 340
SWIDTH 720 0
DWIDTH 22 0
BBX 20 28 2 0
BITMAP
01E000
01C000
038000
030000
000000
000000
FFFC00
FFFF00
FFFF80
E007C0
E001C0
E001C0
E001C0
E001C0
E007C0
FFFF80
FFFF00
FFFC00
E07800
E03C00
E01E00
E00F00
E00700
E00780
E003C0
E001C0
E001E0
E000F0
ENDCHAR
STARTCHAR 0155
ENCODING 341
SWIDTH 327 0
DWIDTH 10 0
BBX 8 22 2 0
BITMAP
1E
1C
38
30
00
00
CF
DF
DF
F0
E0
E0
E0
E0
E0
E0
E0
E0
E0
E0
E0
E0
ENDCHAR
STARTCHAR 0156
ENCODING 342
SWIDTH 720 0
DWIDTH 22 0
BBX 20 29 2 -7
BITMAP
FFFC00
FFFF00
FFFF80
E007C0
E001C0
E001C0
E001C0
E001C0
E007C0
FFFF80
FFFF00
FFFC00
E07800
E03C00
E01E00
E00F00
E00700
E00780
E003C0
E001C0
E001E0
E000F0
000000
007000
007800
001800
001800
01F800
01F000
ENDCHAR
STARTCHAR 0157
ENCODING 343
SWIDTH 327 0
DWIDTH 10 0
BBX 8 23 2 -7
BITMAP
CF
DF
DF
F0
E0
E0
E0
E0
E0
E0
E0
E0
E0
E0
E0
E0
00
38
3C
0E
0E
FC
F8
ENDCHAR
STARTCHAR 0158
ENCODING 344
SWIDTH 720 0
DWIDTH 22 0
BBX 20 28 2 0
BITMAP
1E7000
0EE000
07C000
03C000
000000
000000
FFFC00
FFFF00
FFFF80
E007C0
E001C0
E001C0
E001C0
E001C0
E007C0
FFFF80
FFFF00
FFFC00
E07800
E03C00
E01E00
E00F00
E00700
E00780
E003C0
E001C0
E001E0
E000F0
ENDCHAR
STARTCHAR 0159
ENCODING 345
SWIDTH 327 0
DWIDTH 10 0
BBX 9 22 1 0
BITMAP
E380
7700
3E00
1E00
0000
0000
6780
6F80
6F80
7800
7000
7000
7000
7000
7000
7000
7000
7000
7000
7000
7000
7000
ENDCHAR
STARTCHAR 015A
ENCODING 346
SWIDTH 687 0
DWIDTH 21 0
BBX 18 28 1 0
BITMAP
00F000
00E000
01C000
018000
000000
000000
03F000
0FFE00
3FFF00
3C0F00
780380
700380
700380
780000
3E0000
1FE000
0FFC00
01FF00
000F80
0003C0
E001C0
6001C0
7001C0
7803C0
3E0780
1FFF80
0FFE00
03F800
ENDCHAR
STARTCHAR 015B
ENCODING 347
SWIDTH 523 0
DWIDTH 16 0
BBX 13 22 1 0
BITMAP
01C0
0380
0300
0700
0000
0000
1FC0
3FE0
79F0
E038
E000
7800
7F80
3FE0
0FF8
00F8
0038
E038
F078
7FF8
3FF0
0FC0
ENDCHAR
STARTCHAR 015C
ENCODING 348
SWIDTH 687 0
DWIDTH 21 0
BBX 18 28 1 0
BITMAP
01E000
03F000
03B800
073C00
000000
000000
03F000
0FFE00
3FFF00
3C0F00
780380
700380
700380
780000
3E0000
1FE000
0FFC00
01FF00
000F80
0003C0
E001C0
6001C0
7001C0
7803C0
3E0780
1FFF80
0FFE00
03F800
ENDCHAR
STARTCHAR 015D
ENCODING 349
SWIDTH 523 0
DWIDTH 16 0
BBX 13 22 1 0
BITMAP
0780
0FC0
1FE0
1CE0
0000
0000
1FC0
3FE0
79F0
E038
E000
7800
7F80
3FE0
0FF8
00F8
0038
E038
F078
7FF8
3FF0
0FC0
ENDCHAR
STARTCHAR 015E
ENCODING 350
SWIDTH 687 0
DWIDTH 21 0
BBX 18 29 1 -7
BITMAP
03F000
0FFE00
3FFF00
3C0F00
780380
700380
700380
780000
3E0000
1FE000
0FFC00
01FF00
000F80
0003C0
E001C0
6001C0
7001C0
7803C0
3E0780
1FFF80
0FFE00
03F800
00C000
00C000
00F000
003000
007000
03F000
03E000
ENDCHAR
STARTCHAR 015F
ENCODING 351
SWIDTH 523 0
DWIDTH 16 0
BBX 13 23 1 -7
BITMAP
1FC0
3FE0
79F0
E038
E000
7800
7F80
3FE0
0FF8
00F8
0038
E038
F078
7FF8
3FF0
0FC0
0600
0600
0780
01C0
01C0
1F80
1F00
ENDCHAR
STARTCHAR 0160
ENCODING 352
SWIDTH 687 0
DWIDTH 21 0
BBX 18 28 1 0
BITMAP
0F3800
07F000
03F000
01E000
000000
000000
03F000
0FFE00
3FFF00
3C0F00
780380
700380
700380
780000
3E0000
1FE000
0FFC00
01FF00
000F80
0003C0
E001C0
6001C0
7001C0
7803C0
3E0780
1FFF80
0FFE00
03F800
ENDCHAR
STARTCHAR 0161
ENCODING 353
SWIDTH 523 0
DWIDTH 16 0
BBX 13 22 1 0
BITMAP
38E0
1DC0
0F80
0700
0000
0000
1FC0
3FE0
79F0
E038
E000
7800
7F80
3FE0
0FF8
00F8
0038
E038
F078
7FF8
3FF0
0FC0
ENDCHAR
STARTCHAR 0162
ENCODING 354
SWIDTH 621 0
DWIDTH 19 0
BBX 17 30 1 -8
BITMAP
FFFF80
FFFF80
FFFF80
01C000
01C000
01C000
01C000
01C000
01C000
01C000
01C000
01C000
01C000
01C000
01C000
01C000
01C000
01C000
01C000
01C000
01C000
01C000
000000
000000
01C000
01C000
01C000
00C000
00C000
018000
ENDCHAR
STARTCHAR 0163
ENCODING 355
SWIDTH 294 0
DWIDTH 9 0
BBX 7 29 1 -7
BITMAP
30
30
30
30
30
FE
FE
FE
30
30
30
30
30
30
30
30
30
38
3E
3E
1E
00
00
1C
1C
1C
0C
0C
18
ENDCHAR
STARTCHAR 0164
ENCODING 356
SWIDTH 621 0
DWIDTH 19 0
BBX 17 28 1 0
BITMAP
0E3800
077000
03E000
01C000
000000
000000
FFFF80
FFFF80
FFFF80
01C000
01C000
01C000
01C000
01C000
01C000
01C000
01C000
01C000
01C000
01C000
01C000
01C000
01C000
01C000
01C000
01C000
01C000
01C000
ENDCHAR
STARTCHAR 0165
ENCODING 357
SWIDTH 392 0
DWIDTH 12 0
BBX 11 22 1 0
BITMAP
00E0
30E0
30E0
3060
3040
30C0
FE80
FE00
FE00
3000
3000
3000
3000
3000
3000
3000
3000
3000
3800
3E00
3E00
1E00
ENDCHAR
STARTCHAR 0166
ENCODING 358
SWIDTH 621 0
DWIDTH 19 0
BBX 17 22 1 0
BITMAP
FFFF80
FFFF80
FFFF80
01C000
01C000
01C000
01C000
01C000
01C000
01C000
01C000
3FFE00
3FFE00
3FFE00
01C000
01C000
01C000
01C000
01C000
01C000
01C000
01C000
ENDCHAR
STARTCHAR 0167
ENCODING 359
SWIDTH 294 0
DWIDTH 9 0
BBX 8 21 0 1
BITMAP
18
38
38
38
38
FF
FF
FF
38
38
38
FF
FF
FF
38
38
38
38
3F
1F
1F
ENDCHAR
STARTCHAR 0168
ENCODING 360
SWIDTH 720 0
DWIDTH 22 0
BBX 18 28 2 0
BITMAP
03CE00
07FC00
07FC00
0E7800
000000
000000
E001C0
E001C0
E001C0
E001C0
E001C0
E001C0
E001C0
E001C0
E001C0
E001C0
E001C0
E001C0
E001C0
E001C0
E001C0
7001C0
700380
780380
3C0F80
3FFF00
1FFE00
07F800
ENDCHAR
STARTCHAR 0169
ENCODING 361
SWIDTH 556 0
DWIDTH 17 0
BBX 13 22 2 0
BITMAP
1E30
3FF0
3FE0
31C0
0000
0000
E038
E038
E038
E038
E038
E038
E038
E038
E038
E038
E038
E078
F0F8
7FD8
7F98
1F18
ENDCHAR
STARTCHAR 016A
ENCODING 362
SWIDTH 720 0
DWIDTH 22 0
BBX 18 27 2 0
BITMAP
07FC00
07FC00
07FC00
000000
000000
E001C0
E001C0
E001C0
E001C0
E001C0
E001C0
E001C0
E001C0
E001C0
E001C0
E001C0
E001C0
E001C0
E001C0
E001C0
7001C0
700380
780380
3C0F80
3FFF00
1FFE00
07F800
ENDCHAR
STARTCHAR 016B
ENCODING 363
SWIDTH 556 0
DWIDTH 17 0
BBX 13 21 2 0
BITMAP
3FE0
3FE0
3FE0
0000
0000
E038
E038
E038
E038
E038
E038
E038
E038
E038
E038
E038
E078
F0F8
7FD8
7F98
1F18
ENDCHAR
STARTCHAR 016C
ENCODING 364
SWIDTH 720 0
DWIDTH 22 0
BBX 18 28 2 0
BITMAP
060C00
061800
03F800
01E000
000000
000000
E001C0
E001C0
E001C0
E001C0
E001C0
E001C0
E001C0
E001C0
E001C0
E001C0
E001C0
E001C0
E001C0
E001C0
E001C0
7001C0
700380
780380
3C0F80
3FFF00
1FFE00
07F800
ENDCHAR
STARTCHAR 016D
ENCODING 365
SWIDTH 556 0
DWIDTH 17 0
BBX 13 22 2 0
BITMAP
3060
1860
1FC0
0F80
0000
0000
E038
E038
E038
E038
E038
E038
E038
E038
E038
E038
E038
E078
F0F8
7FD8
7F98
1F18
ENDCHAR
STARTCHAR 016E
ENCODING 366
SWIDTH 720 0
DWIDTH 22 0
BBX 18 28 2 0
BITMAP
00E000
013000
031000
013000
01E000
000000
E001C0
E001C0
E001C0
E001C0
E001C0
E001C0
E001C0
E001C0
E001C0
E001C0
E001C0
E001C0
E001C0
E001C0
E001C0
7001C0
700380
780380
3C0F80
3FFF00
1FFE00
07F800
ENDCHAR
STARTCHAR 016F
ENCODING 367
SWIDTH 556 0
DWIDTH 17 0
BBX 13 23 2 0
BITMAP
0700
0880
0880
0880
0700
0000
0000
E038
E038
E038
E038
E038
E038
E038
E038
E038
E038
E038
E078
F0F8
7FD8
7F98
1F18
ENDCHAR
STARTCHAR 0170
ENCODING 368
SWIDTH 720 0
DWIDTH 22 0
BBX 18 28 2 0
BITMAP
01CE00
039E00
031C00
071800
000000
000000
E001C0
E001C0
E001C0
E001C0
E001C0
E001C0
E001C0
E001C0
E001C0
E001C0
E001C0
E001C0
E001C0
E001C0
E001C0
7001C0
700380
780380
3C0F80
3FFF00
1FFE00
07F800
ENDCHAR
STARTCHAR 0171
ENCODING 369
SWIDTH 556 0
DWIDTH 17 0
BBX 13 22 2 0
BITMAP
1E70
1CE0
38C0
31C0
0000
0000
E038
E038
E038
E038
E038
E038
E038
E038
E038
E038
E038
E078
F0F8
7FD8
7F98
1F18
ENDCHAR
STARTCHAR 0172
ENCODING 370
SWIDTH 720 0
DWIDTH 22 0
BBX 18 28 2 -6
BITMAP
E001C0
E001C0
E001C0
E001C0
E001C0
E001C0
E001C0
E001C0
E001C0
E001C0
E001C0
E001C0
E001C0
E001C0
6001C0
7001C0
700380
780380
3C0F80
3FFF00
1FFE00
07F800
00C000
00C000
00C000
00C400
00FC00
007800
ENDCHAR
STARTCHAR 0173
ENCODING 371
SWIDTH 556 0
DWIDTH 17 0
BBX 17 22 2 -6
BITMAP
E03800
E03800
E03800
E03800
E03800
E03800
E03800
E03800
E03800
E03800
E03800
E07800
F0F800
7FF800
7FD800
1F1800
003000
003000
003000
003880
003F80
001F00
ENDCHAR
STARTCHAR 0174
ENCODING 372
SWIDTH 949 0
DWIDTH 29 0
BBX 28 28 1 0
BITMAP
000E0000
001F0000
003B8000
0071C000
00000000
00000000
E00F0070
E01F0070
E01F00E0
E01B00E0
601B80E0
703B80C0
703981C0
7031C1C0
3071C1C0
3870C180
3860C380
3860E380
18E0E300
1CE06300
1CC07700
0CC07700
0DC07600
0DC03600
0F803E00
07803E00
07801C00
07001C00
ENDCHAR
STARTCHAR 0175
ENCODING 373
SWIDTH 720 0
DWIDTH 22 0
BBX 22 22 0 0
BITMAP
007800
007C00
00EE00
01C700
000000
000000
E0381C
60781C
707818
707C38
707C38
30EC30
38CC30
38CE70
19CE60
1DC660
1D86E0
0D87E0
0F87C0
0F83C0
0703C0
070380
ENDCHAR
STARTCHAR 0176
ENCODING 374
SWIDTH 687 0
DWIDTH 21 0
BBX 20 28 0 0
BITMAP
007800
00F800
01DC00
038E00
000000
000000
F00070
7800E0
3801E0
3C01C0
1E0380
0E0780
0F0700
078E00
039E00
03DC00
01F800
00F000
007000
007000
007000
007000
007000
007000
007000
007000
007000
007000
ENDCHAR
STARTCHAR 0177
ENCODING 375
SWIDTH 523 0
DWIDTH 16 0
BBX 14 28 1 -6
BITMAP
0780
07C0
0EE0
1C70
0000
0000
E01C
E01C
E018
7038
7038
3870
3870
3860
1CE0
1CE0
0CC0
0FC0
0FC0
0780
0780
0300
0700
0700
0E00
7E00
7C00
7800
ENDCHAR
STARTCHAR 0178
ENCODING 376
SWIDTH 687 0
DWIDTH 21 0
BBX 20 27 0 0
BITMAP
038E00
038E00
038E00
000000
000000
F00070
7800E0
3801E0
3C01C0
1E0380
0E0780
0F0700
078E00
039E00
03DC00
01F800
00F000
007000
007000
007000
007000
007000
007000
007000
007000
007000
007000
ENDCHAR
STARTCHAR 0179
ENCODING 377
SWIDTH 621 0
DWIDTH 19 0
BBX 17 28 1 0
BITMAP
00E000
01E000
01C000
038000
000000
000000
7FFF80
7FFF80
7FFF80
000700
000F00
001E00
003C00
007800
00F000
01E000
01C000
03C000
078000
0F0000
1E0000
3C0000
380000
780000
F00000
FFFF80
FFFF80
FFFF80
ENDCHAR
STARTCHAR 017A
ENCODING 378
SWIDTH 523 0
DWIDTH 16 0
BBX 14 22 1 0
BITMAP
01C0
0380
0300
0700
0000
0000
FFF8
FFF8
FFF8
0070
00E0
01E0
03C0
0780
0F00
1E00
3C00
7800
F000
FFFC
FFFC
FFFC
ENDCHAR
STARTCHAR 017B
ENCODING 379
SWIDTH 621 0
DWIDTH 19 0
BBX 17 27 1 0
BITMAP
01C000
01C000
01C000
000000
000000
7FFF80
7FFF80
7FFF80
000700
000F00
001E00
003C00
007800
00F000
01E000
01C000
03C000
078000
0F0000
1E0000
3C0000
380000
780000
F00000
FFFF80
FFFF80
FFFF80
ENDCHAR
STARTCHAR 017C
ENCODING 380
SWIDTH 523 0
DWIDTH 16 0
BBX 14 21 1 0
BITMAP
0700
0700
0700
0000
0000
FFF8
FFF8
FFF8
0070
00E0
01E0
03C0
0780
0F00
1E00
3C00
7800
F000
FFFC
FFFC
FFFC
ENDCHAR
STARTCHAR 017D
ENCODING 381
SWIDTH 621 0
DWIDTH 19 0
BBX 17 28 1 0
BITMAP
0E3800
077000
03E000
01C000
000000
000000
7FFF80
7FFF80
7FFF80
000700
000F00
001E00
003C00
007800
00F000
01E000
01C000
03C000
078000
0F0000
1E0000
3C0000
380000
780000
F00000
FFFF80
FFFF80
FFFF80
ENDCHAR
STARTCHAR 017E
ENCODING 382
SWIDTH 523 0
DWIDTH 16 0
BBX 14 22 1 0
BITMAP
1CF0
0EE0
0FC0
0780
0000
0000
FFF8
FFF8
FFF8
0070
00E0
01E0
03C0
0780
0F00
1E00
3C00
7800
F000
FFFC
FFFC
FFFC
ENDCHAR
STARTCHAR 017F
ENCODING 383
SWIDTH 229 0
DWIDTH 7 0
BBX 7 22 2 0
BITMAP
3E
7E
FE
E0
E0
E0
E0
E0
E0
E0
E0
E0
E0
E0
E0
E0
E0
E0
E0
E0
E0
E0
ENDCHAR
STARTCHAR 018F
ENCODING 399
SWIDTH 752 0
DWIDTH 23 0
BBX 21 22 1 0
BITMAP
01FC00
07FF00
0FFFC0
1F03E0
3C00E0
380070
180070
000078
000038
FFFFF8
FFFFF8
7FFFF8
700038
700038
700078
700070
3800F0
3C01E0
1F03E0
0FFFC0
07FF80
01FC00
ENDCHAR
STARTCHAR 0192
ENCODING 402
SWIDTH 556 0
DWIDTH 17 0
BBX 15 28 1 -6
BITMAP
003E
007E
00FE
00E0
00E0
00C0
0FF8
0FF8
0FF8
01C0
01C0
0180
0380
0380
0380
0380
0300
0300
0700
0700
0700
0600
0600
0E00
0E00
FE00
FC00
F800
ENDCHAR
STARTCHAR 01A0
ENCODING 416
SWIDTH 883 0
DWIDTH 27 0
BBX 25 22 1 0
BITMAP
00FE0380
07FF8380
0FFFC380
1F03E180
3C00F180
38007100
78003E00
70003C00
70003800
70001C00
F0001C00
F0001C00
70001C00
70003C00
70003800
78003800
38007800
3C00F000
1F03E000
0FFFC000
07FF8000
00FC0000
ENDCHAR
STARTCHAR 01A1
ENCODING 417
SWIDTH 654 0
DWIDTH 20 0
BBX 18 16 1 0
BITMAP
07E1C0
1FF1C0
3FF9C0
783C40
701E40
E00E80
E00F00
E00E00
E00E00
E00E00
E00E00
701C00
783C00
3FF800
1FF000
07C000
ENDCHAR
STARTCHAR 01AF
ENCODING 431
SWIDTH 850 0
DWIDTH 26 0
BBX 23 22 2 0
BITMAP
E001CE
E001CE
E001CE
E001C2
E001C2
E001C6
E001CC
E001F0
E001C0
E001C0
E001C0
E001C0
E001C0
E001C0
E001C0
7001C0
700380
780380
3C0F80
3FFF00
1FFE00
07F800
ENDCHAR
STARTCHAR 01B0
ENCODING 432
SWIDTH 687 0
DWIDTH 21 0
BBX 18 16 2 0
BITMAP
E039C0
E039C0
E039C0
E038C0
E038C0
E03880
E03B00
E03E00
E03800
E03800
E03800
E07800
F0F800
7FD800
7F9800
1F1800
ENDCHAR
STARTCHAR 01CD
ENCODING 461
SWIDTH 687 0
DWIDTH 21 0
BBX 21 28 0 0
BITMAP
039C00
01DC00
01F800
00F000
000000
000000
00F000
00F000
01F800
01F800
019800
039C00
039C00
030E00
070E00
060700
0E0700
0E0300
0FFF80
1FFF80
1FFFC0
3801C0
3801C0
3800E0
7000E0
7000F0
700070
E00078
ENDCHAR
STARTCHAR 01CE
ENCODING 462
SWIDTH 556 0
DWIDTH 17 0
BBX 15 22 1 0
BITMAP
0E70
0770
07E0
03C0
0000
0000
0FE0
3FF8
3FFC
703C
601C
001C
007C
1FFC
3F9C
701C
E01C
E03C
F07C
7FFC
7FEC
1F8E
ENDCHAR
STARTCHAR 01CF
ENCODING 463
SWIDTH 294 0
DWIDTH 9 0
BBX 9 28 0 0
BITMAP
E380
7700
3E00
3C00
0000
0000
1C00
1C00
1C00
1C00
1C00
1C00
1C00
1C00
1C00
1C00
1C00
1C00
1C00
1C00
1C00
1C00
1C00
1C00
1C00
1C00
1C00
1C00
ENDCHAR
STARTCHAR 01D0
ENCODING 464
SWIDTH 229 0
DWIDTH 7 0
BBX 9 22 -1 0
BITMAP
E380
7700
3E00
1C00
0000
0000
1C00
1C00
1C00
1C00
1C00
1C00
1C00
1C00
1C00
1C00
1C00
1C00
1C00
1C00
1C00
1C00
ENDCHAR
STARTCHAR 01D1
ENCODING 465
SWIDTH 785 0
DWIDTH 24 0
BBX 22 28 1 0
BITMAP
01CF00
00EE00
00FC00
007800
000000
000000
00FE00
07FF80
0FFFC0
1F03E0
3C00F0
380070
780038
700038
700038
70001C
F0001C
F0001C
70001C
700038
700038
780038
380078
3C00F0
1F03E0
0FFFC0
07FF80
00FC00
ENDCHAR
STARTCHAR 01D2
ENCODING 466
SWIDTH 556 0
DWIDTH 17 0
BBX 15 22 1 0
BITMAP
1C70
0EE0
07C0
0380
0000
0000
07E0
1FF0
3FF8
783C
701E
E00E
E00E
E00E
E00E
E00E
E00E
701E
783C
3FF8
1FF0
07C0
ENDCHAR
STARTCHAR 01D3
ENCODING 467
SWIDTH 720 0
DWIDTH 22 0
BBX 18 28 2 0
BITMAP
071C00
03B800
01F000
00E000
000000
000000
E001C0
E001C0
E001C0
E001C0
E001C0
E001C0
E001C0
E001C0
E001C0
E001C0
E001C0
E001C0
E001C0
E001C0
E001C0
7001C0
700380
780380
3C0F80
3FFF00
1FFE00
07F800
ENDCHAR
STARTCHAR 01D4
ENCODING 468
SWIDTH 556 0
DWIDTH 17 0
BBX 13 22 2 0
BITMAP
38E0
1DC0
0F80
0780
0000
0000
E038
E038
E038
E038
E038
E038
E038
E038
E038
E038
E038
E078
F0F8
7FD8
7F98
1F18
ENDCHAR
STARTCHAR 01D5
ENCODING 469
SWIDTH 720 0
DWIDTH 22 0
BBX 18 28 2 0
BITMAP
07F800
07F800
000000
071800
071800
000000
E001C0
E001C0
E001C0
E001C0
E001C0
E001C0
E001C0
E001C0
E001C0
E001C0
E001C0
E001C0
E001C0
E001C0
E001C0
7001C0
700380
780380
3C0F80
3FFF00
1FFE00
07F800
ENDCHAR
STARTCHAR 01D6
ENCODING 470
SWIDTH 556 0
DWIDTH 17 0
BBX 13 28 2 0
BITMAP
3FE0
3FE0
3FE0
0000
0000
0000
0000
38E0
38E0
38E0
0000
0000
E038
E038
E038
E038
E038
E038
E038
E038
E038
E038
E038
E078
F0F8
7FD8
7F98
1F18
ENDCHAR
STARTCHAR 01D7
ENCODING 471
SWIDTH 720 0
DWIDTH 22 0
BBX 18 28 2 0
BITMAP
007800
006000
00C000
071800
071800
000000
E001C0
E001C0
E001C0
E001C0
E001C0
E001C0
E001C0
E001C0
E001C0
E001C0
E001C0
E001C0
E001C0
E001C0
E001C0
7001C0
700380
780380
3C0F80
3FFF00
1FFE00
07F800
ENDCHAR
STARTCHAR 01D8
ENCODING 472
SWIDTH 556 0
DWIDTH 17 0
BBX 13 28 2 0
BITMAP
01C0
0380
0300
0700
0000
0000
0000
38E0
38E0
38E0
0000
0000
E038
E038
E038
E038
E038
E038
E038
E038
E038
E038
E038
E078
F0F8
7FD8
7F98
1F18
ENDCHAR
STARTCHAR 01D9
ENCODING 473
SWIDTH 720 0
DWIDTH 22 0
BBX 18 28 2 0
BITMAP
03B000
01F000
00E000
071800
071800
000000
E001C0
E001C0
E001C0
E001C0
E001C0
E001C0
E001C0
E001C0
E001C0
E001C0
E001C0
E001C0
E001C0
E001C0
E001C0
7001C0
700380
780380
3C0F80
3FFF00
1FFE00
07F800
ENDCHAR
STARTCHAR 01DA
ENCODING 474
SWIDTH 556 0
DWIDTH 17 0
BBX 13 28 2 0
BITMAP
38E0
1DC0
0F80
0780
0000
0000
0000
38E0
38E0
38E0
0000
0000
E038
E038
E038
E038
E038
E038
E038
E038
E038
E038
E038
E078
F0F8
7FD8
7F98
1F18
ENDCHAR
STARTCHAR 01DB
ENCODING 475
SWIDTH 720 0
DWIDTH 22 0
BBX 18 28 2 0
BITMAP
038000
01C000
00E000
071800
071800
000000
E001C0
E001C0
E001C0
E001C0
E001C0
E001C0
E001C0
E001C0
E001C0
E001C0
E001C0
E001C0
E001C0
E001C0
E001C0
7001C0
700380
780380
3C0F80
3FFF00
1FFE00
07F800
ENDCHAR
STARTCHAR 01DC
ENCODING 476
SWIDTH 556 0
DWIDTH 17 0
BBX 13 28 2 0
BITMAP
1C00
0E00
0600
0300
0000
0000
0000
38E0
38E0
38E0
0000
0000
E038
E038
E038
E038
E038
E038
E038
E038
E038
E038
E038
E078
F0F8
7FD8
7F98
1F18
ENDCHAR
STARTCHAR 01FA
ENCODING 506
SWIDTH 687 0
DWIDTH 21 0
BBX 21 30 0 0
BITMAP
003C00
003800
007000
006000
00F000
019800
010800
019800
00F000
00F000
01F800
01F800
019800
039C00
039C00
030E00
070E00
060700
0E0700
0E0300
0FFF80
1FFF80
1FFFC0
3801C0
3801C0
3800E0
7000E0
7000F0
700070
E00078
ENDCHAR
STARTCHAR 01FB
ENCODING 507
SWIDTH 556 0
DWIDTH 17 0
BBX 15 28 1 0
BITMAP
00F0
00E0
01C0
0180
0000
0380
0440
0440
0440
0380
0000
0000
0FE0
3FF8
3FFC
703C
601C
001C
007C
1FFC
3F9C
701C
E01C
E03C
F07C
7FFC
7FEC
1F8E
ENDCHAR
STARTCHAR 01FC
ENCODING 508
SWIDTH 1014 0
DWIDTH 31 0
BBX 29 28 0 0
BITMAP
0001E000
0001C000
00038000
00030000
00000000
00000000
003FFFF8
003FFFF8
007FFFF8
0071C000
00F1C000
00E1C000
00E1C000
01C1C000
01C1C000
0381FFF0
0381FFF0
0701FFF0
0701C000
0FFFC000
0FFFC000
1FFFC000
1C01C000
3801C000
3801C000
7001FFF8
7001FFF8
E001FFF8
ENDCHAR
STARTCHAR 01FD
ENCODING 509
SWIDTH 916 0
DWIDTH 28 0
BBX 25 22 1 0
BITMAP
00078000
00070000
000E0000
000C0000
00000000
00000000
0FE1F800
3FF3FE00
7FFFFF00
703F0700
601C0380
007C0380
0FFFFF80
3FFFFF80
7F9FFF80
F01C0000
E01C0000
E03C0380
F07F0780
7FF7FF00
7FC3FE00
1F01F800
ENDCHAR
STARTCHAR 01FE
ENCODING 510
SWIDTH 785 0
DWIDTH 24 0
BBX 22 29 1 -1
BITMAP
001C00
001C00
003800
003000
000000
000008
00FE1C
07FFB8
0FFFF0
1F03E0
3C00F0
3801F8
7003B8
700738
700E38
701C3C
E0381C
E0701C
F0E01C
71C038
738038
730038
3E0070
3C00F0
1F03E0
3FFFC0
77FF80
E1FC00
400000
ENDCHAR
STARTCHAR 01FF
ENCODING 511
SWIDTH 621 0
DWIDTH 19 0
BBX 15 23 2 -1
BITMAP
00E0
01C0
01C0
0380
0000
0004
07CE
1FFC
3FFC
783C
F06E
E0EE
E1CE
E18E
E30E
E70E
EE0E
EC1C
783C
3FF8
7FF0
E7C0
4000
ENDCHAR
STARTCHAR 0259
ENCODING 601
SWIDTH 556 0
DWIDTH 17 0
BBX 15 16 1 0
BITMAP
07E0
1FF0
3FF8
783C
701E
E00E
000E
FFFE
FFFE
FFFE
600E
700C
783C
3FF8
1FF0
07E0
ENDCHAR
STARTCHAR 02C6
ENCODING 710
SWIDTH 327 0
DWIDTH 10 0
BBX 9 4 1 18
BITMAP
3C00
7E00
7700
E780
ENDCHAR
STARTCHAR 02C7
ENCODING 711
SWIDTH 327 0
DWIDTH 10 0
BBX 9 4 1 18
BITMAP
E380
7700
3E00
3C00
ENDCHAR
STARTCHAR 02C9
ENCODING 713
SWIDTH 327 0
DWIDTH 10 0
BBX 10 3 0 19
BITMAP
FFC0
FFC0
FFC0
ENDCHAR
STARTCHAR 02D8
ENCODING 728
SWIDTH 327 0
DWIDTH 10 0
BBX 9 4 1 18
BITMAP
C180
C300
7F00
3C00
ENDCHAR
STARTCHAR 02D9
ENCODING 729
SWIDTH 327 0
DWIDTH 10 0
BBX 4 3 3 18
BITMAP
F0
F0
F0
ENDCHAR
STARTCHAR 02DA
ENCODING 730
SWIDTH 327 0
DWIDTH 10 0
BBX 6 5 2 17
BITMAP
38
4C
C4
4C
38
ENDCHAR
STARTCHAR 02DB
ENCODING 731
SWIDTH 327 0
DWIDTH 10 0
BBX 6 6 3 -6
BITMAP
C0
C0
C0
C0
FC
78
ENDCHAR
STARTCHAR 02DC
ENCODING 732
SWIDTH 327 0
DWIDTH 10 0
BBX 10 4 0 18
BITMAP
38C0
7FC0
FFC0
C780
ENDCHAR
STARTCHAR 02DD
ENCODING 733
SWIDTH 327 0
DWIDTH 10 0
BBX 10 4 1 18
BITMAP
79C0
7380
6380
C700
ENDCHAR
STARTCHAR 0300
ENCODING 768
SWIDTH 0 0
DWIDTH 0 0
BBX 5 4 -8 24
BITMAP
F0
70
38
18
ENDCHAR
STARTCHAR 0301
ENCODING 769
SWIDTH 0 0
DWIDTH 0 0
BBX 6 4 -6 24
BITMAP
3C
38
70
E0
ENDCHAR
STARTCHAR 0303
ENCODING 771
SWIDTH 0 0
DWIDTH 0 0
BBX 10 3 -14 24
BITMAP
78C0
7FC0
C780
ENDCHAR
STARTCHAR 0309
ENCODING 777
SWIDTH 0 0
DWIDTH 0 0
BBX 6 5 -7 23
BITMAP
F8
0C
0C
38
30
ENDCHAR
STARTCHAR 0323
ENCODING 803
SWIDTH 0 0
DWIDTH 0 0
BBX 3 3 -12 -5
BITMAP
E0
E0
E0
ENDCHAR
STARTCHAR 037E
ENCODING 894
SWIDTH 294 0
DWIDTH 9 0
BBX 3 20 3 -4
BITMAP
E0
E0
E0
00
00
00
00
00
00
00
00
00
00
E0
E0
E0
60
60
C0
80
ENDCHAR
STARTCHAR 0384
ENCODING 900
SWIDTH 327 0
DWIDTH 10 0
BBX 5 4 4 18
BITMAP
78
70
E0
C0
ENDCHAR
STARTCHAR 0385
ENCODING 901
SWIDTH 327 0
DWIDTH 10 0
BBX 11 4 0 18
BITMAP
0700
CEE0
CCE0
C8E0
ENDCHAR
STARTCHAR 0386
ENCODING 902
SWIDTH 687 0
DWIDTH 21 0
BBX 21 22 0 0
BITMAP
1CF000
38F000
30F800
71F800
01DC00
039C00
039C00
030E00
070E00
060700
0E0700
0E0300
0FFF80
1FFF80
1FFFC0
3801C0
3801C0
3800E0
7000E0
7000F0
700070
E00078
ENDCHAR
STARTCHAR 0387
ENCODING 903
SWIDTH 294 0
DWIDTH 9 0
BBX 3 3 3 13
BITMAP
E0
E0
E0
ENDCHAR
STARTCHAR 0388
ENCODING 904
SWIDTH 785 0
DWIDTH 24 0
BBX 24 22 -1 0
BITMAP
79FFFE
71FFFE
E1FFFE
C1C000
01C000
01C000
01C000
01C000
01C000
01FFFC
01FFFC
01FFFC
01C000
01C000
01C000
01C000
01C000
01C000
01C000
01FFFF
01FFFF
01FFFF
ENDCHAR
STARTCHAR 0389
ENCODING 905
SWIDTH 850 0
DWIDTH 26 0
BBX 24 22 -1 0
BITMAP
7B8007
738007
E38007
C38007
038007
038007
038007
038007
038007
03FFFF
03FFFF
03FFFF
038007
038007
038007
038007
038007
038007
038007
038007
038007
038007
ENDCHAR
STARTCHAR 038A
ENCODING 906
SWIDTH 392 0
DWIDTH 12 0
BBX 9 22 -1 0
BITMAP
7B80
7380
E380
C380
0380
0380
0380
0380
0380
0380
0380
0380
0380
0380
0380
0380
0380
0380
0380
0380
0380
0380
ENDCHAR
STARTCHAR 038C
ENCODING 908
SWIDTH 785 0
DWIDTH 24 0
BBX 24 22 -1 0
BITMAP
787F00
71FFE0
E3FFF0
C7C0F8
0F003C
0E001C
1C001E
1C000E
1C000E
38000E
380007
38000F
38000E
1C000E
1C000E
1C001E
0E001C
0F003C
07C0F8
03FFF0
01FFE0
007F00
ENDCHAR
STARTCHAR 038E
ENCODING 910
SWIDTH 883 0
DWIDTH 27 0
BBX 27 22 -1 0
BITMAP
79E001E0
70E001C0
E0F00380
C0780780
00380700
003C0E00
001E1E00
000E1C00
000F3800
0007F800
0003F000
0003E000
0001E000
0001C000
0001C000
0001C000
0001C000
0001C000
0001C000
0001C000
0001C000
0001C000
ENDCHAR
STARTCHAR 038F
ENCODING 911
SWIDTH 752 0
DWIDTH 23 0
BBX 23 22 -1 0
BITMAP
787F00
71FFC0
E3FFF0
C7C1F8
0F0078
0F003C
1E001C
1C001C
1C001E
1C000E
1C000E
1C000E
1C001C
1C001C
0E001C
0E0038
070030
038070
01C1E0
1FE3FE
1FE3FE
1FE3FE
ENDCHAR
STARTCHAR 0390
ENCODING 912
SWIDTH 229 0
DWIDTH 7 0
BBX 11 23 -2 0
BITMAP
0700
E6E0
ECE0
ECE0
0000
0000
0000
0E00
0E00
0E00
0E00
0E00
0E00
0E00
0E00
0E00
0E00
0E00
0E00
0E00
0E00
0E00
0E00
ENDCHAR
STARTCHAR 0391
ENCODING 913
SWIDTH 687 0
DWIDTH 21 0
BBX 21 22 0 0
BITMAP
00F000
00F000
01F800
01F800
019800
039C00
039C00
030E00
070E00
060700
0E0700
0E0300
0FFF80
1FFF80
1FFFC0
3801C0
3801C0
3800E0
7000E0
7000F0
700070
E00078
ENDCHAR
STARTCHAR 0392
ENCODING 914
SWIDTH 687 0
DWIDTH 21 0
BBX 17 22 2 0
BITMAP
FFF000
FFFC00
FFFE00
E01F00
E00700
E00700
E00700
E00600
E01E00
FFFC00
FFFC00
FFFE00
E00F00
E00780
E00380
E00380
E00380
E00780
E00F00
FFFF00
FFFE00
FFF800
ENDCHAR
STARTCHAR 0393
ENCODING 915
SWIDTH 556 0
DWIDTH 17 0
BBX 14 22 2 0
BITMAP
FFFC
FFFC
FFFC
E000
E000
E000
E000
E000
E000
E000
E000
E000
E000
E000
E000
E000
E000
E000
E000
E000
E000
E000
ENDCHAR
STARTCHAR 0394
ENCODING 916
SWIDTH 687 0
DWIDTH 21 0
BBX 21 22 0 0
BITMAP
00F000
00F000
01F800
01F800
01FC00
039C00
039C00
030E00
070E00
070700
0E0700
0E0700
0E0380
1C0380
1C01C0
3801C0
3801C0
3800E0
7000E0
7FFFF0
7FFFF0
FFFFF8
ENDCHAR
STARTCHAR 0395
ENCODING 917
SWIDTH 687 0
DWIDTH 21 0
BBX 17 22 2 0
BITMAP
FFFF80
FFFF80
FFFF80
E00000
E00000
E00000
E00000
E00000
E00000
FFFF00
FFFF00
FFFF00
E00000
E00000
E00000
E00000
E00000
E00000
E00000
FFFF80
FFFF80
FFFF80
ENDCHAR
STARTCHAR 0396
ENCODING 918
SWIDTH 621 0
DWIDTH 19 0
BBX 17 22 1 0
BITMAP
7FFF80
7FFF80
7FFF80
000700
000F00
001E00
003C00
007800
00F000
01E000
01C000
03C000
078000
0F0000
1E0000
3C0000
380000
780000
F00000
FFFF80
FFFF80
FFFF80
ENDCHAR
STARTCHAR 0397
ENCODING 919
SWIDTH 720 0
DWIDTH 22 0
BBX 18 22 2 0
BITMAP
E001C0
E001C0
E001C0
E001C0
E001C0
E001C0
E001C0
E001C0
E001C0
FFFFC0
FFFFC0
FFFFC0
E001C0
E001C0
E001C0
E001C0
E001C0
E001C0
E001C0
E001C0
E001C0
E001C0
ENDCHAR
STARTCHAR 0398
ENCODING 920
SWIDTH 785 0
DWIDTH 24 0
BBX 22 22 1 0
BITMAP
00FE00
07FF80
0FFFC0
1F03E0
3C00F0
380070
700038
700038
700038
71FE1C
F1FE1C
E1FE1C
70001C
700038
700038
780038
380070
3C00F0
1F03E0
0FFFC0
07FF80
00FC00
ENDCHAR
STARTCHAR 0399
ENCODING 921
SWIDTH 294 0
DWIDTH 9 0
BBX 3 22 3 0
BITMAP
E0
E0
E0
E0
E0
E0
E0
E0
E0
E0
E0
E0
E0
E0
E0
E0
E0
E0
E0
E0
E0
E0
ENDCHAR
STARTCHAR 039A
ENCODING 922
SWIDTH 687 0
DWIDTH 21 0
BBX 18 22 2 0
BITMAP
E003C0
E00780
E00F00
E03C00
E07800
E0F000
E1E000
E3C000
E78000
EF8000
FFC000
FDE000
F8F000
F07000
E07800
E03C00
E01E00
E00E00
E00F00
E00780
E003C0
E003C0
ENDCHAR
STARTCHAR 039B
ENCODING 923
SWIDTH 687 0
DWIDTH 21 0
BBX 20 22 0 0
BITMAP
007000
00F000
00F800
01F800
01DC00
019C00
038C00
038E00
070E00
070700
060700
0E0700
0E0380
0C0380
1C01C0
1C01C0
3801C0
3800E0
3000E0
7000F0
700070
E00070
ENDCHAR
STARTCHAR 039C
ENCODING 924
SWIDTH 850 0
DWIDTH 26 0
BBX 21 22 2 0
BITMAP
F80078
F80078
FC0078
FC00D8
EC00D8
EE00D8
EE0198
E60198
E70198
E70318
E30318
E38318
E38618
E18618
E1C618
E1CC18
E0CC18
E0EC18
E0F818
E07818
E07818
E07018
ENDCHAR
STARTCHAR 039D
ENCODING 925
SWIDTH 720 0
DWIDTH 22 0
BBX 18 22 2 0
BITMAP
F001C0
F001C0
F801C0
FC01C0
FC01C0
EE01C0
E701C0
E701C0
E381C0
E1C1C0
E1C1C0
E0E1C0
E071C0
E071C0
E039C0
E01DC0
E01DC0
E00FC0
E007C0
E007C0
E003C0
E003C0
ENDCHAR
STARTCHAR 039E
ENCODING 926
SWIDTH 654 0
DWIDTH 20 0
BBX 17 22 2 0
BITMAP
FFFF00
FFFF00
FFFF00
000000
000000
000000
000000
000000
000000
7FFE00
7FFE00
7FFE00
000000
000000
000000
000000
000000
000000
000000
FFFF80
FFFF80
FFFF80
ENDCHAR
STARTCHAR 039F
ENCODING 927
SWIDTH 785 0
DWIDTH 24 0
BBX 22 22 1 0
BITMAP
00FE00
07FF80
0FFFC0
1F03E0
3C00F0
380070
780038
700038
700038
70001C
F0001C
F0001C
70001C
700038
700038
780038
380078
3C00F0
1F03E0
0FFFC0
07FF80
00FC00
ENDCHAR
STARTCHAR 03A0
ENCODING 928
SWIDTH 720 0
DWIDTH 22 0
BBX 18 22 2 0
BITMAP
FFFFC0
FFFFC0
FFFFC0
E001C0
E001C0
E001C0
E001C0
E001C0
E001C0
E001C0
E001C0
E001C0
E001C0
E001C0
E001C0
E001C0
E001C0
E001C0
E001C0
E001C0
E001C0
E001C0
ENDCHAR
STARTCHAR 03A1
ENCODING 929
SWIDTH 687 0
DWIDTH 21 0
BBX 17 22 2 0
BITMAP
FFF800
FFFE00
FFFF00
E00780
E00380
E00380
E00380
E00380
E00380
E00F80
FFFF00
FFFE00
FFF800
E00000
E00000
E00000
E00000
E00000
E00000
E00000
E00000
E00000
ENDCHAR
STARTCHAR 03A3
ENCODING 931
SWIDTH 621 0
DWIDTH 19 0
BBX 16 22 2 0
BITMAP
FFFE
FFFE
FFFE
F000
7800
3C00
1E00
0F00
0780
03C0
01E0
01C0
0380
0700
0E00
1E00
3C00
7800
F000
FFFF
FFFF
FFFF
ENDCHAR
STARTCHAR 03A4
ENCODING 932
SWIDTH 621 0
DWIDTH 19 0
BBX 17 22 1 0
BITMAP
FFFF80
FFFF80
FFFF80
01C000
01C000
01C000
01C000
01C000
01C000
01C000
01C000
01C000
01C000
01C000
01C000
01C000
01C000
01C000
01C000
01C000
01C000
01C000
ENDCHAR
STARTCHAR 03A5
ENCODING 933
SWIDTH 687 0
DWIDTH 21 0
BBX 20 22 0 0
BITMAP
F00070
7800E0
3801E0
3C01C0
1E0380
0E0780
0F0700
078E00
039E00
03DC00
01F800
00F000
007000
007000
007000
007000
007000
007000
007000
007000
007000
007000
ENDCHAR
STARTCHAR 03A6
ENCODING 934
SWIDTH 818 0
DWIDTH 25 0
BBX 22 22 1 0
BITMAP
003800
003800
003800
01FF00
0FFFE0
1FFFF0
3E38F8
78383C
70381C
F0381C
E0381C
E0381C
F0381C
70381C
78383C
3E38F8
1FFFF0
0FFFE0
01FF00
003800
003800
003800
ENDCHAR
STARTCHAR 03A7
ENCODING 935
SWIDTH 687 0
DWIDTH 21 0
BBX 19 22 1 0
BITMAP
7001E0
7801C0
380380
1C0700
1E0F00
0F1E00
071C00
03B800
03F800
01F000
00E000
01F000
03F800
03B800
071C00
0E1E00
1E0F00
1C0700
380780
7003C0
F001C0
E001E0
ENDCHAR
STARTCHAR 03A8
ENCODING 936
SWIDTH 850 0
DWIDTH 26 0
BBX 22 22 2 0
BITMAP
E0701C
E0701C
E0701C
E0701C
E0701C
E0701C
E0701C
E0701C
E0701C
F0703C
787078
7E71F8
3FFFF0
1FFFE0
03FF00
007000
007000
007000
007000
007000
007000
007000
ENDCHAR
STARTCHAR 03A9
ENCODING 937
SWIDTH 752 0
DWIDTH 23 0
BBX 21 22 1 0
BITMAP
01FC00
07FF00
0FFF80
1F07C0
3C01E0
3800F0
7800F0
700070
700070
700070
700070
700070
700070
700070
300070
3800E0
1C00C0
0E0180
070700
FF8FF8
FF8FF8
FF8FF8
ENDCHAR
STARTCHAR 03AA
ENCODING 938
SWIDTH 294 0
DWIDTH 9 0
BBX 9 27 0 0
BITMAP
E380
E380
E380
0000
0000
1C00
1C00
1C00
1C00
1C00
1C00
1C00
1C00
1C00
1C00
1C00
1C00
1C00
1C00
1C00
1C00
1C00
1C00
1C00
1C00
1C00
1C00
ENDCHAR
STARTCHAR 03AB
ENCODING 939
SWIDTH 687 0
DWIDTH 21 0
BBX 20 27 0 0
BITMAP
038E00
038E00
038E00
000000
000000
F00070
7800E0
3801E0
3C01C0
1E0380
0E0780
0F0700
078E00
039E00
03DC00
01F800
00F000
007000
007000
007000
007000
007000
007000
007000
007000
007000
007000
ENDCHAR
STARTCHAR 03AC
ENCODING 940
SWIDTH 589 0
DWIDTH 18 0
BBX 16 22 1 0
BITMAP
00E0
01C0
01C0
0380
0000
0000
0F87
1FE6
3FFE
787E
701E
F01C
E01C
E00C
E00C
E01C
F01C
703C
787E
3FFE
1FEE
0FC7
ENDCHAR
STARTCHAR 03AD
ENCODING 941
SWIDTH 458 0
DWIDTH 14 0
BBX 12 22 1 0
BITMAP
03C0
0380
0700
0600
0000
0000
0F80
3FE0
7FE0
70C0
7000
7000
3F00
1F00
3F00
7000
6000
E020
70F0
7FE0
3FC0
1F80
ENDCHAR
STARTCHAR 03AE
ENCODING 942
SWIDTH 556 0
DWIDTH 17 0
BBX 13 28 2 -6
BITMAP
01C0
0380
0380
0700
0000
0000
E7C0
FFF0
FFF8
F078
E038
E038
E038
E038
E038
E038
E038
E038
E038
E038
E038
E038
0038
0038
0038
0038
0038
0038
ENDCHAR
STARTCHAR 03AF
ENCODING 943
SWIDTH 229 0
DWIDTH 7 0
BBX 5 22 2 0
BITMAP
78
70
E0
C0
00
00
E0
E0
E0
E0
E0
E0
E0
E0
E0
E0
E0
E0
E0
E0
E0
E0
ENDCHAR
STARTCHAR 03B0
ENCODING 944
SWIDTH 556 0
DWIDTH 17 0
BBX 13 22 2 0
BITMAP
0380
7370
7770
7670
0000
0000
E038
E038
E038
E038
E038
E038
E038
E038
E038
E038
E038
E078
78F0
7FF0
3FE0
0F80
ENDCHAR
STARTCHAR 03B1
ENCODING 945
SWIDTH 589 0
DWIDTH 18 0
BBX 16 16 1 0
BITMAP
0F87
1FE6
3FFE
787E
701E
F01C
E01C
E00C
E00C
E01C
F01C
703C
787E
3FFE
1FEE
0FC7
ENDCHAR
STARTCHAR 03B2
ENCODING 946
SWIDTH 589 0
DWIDTH 18 0
BBX 14 28 2 -6
BITMAP
0FC0
3FE0
7FF0
7878
E038
E018
E038
E070
E7E0
E780
E7F0
E078
E03C
E01C
E00C
E00C
E01C
F01C
F83C
FFF8
EFF0
E3E0
E000
E000
E000
E000
E000
E000
ENDCHAR
STARTCHAR 03B3
ENCODING 947
SWIDTH 523 0
DWIDTH 16 0
BBX 14 22 1 -6
BITMAP
C01C
E01C
E038
7038
7030
7070
3870
3860
18E0
1CE0
1DC0
0DC0
0F80
0F80
0780
0700
0700
0700
0700
0700
0700
0700
ENDCHAR
STARTCHAR 03B4
ENCODING 948
SWIDTH 556 0
DWIDTH 17 0
BBX 15 22 1 0
BITMAP
3FFC
3FFC
3FFC
1C00
0F00
03C0
07E0
1FF0
3FF8
783C
701E
E00E
E00E
E00E
E00E
E00E
E00E
701E
783C
3FF8
1FF0
07E0
ENDCHAR
STARTCHAR 03B5
ENCODING 949
SWIDTH 458 0
DWIDTH 14 0
BBX 12 16 1 0
BITMAP
0F80
3FE0
7FE0
70C0
7000
7000
3F00
1F00
3F00
7000
6000
E020
70F0
7FE0
3FC0
1F80
ENDCHAR
STARTCHAR 03B6
ENCODING 950
SWIDTH 458 0
DWIDTH 14 0
BBX 12 28 1 -6
BITMAP
1FF0
1FF0
1FF0
00E0
01C0
0300
0600
0C00
1C00
3800
3000
7000
6000
E000
E000
E000
E000
E000
F000
7FC0
3FE0
1FF0
0070
0070
0070
01E0
01E0
0380
ENDCHAR
STARTCHAR 03B7
ENCODING 951
SWIDTH 556 0
DWIDTH 17 0
BBX 13 22 2 -6
BITMAP
E7C0
FFF0
FFF8
F078
E038
E038
E038
E038
E038
E038
E038
E038
E038
E038
E038
E038
0038
0038
0038
0038
0038
0038
ENDCHAR
STARTCHAR 03B8
ENCODING 952
SWIDTH 556 0
DWIDTH 17 0
BBX 15 22 1 0
BITMAP
07C0
1FF0
3FF8
3C38
701C
701C
700C
600E
E00E
FFFE
FFFE
FFFE
E00E
E00E
600E
700C
701C
781C
3C38
3FF8
1FF0
07C0
ENDCHAR
STARTCHAR 03B9
ENCODING 953
SWIDTH 229 0
DWIDTH 7 0
BBX 3 16 2 0
BITMAP
E0
E0
E0
E0
E0
E0
E0
E0
E0
E0
E0
E0
E0
E0
E0
E0
ENDCHAR
STARTCHAR 03BA
ENCODING 954
SWIDTH 523 0
DWIDTH 16 0
BBX 13 16 2 0
BITMAP
E070
E0E0
E1C0
E780
EF00
FE00
FC00
FC00
EE00
E700
E380
E3C0
E1E0
E0E0
E070
E038
ENDCHAR
STARTCHAR 03BB
ENCODING 955
SWIDTH 523 0
DWIDTH 16 0
BBX 14 22 1 0
BITMAP
1C00
0C00
0E00
0E00
0700
0700
0700
0780
0F80
0F80
0FC0
1DC0
1CE0
18E0
38E0
3870
7070
7030
7038
E038
E01C
C01C
ENDCHAR
STARTCHAR 03BC
ENCODING 956
SWIDTH 589 0
DWIDTH 18 0
BBX 13 22 2 -6
BITMAP
E018
E018
E018
E018
E018
E018
E018
E018
E018
E018
E038
F038
F878
FFF8
EFD8
E798
E000
E000
E000
E000
E000
E000
ENDCHAR
STARTCHAR 03BD
ENCODING 957
SWIDTH 523 0
DWIDTH 16 0
BBX 14 16 1 0
BITMAP
C01C
E01C
E038
7038
7030
7070
3870
3860
18E0
1CE0
1DC0
0DC0
0F80
0780
0780
0700
ENDCHAR
STARTCHAR 03BE
ENCODING 958
SWIDTH 458 0
DWIDTH 14 0
BBX 12 28 1 -6
BITMAP
07E0
1FE0
3FE0
7800
7000
7000
3800
3FE0
1FE0
07E0
1E00
3800
7000
7000
E000
E000
E000
7000
7800
7FC0
1FE0
07F0
0070
0030
0070
01F0
01E0
0380
ENDCHAR
STARTCHAR 03BF
ENCODING 959
SWIDTH 556 0
DWIDTH 17 0
BBX 15 16 1 0
BITMAP
07E0
1FF0
3FF8
783C
701E
E00E
E00E
E00E
E00E
E00E
E00E
701E
783C
3FF8
1FF0
07C0
ENDCHAR
STARTCHAR 03C0
ENCODING 960
SWIDTH 687 0
DWIDTH 21 0
BBX 20 16 1 0
BITMAP
FFFFF0
FFFFF0
FFFFF0
0E0700
0E0700
0E0700
0E0700
0E0700
0E0700
0E0700
0E0700
0E0700
0E0700
0E0700
0E0700
0E0700
ENDCHAR
STARTCHAR 03C1
ENCODING 961
SWIDTH 589 0
DWIDTH 18 0
BBX 15 22 2 -6
BITMAP
0FC0
3FF0
7FF8
7878
701C
E01C
E00C
E00E
E00E
E00C
E01C
F01C
F878
FFF8
EFF0
E7C0
E000
E000
E000
E000
E000
E000
ENDCHAR
STARTCHAR 03C2
ENCODING 962
SWIDTH 490 0
DWIDTH 15 0
BBX 13 22 1 -6
BITMAP
03F8
0FF8
1FF8
3E00
7800
7000
6000
E000
E000
E000
E000
7000
7C00
3FC0
1FF0
07F0
0078
0038
0078
07F0
07E0
07C0
ENDCHAR
STARTCHAR 03C3
ENCODING 963
SWIDTH 621 0
DWIDTH 19 0
BBX 17 16 1 0
BITMAP
07FF80
1FFF80
3FFF80
783C00
701C00
E00E00
E00E00
E00E00
E00E00
E00E00
E00E00
701E00
783C00
3FFC00
1FF000
07E000
ENDCHAR
STARTCHAR 03C4
ENCODING 964
SWIDTH 392 0
DWIDTH 12 0
BBX 11 16 1 0
BITMAP
FFE0
FFE0
FFE0
0E00
0E00
0E00
0E00
0E00
0E00
0E00
0E00
0E00
0E00
0E00
0E00
0E00
ENDCHAR
STARTCHAR 03C5
ENCODING 965
SWIDTH 556 0
DWIDTH 17 0
BBX 13 16 2 0
BITMAP
E038
E038
E038
E038
E038
E038
E038
E038
E038
E038
E038
E078
78F0
7FF0
3FE0
0F80
ENDCHAR
STARTCHAR 03C6
ENCODING 966
SWIDTH 654 0
DWIDTH 20 0
BBX 18 22 1 -6
BITMAP
0C7C00
1CFF00
3CFF80
78E380
70E1C0
E0E1C0
E0E1C0
E0E1C0
E0E1C0
E0E1C0
70E380
78E380
3CEF00
3FFE00
0FFC00
07F000
00E000
00E000
00E000
00E000
00E000
00E000
ENDCHAR
STARTCHAR 03C7
ENCODING 967
SWIDTH 523 0
DWIDTH 16 0
BBX 15 22 1 -6
BITMAP
E01C
701C
7038
3838
3870
1C70
1CE0
0FC0
0FC0
0780
0380
0780
07C0
0FC0
1EE0
1CE0
3870
3870
7038
703C
E01C
E00E
ENDCHAR
STARTCHAR 03C8
ENCODING 968
SWIDTH 720 0
DWIDTH 22 0
BBX 18 22 2 -6
BITMAP
E0C0C0
E0C0C0
E0C0C0
E0C0C0
E0C0C0
E0C0C0
E0C0C0
E0C0C0
E0C1C0
E0C1C0
E0C1C0
E0C1C0
70C380
78C780
3FFF00
0FFC00
00C000
00C000
00C000
00C000
00C000
00C000
ENDCHAR
STARTCHAR 03C9
ENCODING 969
SWIDTH 785 0
DWIDTH 24 0
BBX 22 16 1 0
BITMAP
380070
380030
700038
700038
703018
60301C
E0301C
E0301C
E0301C
E0381C
F0381C
707838
78FC78
3FCFF8
3FC7F0
0F03C0
ENDCHAR
STARTCHAR 03CA
ENCODING 970
SWIDTH 229 0
DWIDTH 7 0
BBX 9 21 -1 0
BITMAP
E380
E380
E380
0000
0000
1C00
1C00
1C00
1C00
1C00
1C00
1C00
1C00
1C00
1C00
1C00
1C00
1C00
1C00
1C00
1C00
ENDCHAR
STARTCHAR 03CB
ENCODING 971
SWIDTH 556 0
DWIDTH 17 0
BBX 13 21 2 0
BITMAP
18E0
18E0
18E0
0000
0000
E038
E038
E038
E038
E038
E038
E038
E038
E038
E038
E038
E078
78F0
7FF0
3FE0
0F80
ENDCHAR
STARTCHAR 03CC
ENCODING 972
SWIDTH 556 0
DWIDTH 17 0
BBX 15 22 1 0
BITMAP
00E0
01C0
01C0
0380
0000
0000
07E0
1FF0
3FF8
783C
701E
E00E
E00E
E00E
E00E
E00E
E00E
701E
783C
3FF8
1FF0
07C0
ENDCHAR
STARTCHAR 03CD
ENCODING 973
SWIDTH 556 0
DWIDTH 17 0
BBX 13 22 2 0
BITMAP
03C0
0380
0700
0600
0000
0000
E038
E038
E038
E038
E038
E038
E038
E038
E038
E038
E038
E078
78F0
7FF0
3FE0
0F80
ENDCHAR
STARTCHAR 03CE
ENCODING 974
SWIDTH 785 0
DWIDTH 24 0
BBX 22 22 1 0
BITMAP
001E00
001C00
003800
003000
000000
000000
380070
380030
700038
700038
703018
60301C
E0301C
E0301C
E0301C
E0381C
F0381C
707838
78FC78
3FCFF8
3FC7F0
0F03C0
ENDCHAR
STARTCHAR 0401
ENCODING 1025
SWIDTH 687 0
DWIDTH 21 0
BBX 17 27 2 0
BITMAP
0E3800
0E3800
0E3800
000000
000000
FFFF80
FFFF80
FFFF80
E00000
E00000
E00000
E00000
E00000
E00000
FFFF00
FFFF00
FFFF00
E00000
E00000
E00000
E00000
E00000
E00000
E00000
FFFF80
FFFF80
FFFF80
ENDCHAR
STARTCHAR 0402
ENCODING 1026
SWIDTH 883 0
DWIDTH 27 0
BBX 25 22 1 0
BITMAP
FFFF8000
FFFF8000
FFFF8000
01C00000
01C00000
01C00000
01C00000
01C3F000
01DFFC00
01FFFE00
01F81E00
01C00F00
01C00700
01C00700
01C00380
01C00780
01C00700
01C00700
01C21F00
01C3FE00
01C3FC00
01C1F000
ENDCHAR
STARTCHAR 0403
ENCODING 1027
SWIDTH 556 0
DWIDTH 17 0
BBX 15 28 2 0
BITMAP
01C0
03C0
0380
0700
0000
0000
FFFE
FFFE
FFFE
E000
E000
E000
E000
E000
E000
E000
E000
E000
E000
E000
E000
E000
E000
E000
E000
E000
E000
E000
ENDCHAR
STARTCHAR 0404
ENCODING 1028
SWIDTH 720 0
DWIDTH 22 0
BBX 19 22 2 0
BITMAP
01F800
0FFF00
1FFF80
3E07C0
7803C0
7001E0
E00080
E00000
E00000
FFE000
FFE000
FFE000
E00000
E00000
E000C0
F000E0
7001E0
7803C0
3E07C0
1FFF80
0FFF00
03F800
ENDCHAR
STARTCHAR 0405
ENCODING 1029
SWIDTH 687 0
DWIDTH 21 0
BBX 18 22 1 0
BITMAP
03F000
0FFE00
3FFF00
3C0F00
780380
700380
700380
780000
3E0000
1FE000
0FFC00
01FF00
000F80
0003C0
E001C0
6001C0
7001C0
7803C0
3E0780
1FFF80
0FFE00
03F800
ENDCHAR
STARTCHAR 0406
ENCODING 1030
SWIDTH 294 0
DWIDTH 9 0
BBX 3 22 3 0
BITMAP
E0
E0
E0
E0
E0
E0
E0
E0
E0
E0
E0
E0
E0
E0
E0
E0
E0
E0
E0
E0
E0
E0
ENDCHAR
STARTCHAR 0407
ENCODING 1031
SWIDTH 294 0
DWIDTH 9 0
BBX 9 27 0 0
BITMAP
E380
E380
E380
0000
0000
1C00
1C00
1C00
1C00
1C00
1C00
1C00
1C00
1C00
1C00
1C00
1C00
1C00
1C00
1C00
1C00
1C00
1C00
1C00
1C00
1C00
1C00
ENDCHAR
STARTCHAR 0408
ENCODING 1032
SWIDTH 523 0
DWIDTH 16 0
BBX 12 22 1 0
BITMAP
0070
0070
0070
0070
0070
0070
0070
0070
0070
0070
0070
0070
0070
0070
0070
E070
E070
E070
F0F0
7FE0
3FC0
1F80
ENDCHAR
STARTCHAR 0409
ENCODING 1033
SWIDTH 1080 0
DWIDTH 33 0
BBX 32 22 0 0
BITMAP
0FFFC000
0FFFC000
0FFFC000
0E01C000
0E01C000
0E01C000
0E01C000
0E01C000
0E01C000
0E01FFF0
0E01FFF8
0E01FFFC
0E01C03E
0E01C00E
0E01C00F
0E01C00F
0E01C00F
0E01C00E
9E01C01E
FC01FFFC
FC01FFF8
7801FFF0
ENDCHAR
STARTCHAR 040A
ENCODING 1034
SWIDTH 1014 0
DWIDTH 31 0
BBX 28 22 2 0
BITMAP
E01C0000
E01C0000
E01C0000
E01C0000
E01C0000
E01C0000
E01C0000
E01C0000
E01C0000
FFFFFF00
FFFFFFC0
FFFFFFE0
E01C01F0
E01C00F0
E01C0070
E01C0070
E01C0070
E01C00F0
E01C01E0
E01FFFE0
E01FFFC0
E01FFF00
ENDCHAR
STARTCHAR 040B
ENCODING 1035
SWIDTH 850 0
DWIDTH 26 0
BBX 24 22 1 0
BITMAP
FFFFC0
FFFFC0
FFFFC0
01C000
01C000
01C000
01C000
01C3F0
01DFFC
01FFFE
01F81E
01C00F
01C007
01C007
01C007
01C007
01C007
01C007
01C007
01C007
01C007
01C007
ENDCHAR
STARTCHAR 040C
ENCODING 1036
SWIDTH 589 0
DWIDTH 18 0
BBX 16 28 2 0
BITMAP
00E0
01C0
0180
0380
0000
0000
E00F
E03F
E03F
E078
E070
E0E0
E0E0
E1E0
E1C0
E3C0
FF80
FE00
E780
E1C0
E1E0
E0F0
E070
E078
E03C
E01C
E01E
E00F
ENDCHAR
STARTCHAR 040E
ENCODING 1038
SWIDTH 654 0
DWIDTH 20 0
BBX 19 28 0 0
BITMAP
030600
038E00
01FC00
00F800
000000
000000
E000E0
7000E0
3801C0
3801C0
1C0380
1C0380
0E0300
0E0700
070600
030E00
038C00
019C00
01D800
00F800
00F000
007000
006000
00E000
11C000
1FC000
1F8000
0F0000
ENDCHAR
STARTCHAR 040F
ENCODING 1039
SWIDTH 720 0
DWIDTH 22 0
BBX 18 28 2 -6
BITMAP
E001C0
E001C0
E001C0
E001C0
E001C0
E001C0
E001C0
E001C0
E001C0
E001C0
E001C0
E001C0
E001C0
E001C0
E001C0
E001C0
E001C0
E001C0
E001C0
FFFFC0
FFFFC0
FFFFC0
00C000
00C000
00C000
00C000
00C000
00C000
ENDCHAR
STARTCHAR 0410
ENCODING 1040
SWIDTH 687 0
DWIDTH 21 0
BBX 21 22 0 0
BITMAP
00F000
00F000
01F800
01F800
019800
039C00
039C00
030E00
070E00
060700
0E0700
0E0300
0FFF80
1FFF80
1FFFC0
3801C0
3801C0
3800E0
7000E0
7000F0
700070
E00078
ENDCHAR
STARTCHAR 0411
ENCODING 1041
SWIDTH 654 0
DWIDTH 20 0
BBX 16 22 3 0
BITMAP
FFFC
FFFC
FFFC
C000
C000
C000
C000
C000
C000
FFF0
FFFC
FFFE
C01F
C00F
C007
C007
C007
C007
C01F
FFFE
FFFC
FFF0
ENDCHAR
STARTCHAR 0412
ENCODING 1042
SWIDTH 687 0
DWIDTH 21 0
BBX 17 22 2 0
BITMAP
FFF000
FFFC00
FFFE00
E01F00
E00700
E00700
E00700
E00600
E01E00
FFFC00
FFFC00
FFFE00
E00F00
E00780
E00380
E00380
E00380
E00780
E00F00
FFFF00
FFFE00
FFF800
ENDCHAR
STARTCHAR 0413
ENCODING 1043
SWIDTH 556 0
DWIDTH 17 0
BBX 15 22 2 0
BITMAP
FFFE
FFFE
FFFE
E000
E000
E000
E000
E000
E000
E000
E000
E000
E000
E000
E000
E000
E000
E000
E000
E000
E000
E000
ENDCHAR
STARTCHAR 0414
ENCODING 1044
SWIDTH 687 0
DWIDTH 21 0
BBX 20 27 0 -5
BITMAP
0FFFC0
0FFFC0
0FFFC0
0E01C0
0E01C0
0E01C0
0E01C0
0E01C0
0E01C0
0E01C0
0E01C0
0E01C0
0E01C0
0C01C0
1C01C0
1C01C0
1C01C0
1801C0
3801C0
FFFFF0
FFFFF0
FFFFF0
E00070
E00070
E00070
E00070
E00070
ENDCHAR
STARTCHAR 0415
ENCODING 1045
SWIDTH 687 0
DWIDTH 21 0
BBX 17 22 2 0
BITMAP
FFFF80
FFFF80
FFFF80
E00000
E00000
E00000
E00000
E00000
E00000
FFFF00
FFFF00
FFFF00
E00000
E00000
E00000
E00000
E00000
E00000
E00000
FFFF80
FFFF80
FFFF80
ENDCHAR
STARTCHAR 0416
ENCODING 1046
SWIDTH 949 0
DWIDTH 29 0
BBX 28 22 0 0
BITMAP
F00700F0
FC0701F0
FC0703F0
1E070380
0E070700
07070700
07070E00
03870E00
03871E00
01C73C00
00FFF800
00FFF800
01E73C00
03871E00
07870F00
0F070700
0E070780
1E0703C0
3C0701C0
380701E0
780700F0
F0070070
ENDCHAR
STARTCHAR 0417
ENCODING 1047
SWIDTH 621 0
DWIDTH 19 0
BBX 16 22 1 0
BITMAP
07E0
1FF8
3FFC
3C1E
780E
700E
700E
200E
001C
01F8
01F8
01FE
001F
0007
0007
2007
F007
7807
7C1F
3FFE
1FFC
07F0
ENDCHAR
STARTCHAR 0418
ENCODING 1048
SWIDTH 720 0
DWIDTH 22 0
BBX 18 22 2 0
BITMAP
E001C0
E003C0
E007C0
E007C0
E00FC0
E01FC0
E03DC0
E039C0
E079C0
E0F1C0
E0E1C0
E1E1C0
E3C1C0
E381C0
E701C0
EF01C0
EE01C0
FC01C0
FC01C0
F801C0
F001C0
F001C0
ENDCHAR
STARTCHAR 0419
ENCODING 1049
SWIDTH 720 0
DWIDTH 22 0
BBX 18 28 2 0
BITMAP
0C1800
061800
07F000
01E000
000000
000000
E001C0
E003C0
E007C0
E007C0
E00FC0
E01FC0
E03DC0
E039C0
E079C0
E0F1C0
E0E1C0
E1E1C0
E3C1C0
E381C0
E701C0
EF01C0
EE01C0
FC01C0
FC01C0
F801C0
F001C0
F001C0
ENDCHAR
STARTCHAR 041A
ENCODING 1050
SWIDTH 589 0
DWIDTH 18 0
BBX 16 22 2 0
BITMAP
E00F
E03F
E03F
E078
E070
E0E0
E0E0
E1E0
E1C0
E3C0
FF80
FE00
E780
E1C0
E1E0
E0F0
E070
E078
E03C
E01C
E01E
E00F
ENDCHAR
STARTCHAR 041B
ENCODING 1051
SWIDTH 654 0
DWIDTH 20 0
BBX 18 22 0 0
BITMAP
0FFFC0
0FFFC0
0FFFC0
0E01C0
0E01C0
0E01C0
0E01C0
0E01C0
0E01C0
0E01C0
0E01C0
0E01C0
0E01C0
0E01C0
0E01C0
0E01C0
0E01C0
0E01C0
9E01C0
FC01C0
FC01C0
7801C0
ENDCHAR
STARTCHAR 041C
ENCODING 1052
SWIDTH 850 0
DWIDTH 26 0
BBX 21 22 2 0
BITMAP
F80078
F80078
FC0078
FC00D8
EC00D8
EE00D8
EE0198
E60198
E70198
E70318
E30318
E38318
E38618
E18618
E1C618
E1CC18
E0CC18
E0EC18
E0F818
E07818
E07818
E07018
ENDCHAR
STARTCHAR 041D
ENCODING 1053
SWIDTH 720 0
DWIDTH 22 0
BBX 18 22 2 0
BITMAP
E001C0
E001C0
E001C0
E001C0
E001C0
E001C0
E001C0
E001C0
E001C0
FFFFC0
FFFFC0
FFFFC0
E001C0
E001C0
E001C0
E001C0
E001C0
E001C0
E001C0
E001C0
E001C0
E001C0
ENDCHAR
STARTCHAR 041E
ENCODING 1054
SWIDTH 785 0
DWIDTH 24 0
BBX 22 22 1 0
BITMAP
00FE00
07FF80
0FFFC0
1F03E0
3C00F0
380070
780038
700038
700038
70001C
F0001C
F0001C
70001C
700038
700038
780038
380078
3C00F0
1F03E0
0FFFC0
07FF80
00FC00
ENDCHAR
STARTCHAR 041F
ENCODING 1055
SWIDTH 720 0
DWIDTH 22 0
BBX 18 22 2 0
BITMAP
FFFFC0
FFFFC0
FFFFC0
E001C0
E001C0
E001C0
E001C0
E001C0
E001C0
E001C0
E001C0
E001C0
E001C0
E001C0
E001C0
E001C0
E001C0
E001C0
E001C0
E001C0
E001C0
E001C0
ENDCHAR
STARTCHAR 0420
ENCODING 1056
SWIDTH 687 0
DWIDTH 21 0
BBX 17 22 2 0
BITMAP
FFF800
FFFE00
FFFF00
E00780
E00380
E00380
E00380
E00380
E00380
E00F80
FFFF00
FFFE00
FFF800
E00000
E00000
E00000
E00000
E00000
E00000
E00000
E00000
E00000
ENDCHAR
STARTCHAR 0421
ENCODING 1057
SWIDTH 720 0
DWIDTH 22 0
BBX 19 22 2 0
BITMAP
01F800
0FFE00
1FFF80
3E0780
7803C0
7001C0
F000E0
E00000
E00000
E00000
E00000
E00000
E00000
E00000
E000E0
F000E0
7001E0
7803C0
3E0F80
1FFF00
0FFE00
03F800
ENDCHAR
STARTCHAR 0422
ENCODING 1058
SWIDTH 621 0
DWIDTH 19 0
BBX 17 22 1 0
BITMAP
FFFF80
FFFF80
FFFF80
01C000
01C000
01C000
01C000
01C000
01C000
01C000
01C000
01C000
01C000
01C000
01C000
01C000
01C000
01C000
01C000
01C000
01C000
01C000
ENDCHAR
STARTCHAR 0423
ENCODING 1059
SWIDTH 654 0
DWIDTH 20 0
BBX 19 22 0 0
BITMAP
E000E0
7000E0
3801C0
3801C0
1C0380
1C0380
0E0300
0E0700
070600
030E00
038C00
019C00
01D800
00F800
00F000
007000
006000
00E000
11C000
1FC000
1F8000
0F0000
ENDCHAR
STARTCHAR 0424
ENCODING 1060
SWIDTH 785 0
DWIDTH 24 0
BBX 21 22 1 0
BITMAP
007000
007000
007000
03FE00
0FFFC0
1FFFE0
3E71F0
787070
707038
E07038
E07038
E07038
E07038
707038
787070
3E71F0
1FFFE0
0FFFC0
03FE00
007000
007000
007000
ENDCHAR
STARTCHAR 0425
ENCODING 1061
SWIDTH 687 0
DWIDTH 21 0
BBX 19 22 1 0
BITMAP
7001E0
7801C0
380380
1C0700
1E0F00
0F1E00
071C00
03B800
03F800
01F000
00E000
01F000
03F800
03B800
071C00
0E1E00
1E0F00
1C0700
380780
7003C0
F001C0
E001E0
ENDCHAR
STARTCHAR 0426
ENCODING 1062
SWIDTH 752 0
DWIDTH 23 0
BBX 20 28 2 -6
BITMAP
E001C0
E001C0
E001C0
E001C0
E001C0
E001C0
E001C0
E001C0
E001C0
E001C0
E001C0
E001C0
E001C0
E001C0
E001C0
E001C0
E001C0
E001C0
E001C0
FFFFF0
FFFFF0
FFFFF0
000070
000070
000070
000070
000070
000070
ENDCHAR
STARTCHAR 0427
ENCODING 1063
SWIDTH 687 0
DWIDTH 21 0
BBX 17 22 1 0
BITMAP
E00380
E00380
E00380
E00380
E00380
E00380
E00380
E00380
E00380
F00380
700380
7C0F80
3FFF80
1FFF80
07E380
000380
000380
000380
000380
000380
000380
000380
ENDCHAR
STARTCHAR 0428
ENCODING 1064
SWIDTH 916 0
DWIDTH 28 0
BBX 24 22 2 0
BITMAP
E01C07
E01C07
E01C07
E01C07
E01C07
E01C07
E01C07
E01C07
E01C07
E01C07
E01C07
E01C07
E01C07
E01C07
E01C07
E01C07
E01C07
E01C07
E01C07
FFFFFF
FFFFFF
FFFFFF
ENDCHAR
STARTCHAR 0429
ENCODING 1065
SWIDTH 949 0
DWIDTH 29 0
BBX 26 28 2 -6
BITMAP
E01C0700
E01C0700
E01C0700
E01C0700
E01C0700
E01C0700
E01C0700
E01C0700
E01C0700
E01C0700
E01C0700
E01C0700
E01C0700
E01C0700
E01C0700
E01C0700
E01C0700
E01C0700
E01C0700
FFFFFFC0
FFFFFFC0
FFFFFFC0
000001C0
000001C0
000001C0
000001C0
000001C0
000001C0
ENDCHAR
STARTCHAR 042A
ENCODING 1066
SWIDTH 818 0
DWIDTH 25 0
BBX 23 22 0 0
BITMAP
FFC000
FFC000
FFC000
01C000
01C000
01C000
01C000
01C000
01C000
01FFE0
01FFF8
01FFFC
01C03E
01C00E
01C00E
01C00E
01C00E
01C00E
01C03E
01FFFC
01FFF8
01FFE0
ENDCHAR
STARTCHAR 042B
ENCODING 1067
SWIDTH 883 0
DWIDTH 27 0
BBX 22 22 3 0
BITMAP
C0001C
C0001C
C0001C
C0001C
C0001C
C0001C
C0001C
C0001C
C0001C
FFF01C
FFFC1C
FFFE1C
C01F1C
C00F1C
C0071C
C0071C
C0071C
C0071C
C01F1C
FFFE1C
FFFC1C
FFF01C
ENDCHAR
STARTCHAR 042C
ENCODING 1068
SWIDTH 654 0
DWIDTH 20 0
BBX 17 22 2 0
BITMAP
E00000
E00000
E00000
E00000
E00000
E00000
E00000
E00000
E00000
FFF800
FFFE00
FFFF00
E00F80
E00780
E00380
E00380
E00380
E00780
E00F00
FFFF00
FFFE00
FFF800
ENDCHAR
STARTCHAR 042D
ENCODING 1069
SWIDTH 720 0
DWIDTH 22 0
BBX 20 22 1 0
BITMAP
03F800
0FFE00
1FFF00
3E0780
7803C0
7001E0
3000E0
0000E0
000070
00FFF0
00FFF0
00FFF0
000070
000070
2000E0
F000E0
7001E0
7803C0
3E07C0
1FFF80
0FFE00
03F800
ENDCHAR
STARTCHAR 042E
ENCODING 1070
SWIDTH 1014 0
DWIDTH 31 0
BBX 28 22 2 0
BITMAP
E003F800
E00FFE00
E01FFF00
E03E0F80
E07803C0
E07001E0
E0F000E0
E0E000E0
E0E000F0
FFE00070
FFE00070
FFE00070
E0E00070
E0E000F0
E0E000E0
E0F000E0
E07001E0
E07803C0
E03E0F80
E01FFF00
E00FFE00
E003F800
ENDCHAR
STARTCHAR 042F
ENCODING 1071
SWIDTH 720 0
DWIDTH 22 0
BBX 19 22 1 0
BITMAP
07FFE0
1FFFE0
3FFFE0
3C00E0
7800E0
7000E0
7000E0
7800E0
3C00E0
3FFFE0
1FFFE0
07FFE0
01C0E0
0780E0
0700E0
0E00E0
1E00E0
3C00E0
3800E0
7800E0
F000E0
E000E0
ENDCHAR
STARTCHAR 0430
ENCODING 1072
SWIDTH 556 0
DWIDTH 17 0
BBX 15 16 1 0
BITMAP
0FE0
3FF8
3FFC
703C
601C
001C
007C
1FFC
3F9C
701C
E01C
E03C
F07C
7FFC
7FEC
1F8E
ENDCHAR
STARTCHAR 0431
ENCODING 1073
SWIDTH 589 0
DWIDTH 18 0
BBX 16 22 1 0
BITMAP
07FE
1FFE
3FFC
3C00
7000
6000
63E0
6FF8
FFFC
FC3C
F80E
F00E
F006
E007
6007
700E
700E
781E
3C3C
3FFC
1FF8
07E0
ENDCHAR
STARTCHAR 0432
ENCODING 1074
SWIDTH 523 0
DWIDTH 16 0
BBX 13 16 2 0
BITMAP
FFC0
FFF0
FFF0
E070
E038
E070
FFF0
FFE0
FFF0
E038
E038
E038
E038
FFF8
FFF0
FFC0
ENDCHAR
STARTCHAR 0433
ENCODING 1075
SWIDTH 360 0
DWIDTH 11 0
BBX 9 16 2 0
BITMAP
FF80
FF80
FF80
E000
E000
E000
E000
E000
E000
E000
E000
E000
E000
E000
E000
E000
ENDCHAR
STARTCHAR 0434
ENCODING 1076
SWIDTH 589 0
DWIDTH 18 0
BBX 17 21 0 -5
BITMAP
0FFE00
0FFE00
0FFE00
0C0600
0C0600
0C0600
0C0600
0C0600
1C0600
1C0600
180600
380600
300600
FFFF80
FFFF80
FFFF80
C00180
C00180
C00180
C00180
C00180
ENDCHAR
STARTCHAR 0435
ENCODING 1077
SWIDTH 556 0
DWIDTH 17 0
BBX 15 16 1 0
BITMAP
07C0
1FF0
3FF8
783C
701C
E00E
E00E
FFFE
FFFE
E000
E000
700E
783C
3FFC
1FF8
07E0
ENDCHAR
STARTCHAR 0436
ENCODING 1078
SWIDTH 687 0
DWIDTH 21 0
BBX 21 16 0 0
BITMAP
707070
7870F0
7870F0
1C71C0
1C7180
0E7380
0E7300
07FE00
07FE00
0E7780
1C7380
1C71C0
3870E0
7870E0
707070
E07038
ENDCHAR
STARTCHAR 0437
ENCODING 1079
SWIDTH 458 0
DWIDTH 14 0
BBX 12 16 1 0
BITMAP
0F80
3FC0
7FE0
70F0
E070
00E0
07E0
07C0
07E0
00F0
0070
E070
F0F0
7FF0
7FE0
1F80
ENDCHAR
STARTCHAR 0438
ENCODING 1080
SWIDTH 556 0
DWIDTH 17 0
BBX 13 16 2 0
BITMAP
E038
E078
E078
E0F8
E0D8
E1D8
E398
E318
E718
EE18
EC18
FC18
F818
F818
F018
E018
ENDCHAR
STARTCHAR 0439
ENCODING 1081
SWIDTH 556 0
DWIDTH 17 0
BBX 13 22 2 0
BITMAP
3060
1860
1FC0
0780
0000
0000
E038
E078
E078
E0F8
E0D8
E1D8
E398
E318
E718
EE18
EC18
FC18
F818
F818
F018
E018
ENDCHAR
STARTCHAR 043A
ENCODING 1082
SWIDTH 458 0
DWIDTH 14 0
BBX 11 16 2 0
BITMAP
E0E0
E1E0
E1E0
E380
E300
E700
E600
FC00
FC00
EF00
E700
E380
E1C0
E1C0
E0E0
E0E0
ENDCHAR
STARTCHAR 043B
ENCODING 1083
SWIDTH 589 0
DWIDTH 18 0
BBX 16 16 0 0
BITMAP
1FFF
1FFF
1FFF
1C07
1C07
1C07
1C07
1C07
1C07
1C07
1C07
1C07
1C07
FC07
FC07
F807
ENDCHAR
STARTCHAR 043C
ENCODING 1084
SWIDTH 687 0
DWIDTH 21 0
BBX 17 16 2 0
BITMAP
F80780
F80780
F80F80
FC0F80
FC0F80
EC1F80
EE1B80
EE1B80
E63380
E63380
E77380
E36380
E36380
E3E380
E1C380
E1C380
ENDCHAR
STARTCHAR 043D
ENCODING 1085
SWIDTH 556 0
DWIDTH 17 0
BBX 13 16 2 0
BITMAP
E038
E038
E038
E038
E038
E038
FFF8
FFF8
FFF8
E038
E038
E038
E038
E038
E038
E038
ENDCHAR
STARTCHAR 043E
ENCODING 1086
SWIDTH 556 0
DWIDTH 17 0
BBX 15 16 1 0
BITMAP
07E0
1FF0
3FF8
783C
701E
E00E
E00E
E00E
E00E
E00E
E00E
701E
783C
3FF8
1FF0
07C0
ENDCHAR
STARTCHAR 043F
ENCODING 1087
SWIDTH 556 0
DWIDTH 17 0
BBX 13 16 2 0
BITMAP
FFF8
FFF8
FFF8
E038
E038
E038
E038
E038
E038
E038
E038
E038
E038
E038
E038
E038
ENDCHAR
STARTCHAR 0440
ENCODING 1088
SWIDTH 556 0
DWIDTH 17 0
BBX 14 22 2 -6
BITMAP
E7C0
EFE0
FFF0
F878
F038
E01C
E01C
E01C
E01C
E01C
E01C
E038
F878
FFF0
EFE0
E7C0
E000
E000
E000
E000
E000
E000
ENDCHAR
STARTCHAR 0441
ENCODING 1089
SWIDTH 523 0
DWIDTH 16 0
BBX 14 16 1 0
BITMAP
07C0
1FF0
3FF8
7838
701C
E000
E000
E000
E000
E000
E01C
701C
7838
3FF8
1FF0
07C0
ENDCHAR
STARTCHAR 0442
ENCODING 1090
SWIDTH 458 0
DWIDTH 14 0
BBX 13 16 1 0
BITMAP
FFF8
FFF8
FFF8
0600
0600
0600
0600
0600
0600
0600
0600
0600
0600
0600
0600
0600
ENDCHAR
STARTCHAR 0443
ENCODING 1091
SWIDTH 523 0
DWIDTH 16 0
BBX 14 22 1 -6
BITMAP
E01C
E01C
E018
7038
7038
3870
3870
3860
1CE0
1CE0
0CC0
0FC0
0FC0
0780
0780
0300
0700
0700
0E00
7E00
7C00
7800
ENDCHAR
STARTCHAR 0444
ENCODING 1092
SWIDTH 850 0
DWIDTH 26 0
BBX 23 28 1 -6
BITMAP
003800
003800
003800
003800
003800
003800
0FB9F0
1FFBF8
3FFFFC
787E1C
703C0E
E0380E
E0380E
E03806
E03806
E0380E
E0380E
703C0E
787E3C
3FFFFC
1FFFF8
0FB9E0
003800
003800
003800
003800
003800
003800
ENDCHAR
STARTCHAR 0445
ENCODING 1093
SWIDTH 523 0
DWIDTH 16 0
BBX 14 16 1 0
BITMAP
E038
7038
7870
38E0
1DE0
0FC0
0F80
0780
0780
0FC0
1DC0
3CE0
3870
7078
F038
E01C
ENDCHAR
STARTCHAR 0446
ENCODING 1094
SWIDTH 589 0
DWIDTH 18 0
BBX 15 22 2 -6
BITMAP
E038
E038
E038
E038
E038
E038
E038
E038
E038
E038
E038
E038
E038
FFFE
FFFE
FFFE
0006
0006
0006
0006
0006
0006
ENDCHAR
STARTCHAR 0447
ENCODING 1095
SWIDTH 523 0
DWIDTH 16 0
BBX 13 16 1 0
BITMAP
E038
E038
E038
E038
E038
E038
E038
7078
7FF8
3FF8
1FB8
0038
0038
0038
0038
0038
ENDCHAR
STARTCHAR 0448
ENCODING 1096
SWIDTH 818 0
DWIDTH 25 0
BBX 21 16 2 0
BITMAP
E07038
E07038
E07038
E07038
E07038
E07038
E07038
E07038
E07038
E07038
E07038
E07038
E07038
FFFFF8
FFFFF8
FFFFF8
ENDCHAR
STARTCHAR 0449
ENCODING 1097
SWIDTH 850 0
DWIDTH 26 0
BBX 23 22 2 -6
BITMAP
E07038
E07038
E07038
E07038
E07038
E07038
E07038
E07038
E07038
E07038
E07038
E07038
E07038
FFFFFE
FFFFFE
FFFFFE
00000E
00000E
00000E
00000E
00000E
00000E
ENDCHAR
STARTCHAR 044A
ENCODING 1098
SWIDTH 621 0
DWIDTH 19 0
BBX 17 16 1 0
BITMAP
FE0000
FE0000
FE0000
0E0000
0E0000
0E0000
0FFC00
0FFF00
0FFF80
0E0780
0E0380
0E0380
0E0780
0FFF80
0FFF00
0FFC00
ENDCHAR
STARTCHAR 044B
ENCODING 1099
SWIDTH 720 0
DWIDTH 22 0
BBX 18 16 2 0
BITMAP
E001C0
E001C0
E001C0
E001C0
E001C0
FFC1C0
FFF1C0
FFF1C0
E079C0
E039C0
E039C0
E039C0
E079C0
FFF1C0
FFF1C0
FFC1C0
ENDCHAR
STARTCHAR 044C
ENCODING 1100
SWIDTH 523 0
DWIDTH 16 0
BBX 13 16 2 0
BITMAP
E000
E000
E000
E000
E000
FFC0
FFE0
FFF0
E078
E038
E038
E038
E078
FFF0
FFF0
FFC0
ENDCHAR
STARTCHAR 044D
ENCODING 1101
SWIDTH 523 0
DWIDTH 16 0
BBX 14 16 1 0
BITMAP
0F80
3FE0
7FF0
F078
E038
0038
001C
07FC
07FC
001C
E038
E038
F078
7FF0
3FE0
0FC0
ENDCHAR
STARTCHAR 044E
ENCODING 1102
SWIDTH 752 0
DWIDTH 23 0
BBX 20 16 2 0
BITMAP
E03F00
E0FF80
E1FFC0
E1E1E0
E3C0F0
E38070
FF8070
FF8070
FF8070
E38070
E38070
E1C0F0
E1E1E0
E0FFC0
E07FC0
E03F00
ENDCHAR
STARTCHAR 044F
ENCODING 1103
SWIDTH 556 0
DWIDTH 17 0
BBX 14 16 1 0
BITMAP
1FFC
3FFC
7FFC
701C
E01C
601C
701C
7FFC
3FFC
07FC
1E1C
1C1C
381C
781C
F01C
E01C
ENDCHAR
STARTCHAR 0451
ENCODING 1105
SWIDTH 556 0
DWIDTH 17 0
BBX 15 21 1 0
BITMAP
1C70
1C70
1C70
0000
0000
07C0
1FF0
3FF8
783C
701C
E00E
E00E
FFFE
FFFE
E000
E000
700E
783C
3FFC
1FF8
07E0
ENDCHAR
STARTCHAR 0452
ENCODING 1106
SWIDTH 556 0
DWIDTH 17 0
BBX 15 28 0 -6
BITMAP
3800
3800
FFC0
FFC0
3800
3800
39F0
3FFC
3FFE
3E1E
3C0E
380E
380E
380E
380E
380E
380E
380E
380E
380E
380E
380E
000E
000E
000E
003E
007C
0078
ENDCHAR
STARTCHAR 0453
ENCODING 1107
SWIDTH 360 0
DWIDTH 11 0
BBX 9 22 2 0
BITMAP
0700
0F00
0E00
1C00
0000
0000
FF80
FF80
FF80
E000
E000
E000
E000
E000
E000
E000
E000
E000
E000
E000
E000
E000
ENDCHAR
STARTCHAR 0454
ENCODING 1108
SWIDTH 523 0
DWIDTH 16 0
BBX 14 16 1 0
BITMAP
07C0
1FF0
3FF8
7838
701C
E000
E000
FF80
FF80
E000
E01C
701C
7838
3FF8
1FF0
0FC0
ENDCHAR
STARTCHAR 0455
ENCODING 1109
SWIDTH 523 0
DWIDTH 16 0
BBX 13 16 1 0
BITMAP
1FC0
3FE0
79F0
E038
E000
7800
7F80
3FE0
0FF8
00F8
0038
E038
F078
7FF8
3FF0
0FC0
ENDCHAR
STARTCHAR 0456
ENCODING 1110
SWIDTH 229 0
DWIDTH 7 0
BBX 3 22 2 0
BITMAP
E0
E0
E0
00
00
00
E0
E0
E0
E0
E0
E0
E0
E0
E0
E0
E0
E0
E0
E0
E0
E0
ENDCHAR
STARTCHAR 0457
ENCODING 1111
SWIDTH 294 0
DWIDTH 9 0
BBX 9 21 0 0
BITMAP
E380
E380
E380
0000
0000
1C00
1C00
1C00
1C00
1C00
1C00
1C00
1C00
1C00
1C00
1C00
1C00
1C00
1C00
1C00
1C00
ENDCHAR
STARTCHAR 0458
ENCODING 1112
SWIDTH 229 0
DWIDTH 7 0
BBX 6 28 -1 -6
BITMAP
1C
1C
1C
00
00
00
1C
1C
1C
1C
1C
1C
1C
1C
1C
1C
1C
1C
1C
1C
1C
1C
1C
1C
1C
F8
F8
F0
ENDCHAR
STARTCHAR 0459
ENCODING 1113
SWIDTH 916 0
DWIDTH 28 0
BBX 27 16 0 0
BITMAP
0FFF8000
0FFF8000
0FFF8000
0C038000
0C038000
0C03FE00
0C03FF80
0C03FFC0
0C0381E0
0C0380E0
1C0380E0
1C0380E0
1C0381E0
FC03FFC0
FC03FF80
F803FF00
ENDCHAR
STARTCHAR 045A
ENCODING 1114
SWIDTH 818 0
DWIDTH 25 0
BBX 22 16 2 0
BITMAP
E07000
E07000
E07000
E07000
E07000
E07000
FFFFE0
FFFFF0
FFFFF8
E0703C
E0701C
E0701C
E0703C
E07FF8
E07FF8
E07FE0
ENDCHAR
STARTCHAR 045B
ENCODING 1115
SWIDTH 556 0
DWIDTH 17 0
BBX 15 22 0 0
BITMAP
3800
3800
FFC0
FFC0
3800
3800
39F0
3FFC
3FFC
3E1E
3C0E
380E
380E
380E
380E
380E
380E
380E
380E
380E
380E
380E
ENDCHAR
STARTCHAR 045C
ENCODING 1116
SWIDTH 458 0
DWIDTH 14 0
BBX 11 22 2 0
BITMAP
0700
0F00
0E00
1C00
0000
0000
E0E0
E1E0
E1E0
E380
E300
E700
E600
FC00
FC00
EF00
E700
E380
E1C0
E1C0
E0E0
E0E0
ENDCHAR
STARTCHAR 045E
ENCODING 1118
SWIDTH 523 0
DWIDTH 16 0
BBX 14 28 1 -6
BITMAP
1060
1860
1FC0
0780
0000
0000
E01C
E01C
E018
7038
7038
3870
3870
3860
1CE0
1CE0
0CC0
0FC0
0FC0
0780
0780
0300
0700
0700
0E00
7E00
7C00
7800
ENDCHAR
STARTCHAR 045F
ENCODING 1119
SWIDTH 556 0
DWIDTH 17 0
BBX 13 22 2 -6
BITMAP
E038
E038
E038
E038
E038
E038
E038
E038
E038
E038
E038
E038
E038
FFF8
FFF8
FFF8
0700
0700
0700
0700
0700
0700
ENDCHAR
STARTCHAR 0490
ENCODING 1168
SWIDTH 490 0
DWIDTH 15 0
BBX 12 28 2 0
BITMAP
0030
0030
0030
0030
0030
0030
FFF0
FFF0
FFF0
E000
E000
E000
E000
E000
E000
E000
E000
E000
E000
E000
E000
E000
E000
E000
E000
E000
E000
E000
ENDCHAR
STARTCHAR 0491
ENCODING 1169
SWIDTH 425 0
DWIDTH 13 0
BBX 10 22 2 0
BITMAP
00C0
00C0
00C0
00C0
00C0
00C0
FFC0
FFC0
FFC0
E000
E000
E000
E000
E000
E000
E000
E000
E000
E000
E000
E000
E000
ENDCHAR
STARTCHAR 0492
ENCODING 1170
SWIDTH 556 0
DWIDTH 17 0
BBX 17 22 0 0
BITMAP
3FFF80
3FFF80
3FFF80
380000
380000
380000
380000
380000
380000
FFE000
FFE000
FFE000
380000
380000
380000
380000
380000
380000
380000
380000
380000
380000
ENDCHAR
STARTCHAR 0493
ENCODING 1171
SWIDTH 360 0
DWIDTH 11 0
BBX 11 16 0 0
BITMAP
3FE0
3FE0
3FE0
3800
3800
3800
FF00
FF00
FF00
3800
3800
3800
3800
3800
3800
3800
ENDCHAR
STARTCHAR 0496
ENCODING 1174
SWIDTH 949 0
DWIDTH 29 0
BBX 29 28 0 -6
BITMAP
F80700F0
FC0701F0
FE0703F0
1E070780
0F070700
07070700
07870E00
03871E00
03C73C00
01FFFC00
007FF000
01FFFC00
03E73E00
07871E00
0F870F00
0F070780
1E070780
1E0703C0
3C0701E0
380701F8
780700F8
F0070078
00000038
00000038
00000038
00000038
00000038
00000038
ENDCHAR
STARTCHAR 0497
ENCODING 1175
SWIDTH 687 0
DWIDTH 21 0
BBX 21 21 0 -5
BITMAP
707070
7870F0
7871F0
1C71C0
1C7380
0E7380
0FFF00
03FE00
07FF80
0E7780
1C73C0
1C71E0
3870E0
7870F8
707078
E07038
000038
000038
000038
000038
000038
ENDCHAR
STARTCHAR 049A
ENCODING 1178
SWIDTH 589 0
DWIDTH 18 0
BBX 16 28 2 -6
BITMAP
E00F
E03F
E07F
E078
E0F0
E0E0
E1E0
E1C0
E3C0
FF80
FE00
FF80
E7C0
E1E0
E1F0
E0F0
E078
E078
E03C
E01F
E01F
E00F
0007
0007
0007
0007
0007
0007
ENDCHAR
STARTCHAR 049B
ENCODING 1179
SWIDTH 458 0
DWIDTH 14 0
BBX 11 21 2 -5
BITMAP
E0E0
E1E0
E3E0
E380
E700
E700
FE00
FC00
FF00
EF00
E780
E3C0
E1C0
E1E0
E0E0
E0E0
0060
0060
0060
0060
0060
ENDCHAR
STARTCHAR 049C
ENCODING 1180
SWIDTH 589 0
DWIDTH 18 0
BBX 16 22 2 0
BITMAP
E00F
E03F
E07F
E678
E6F0
E6E0
E7E0
E7C0
E7C0
FF80
FE00
FF80
E7C0
E7E0
E6F0
E6F0
E678
E638
E03C
E01C
E01E
E00F
ENDCHAR
STARTCHAR 049D
ENCODING 1181
SWIDTH 458 0
DWIDTH 14 0
BBX 12 16 2 0
BITMAP
E0E0
E1E0
EBE0
EB80
EF00
EF00
FE00
FC00
FE00
EF00
EF80
EB80
E9C0
E9C0
E0E0
E0F0
ENDCHAR
STARTCHAR 04A2
ENCODING 1186
SWIDTH 720 0
DWIDTH 22 0
BBX 20 28 2 -6
BITMAP
E001C0
E001C0
E001C0
E001C0
E001C0
E001C0
E001C0
E001C0
E001C0
FFFFC0
FFFFC0
FFFFC0
E001C0
E001C0
E001C0
E001C0
E001C0
E001C0
E001C0
E001F0
E001F0
E001F0
000070
000070
000070
000070
000070
000070
ENDCHAR
STARTCHAR 04A3
ENCODING 1187
SWIDTH 556 0
DWIDTH 17 0
BBX 15 21 2 -5
BITMAP
E038
E038
E038
E038
E038
E038
FFF8
FFF8
FFF8
E038
E038
E038
E038
E03E
E03E
E03E
0006
0006
0006
0006
0006
ENDCHAR
STARTCHAR 04AE
ENCODING 1198
SWIDTH 556 0
DWIDTH 17 0
BBX 17 22 0 0
BITMAP
E00380
700700
700700
380E00
3C1E00
1C1C00
0E3C00
0E3800
077000
077000
03E000
03E000
01C000
01C000
01C000
01C000
01C000
01C000
01C000
01C000
01C000
01C000
ENDCHAR
STARTCHAR 04AF
ENCODING 1199
SWIDTH 523 0
DWIDTH 16 0
BBX 15 22 0 -6
BITMAP
E00E
700E
701C
381C
381C
3838
1C38
1C70
0C70
0E70
0EE0
06E0
07C0
07C0
03C0
0380
0380
0380
0380
0380
0380
0380
ENDCHAR
STARTCHAR 04B0
ENCODING 1200
SWIDTH 556 0
DWIDTH 17 0
BBX 17 22 0 0
BITMAP
E00380
700700
700F00
380E00
1C1C00
1C1C00
0E3800
063800
077000
036000
7FFF00
7FFF00
7FFF00
01C000
01C000
01C000
01C000
01C000
01C000
01C000
01C000
01C000
ENDCHAR
STARTCHAR 04B1
ENCODING 1201
SWIDTH 523 0
DWIDTH 16 0
BBX 15 22 0 -6
BITMAP
E00E
700E
701C
381C
381C
3838
1C38
1C70
0C70
0E70
0EE0
06E0
07C0
07C0
03C0
0380
3FFC
3FFC
3FFC
0380
0380
0380
ENDCHAR
STARTCHAR 04B2
ENCODING 1202
SWIDTH 687 0
DWIDTH 21 0
BBX 19 28 1 -6
BITMAP
7001E0
7801C0
3C0380
1C0700
1E0F00
0F1E00
079C00
03B800
03F800
01F000
00E000
01F000
03F800
03BC00
073C00
0F1E00
1E0F00
1C0700
380780
7803E0
F001E0
E001E0
000060
000060
000060
000060
000060
000060
ENDCHAR
STARTCHAR 04B3
ENCODING 1203
SWIDTH 523 0
DWIDTH 16 0
BBX 14 21 1 -5
BITMAP
E038
7078
7870
3CE0
1DE0
0FC0
0F80
0780
0780
0FC0
1DE0
3CF0
38F0
707C
F03C
E01C
000C
000C
000C
000C
000C
ENDCHAR
STARTCHAR 04B8
ENCODING 1208
SWIDTH 687 0
DWIDTH 21 0
BBX 17 22 1 0
BITMAP
E00380
E00380
E00380
E00380
E00380
E0C380
E0C380
E0C380
E0C380
70C380
70C380
7CDF80
3FFF80
1FFF80
07E380
00C380
00C380
00C380
00C380
000380
000380
000380
ENDCHAR
STARTCHAR 04B9
ENCODING 1209
SWIDTH 523 0
DWIDTH 16 0
BBX 13 16 1 0
BITMAP
E038
E038
E038
E238
E238
E238
F238
7FF8
3FF8
1FB8
0238
0238
0238
0038
0038
0038
ENDCHAR
STARTCHAR 04BA
ENCODING 1210
SWIDTH 687 0
DWIDTH 21 0
BBX 17 22 2 0
BITMAP
E00000
E00000
E00000
E00000
E00000
E00000
E00000
E1F800
FFFE00
FFFF00
FC0F80
E00780
E00380
E00380
E00380
E00380
E00380
E00380
E00380
E00380
E00380
E00380
ENDCHAR
STARTCHAR 04BB
ENCODING 1211
SWIDTH 556 0
DWIDTH 17 0
BBX 13 22 2 0
BITMAP
E000
E000
E000
E000
E000
E000
E7C0
EFF0
FFF8
F878
F038
E038
E038
E038
E038
E038
E038
E038
E038
E038
E038
E038
ENDCHAR
STARTCHAR 04D8
ENCODING 1240
SWIDTH 752 0
DWIDTH 23 0
BBX 21 22 1 0
BITMAP
01FC00
07FF00
0FFFC0
1F03E0
3C00E0
380070
180070
000078
000038
FFFFF8
FFFFF8
7FFFF8
700038
700038
700078
700070
3800F0
3C01E0
1F03E0
0FFFC0
07FF80
01FC00
ENDCHAR
STARTCHAR 04D9
ENCODING 1241
SWIDTH 556 0
DWIDTH 17 0
BBX 15 16 1 0
BITMAP
07E0
1FF0
3FF8
783C
701E
E00E
000E
FFFE
FFFE
FFFE
600E
700C
783C
3FF8
1FF0
07E0
ENDCHAR
STARTCHAR 04E8
ENCODING 1256
SWIDTH 785 0
DWIDTH 24 0
BBX 22 22 1 0
BITMAP
00FE00
07FF80
0FFFC0
1F03E0
3C00F0
380070
700038
700038
700018
7FFFFC
FFFFFC
FFFFFC
70001C
700038
700038
780038
380070
3C00F0
1F03E0
0FFFC0
07FF80
00FE00
ENDCHAR
STARTCHAR 04E9
ENCODING 1257
SWIDTH 556 0
DWIDTH 17 0
BBX 15 16 1 0
BITMAP
07E0
1FF0
3FF8
783C
701E
E00E
FFFE
FFFE
FFFE
E00E
E00E
701E
783C
3FF8
1FF0
07C0
ENDCHAR
STARTCHAR 05B0
ENCODING 1456
SWIDTH 327 0
DWIDTH 10 0
BBX 2 5 4 -6
BITMAP
C0
C0
00
C0
C0
ENDCHAR
STARTCHAR 05B1
ENCODING 1457
SWIDTH 327 0
DWIDTH 10 0
BBX 9 5 1 -6
BITMAP
DB80
D980
0000
7380
7380
ENDCHAR
STARTCHAR 05B2
ENCODING 1458
SWIDTH 327 0
DWIDTH 10 0
BBX 8 5 1 -6
BITMAP
FB
FB
00
03
03
ENDCHAR
STARTCHAR 05B3
ENCODING 1459
SWIDTH 327 0
DWIDTH 10 0
BBX 8 5 1 -6
BITMAP
FB
FB
60
63
03
ENDCHAR
STARTCHAR 05B4
ENCODING 1460
SWIDTH 327 0
DWIDTH 10 0
BBX 2 2 4 -6
BITMAP
C0
C0
ENDCHAR
STARTCHAR 05B5
ENCODING 1461
SWIDTH 327 0
DWIDTH 10 0
BBX 6 2 2 -6
BITMAP
CC
CC
ENDCHAR
STARTCHAR 05B6
ENCODING 1462
SWIDTH 327 0
DWIDTH 10 0
BBX 6 5 2 -6
BITMAP
CC
CC
00
30
30
ENDCHAR
STARTCHAR 05B7
ENCODING 1463
SWIDTH 327 0
DWIDTH 10 0
BBX 6 2 2 -5
BITMAP
FC
FC
ENDCHAR
STARTCHAR 05B8
ENCODING 1464
SWIDTH 327 0
DWIDTH 10 0
BBX 6 5 2 -6
BITMAP
FC
FC
30
30
30
ENDCHAR
STARTCHAR 05B9
ENCODING 1465
SWIDTH 327 0
DWIDTH 10 0
BBX 2 2 4 18
BITMAP
C0
C0
ENDCHAR
STARTCHAR 05BA
ENCODING 1466
SWIDTH 327 0
DWIDTH 10 0
BBX 2 2 4 18
BITMAP
C0
C0
ENDCHAR
STARTCHAR 05BB
ENCODING 1467
SWIDTH 327 0
DWIDTH 10 0
BBX 10 5 0 -6
BITMAP
E000
E000
0C00
0CC0
00C0
ENDCHAR
STARTCHAR 05BC
ENCODING 1468
SWIDTH 327 0
DWIDTH 10 0
BBX 2 2 4 8
BITMAP
C0
C0
ENDCHAR
STARTCHAR 05BD
ENCODING 1469
SWIDTH 327 0
DWIDTH 10 0
BBX 2 5 4 -6
BITMAP
C0
C0
C0
C0
C0
ENDCHAR
STARTCHAR 05BE
ENCODING 1470
SWIDTH 392 0
DWIDTH 12 0
BBX 8 3 2 13
BITMAP
FF
FF
FF
ENDCHAR
STARTCHAR 05BF
ENCODING 1471
SWIDTH 327 0
DWIDTH 10 0
BBX 6 2 2 19
BITMAP
FC
FC
ENDCHAR
STARTCHAR 05C0
ENCODING 1472
SWIDTH 294 0
DWIDTH 9 0
BBX 2 20 3 0
BITMAP
C0
C0
C0
C0
C0
C0
C0
C0
C0
C0
C0
C0
C0
C0
C0
C0
C0
C0
C0
C0
ENDCHAR
STARTCHAR 05C1
ENCODING 1473
SWIDTH 327 0
DWIDTH 10 0
BBX 2 2 12 18
BITMAP
C0
C0
ENDCHAR
STARTCHAR 05C2
ENCODING 1474
SWIDTH 327 0
DWIDTH 10 0
BBX 3 2 -4 18
BITMAP
E0
E0
ENDCHAR
STARTCHAR 05C3
ENCODING 1475
SWIDTH 294 0
DWIDTH 9 0
BBX 3 16 3 0
BITMAP
E0
E0
E0
00
00
00
00
00
00
00
00
00
00
E0
E0
E0
ENDCHAR
STARTCHAR 05D0
ENCODING 1488
SWIDTH 556 0
DWIDTH 17 0
BBX 14 16 2 0
BITMAP
F01C
7038
7838
3C38
1C38
1E38
3F70
7FF0
73E0
E3C0
E1E0
E0E0
E070
E078
E03C
E01C
ENDCHAR
STARTCHAR 05D1
ENCODING 1489
SWIDTH 556 0
DWIDTH 17 0
BBX 15 16 1 0
BITMAP
FF00
FFC0
FFE0
01F0
0070
0070
0038
0038
0038
0038
0038
0038
0038
FFFE
FFFE
FFFE
ENDCHAR
STARTCHAR 05D2
ENCODING 1490
SWIDTH 392 0
DWIDTH 12 0
BBX 10 16 1 0
BITMAP
7C00
7F00
7F00
0780
0380
0380
0380
0380
0380
0F80
3F80
3F80
7B80
F1C0
E1C0
E1C0
ENDCHAR
STARTCHAR 05D3
ENCODING 1491
SWIDTH 523 0
DWIDTH 16 0
BBX 14 16 1 0
BITMAP
FFFC
FFFC
FFFC
00E0
00E0
00E0
00E0
00E0
00E0
00E0
00E0
00E0
00E0
00E0
00E0
00E0
ENDCHAR
STARTCHAR 05D4
ENCODING 1492
SWIDTH 621 0
DWIDTH 19 0
BBX 14 16 2 0
BITMAP
FFC0
FFF0
FFF8
007C
003C
001C
001C
E00C
E00C
E00C
E00C
E00C
E00C
E00C
E00C
E00C
ENDCHAR
STARTCHAR 05D5
ENCODING 1493
SWIDTH 261 0
DWIDTH 8 0
BBX 3 16 2 0
BITMAP
E0
E0
E0
E0
E0
E0
E0
E0
E0
E0
E0
E0
E0
E0
E0
E0
ENDCHAR
STARTCHAR 05D6
ENCODING 1494
SWIDTH 392 0
DWIDTH 12 0
BBX 10 16 1 0
BITMAP
FFC0
FFC0
FFC0
0F00
1C00
1C00
3800
3800
1800
1800
1C00
1C00
1C00
1C00
1C00
1C00
ENDCHAR
STARTCHAR 05D7
ENCODING 1495
SWIDTH 621 0
DWIDTH 19 0
BBX 14 16 2 0
BITMAP
FFC0
FFF0
FFF8
E07C
E01C
E01C
E01C
E01C
E01C
E01C
E01C
E01C
E01C
E01C
E01C
E01C
ENDCHAR
STARTCHAR 05D8
ENCODING 1496
SWIDTH 589 0
DWIDTH 18 0
BBX 14 16 2 0
BITMAP
E0F0
E1F8
E3FC
E31C
E21C
E00C
E00C
E00C
E00C
E01C
E01C
701C
783C
3FF8
1FF0
0FC0
ENDCHAR
STARTCHAR 05D9
ENCODING 1497
SWIDTH 261 0
DWIDTH 8 0
BBX 3 8 2 8
BITMAP
E0
E0
E0
E0
E0
E0
E0
E0
ENDCHAR
STARTCHAR 05DA
ENCODING 1498
SWIDTH 523 0
DWIDTH 16 0
BBX 13 22 1 -6
BITMAP
FF00
FFC0
FFE0
01F0
0070
0070
0038
0038
0038
0038
0038
0038
0038
0038
0038
0038
0038
0038
0038
0038
0038
0038
ENDCHAR
STARTCHAR 05DB
ENCODING 1499
SWIDTH 458 0
DWIDTH 14 0
BBX 12 16 1 0
BITMAP
FE00
FF80
7FC0
03E0
00E0
00F0
0070
0070
0070
0070
00F0
00E0
03E0
7FC0
FF80
FE00
ENDCHAR
STARTCHAR 05DC
ENCODING 1500
SWIDTH 458 0
DWIDTH 14 0
BBX 12 22 1 0
BITMAP
E000
E000
E000
E000
E000
E000
FFF0
FFF0
FFF0
0070
0070
0070
0060
00E0
01C0
01C0
0380
0380
0700
0700
0700
0700
ENDCHAR
STARTCHAR 05DD
ENCODING 1501
SWIDTH 621 0
DWIDTH 19 0
BBX 14 16 2 0
BITMAP
FFC0
FFF0
FFF8
E07C
E01C
E01C
E01C
E01C
E01C
E01C
E01C
E01C
E01C
FFFC
FFFC
FFFC
ENDCHAR
STARTCHAR 05DE
ENCODING 1502
SWIDTH 621 0
DWIDTH 19 0
BBX 15 16 1 0
BITMAP
E1F0
73FC
77FC
3F1E
3E0E
3C0E
1C0E
380E
380E
3806
3806
3006
7006
71FE
71FE
71FE
ENDCHAR
STARTCHAR 05DF
ENCODING 1503
SWIDTH 261 0
DWIDTH 8 0
BBX 3 22 2 -6
BITMAP
E0
E0
E0
E0
E0
E0
E0
E0
E0
E0
E0
E0
E0
E0
E0
E0
E0
E0
E0
E0
E0
E0
ENDCHAR
STARTCHAR 05E0
ENCODING 1504
SWIDTH 360 0
DWIDTH 11 0
BBX 8 16 1 0
BITMAP
F8
FE
FE
0E
07
07
07
07
07
07
07
07
07
FF
FF
FF
ENDCHAR
STARTCHAR 05E1
ENCODING 1505
SWIDTH 589 0
DWIDTH 18 0
BBX 15 16 1 0
BITMAP
07E0
1FF8
3FFC
7C3C
781E
700E
F00E
F00E
F00E
F00E
700E
781E
7C3C
3FFC
1FF8
07E0
ENDCHAR
STARTCHAR 05E2
ENCODING 1506
SWIDTH 523 0
DWIDTH 16 0
BBX 14 17 0 -1
BITMAP
381C
381C
1C1C
1C1C
1C1C
1C1C
1C1C
0C1C
0E1C
0E1C
0E38
0E78
07F0
1FE0
FFC0
7E00
6000
ENDCHAR
STARTCHAR 05E3
ENCODING 1507
SWIDTH 589 0
DWIDTH 18 0
BBX 13 22 2 -6
BITMAP
7F80
FFE0
FFF0
C0F8
C038
C038
C038
C038
E038
FC38
3C38
0038
0038
0038
0038
0038
0038
0038
0038
0038
0038
0038
ENDCHAR
STARTCHAR 05E4
ENCODING 1508
SWIDTH 556 0
DWIDTH 17 0
BBX 14 16 2 0
BITMAP
7F80
FFE0
FFF0
E0F0
E078
E038
E038
FC1C
3C3C
0038
0038
0078
81F0
FFE0
FFC0
7F00
ENDCHAR
STARTCHAR 05E5
ENCODING 1509
SWIDTH 458 0
DWIDTH 14 0
BBX 12 22 1 -6
BITMAP
E070
E070
7070
7070
3870
38E0
1CE0
1DC0
0F80
0F00
0E00
0E00
0E00
0E00
0E00
0E00
0E00
0E00
0E00
0E00
0E00
0E00
ENDCHAR
STARTCHAR 05E6
ENCODING 1510
SWIDTH 490 0
DWIDTH 15 0
BBX 13 16 0 0
BITMAP
F038
7038
3838
1C38
1C38
0E78
0770
07E0
0380
01C0
01C0
00E0
0070
7FF0
7FF8
7FF8
ENDCHAR
STARTCHAR 05E7
ENCODING 1511
SWIDTH 556 0
DWIDTH 17 0
BBX 13 22 2 -6
BITMAP
FFF8
FFF8
FFF8
0038
0038
0038
0038
6038
6070
60E0
60E0
61C0
61C0
61C0
61C0
61C0
6000
6000
6000
6000
6000
6000
ENDCHAR
STARTCHAR 05E8
ENCODING 1512
SWIDTH 523 0
DWIDTH 16 0
BBX 13 16 1 0
BITMAP
FF00
FFC0
FFE0
01F0
0070
0070
0038
0038
0038
0038
0038
0038
0038
0038
0038
0038
ENDCHAR
STARTCHAR 05E9
ENCODING 1513
SWIDTH 720 0
DWIDTH 22 0
BBX 18 16 2 0
BITMAP
C1C1C0
C1C1C0
E1C1C0
E1C1C0
E1C1C0
E1C1C0
E3C380
E78380
FF8380
FE0380
600780
700700
7C1F00
3FFE00
1FFC00
07F000
ENDCHAR
STARTCHAR 05EA
ENCODING 1514
SWIDTH 654 0
DWIDTH 20 0
BBX 17 16 1 0
BITMAP
FFF000
FFFE00
FFFE00
0E1F00
0E0700
0E0380
0E0380
0E0380
0E0380
0E0380
0E0380
0E0380
1E0380
FC0380
FC0380
F80380
ENDCHAR
STARTCHAR 05F0
ENCODING 1520
SWIDTH 490 0
DWIDTH 15 0
BBX 11 16 2 0
BITMAP
E0E0
E0E0
E0E0
E0E0
E0E0
E0E0
E0E0
E0E0
E0E0
E0E0
E0E0
E0E0
E0E0
E0E0
E0E0
E0E0
ENDCHAR
STARTCHAR 05F1
ENCODING 1521
SWIDTH 490 0
DWIDTH 15 0
BBX 11 16 2 0
BITMAP
E0E0
E0E0
E0E0
E0E0
E0E0
E0E0
E0E0
E0E0
00E0
00E0
00E0
00E0
00E0
00E0
00E0
00E0
ENDCHAR
STARTCHAR 05F2
ENCODING 1522
SWIDTH 490 0
DWIDTH 15 0
BBX 11 8 2 8
BITMAP
E0E0
E0E0
E0E0
E0E0
E0E0
E0E0
E0E0
E0E0
ENDCHAR
STARTCHAR 05F3
ENCODING 1523
SWIDTH 229 0
DWIDTH 7 0
BBX 5 6 1 10
BITMAP
38
70
70
60
60
C0
ENDCHAR
STARTCHAR 05F4
ENCODING 1524
SWIDTH 425 0
DWIDTH 13 0
BBX 10 6 1 10
BITMAP
39C0
71C0
7180
6180
6380
C300
ENDCHAR
STARTCHAR 060C
ENCODING 1548
SWIDTH 327 0
DWIDTH 10 0
BBX 4 10 3 4
BITMAP
20
60
C0
80
80
E0
F0
F0
F0
70
ENDCHAR
STARTCHAR 061B
ENCODING 1563
SWIDTH 327 0
DWIDTH 10 0
BBX 5 16 2 4
BITMAP
10
30
60
40
40
E0
F8
78
78
30
00
00
30
78
78
30
ENDCHAR
STARTCHAR 061F
ENCODING 1567
SWIDTH 360 0
DWIDTH 11 0
BBX 9 18 1 4
BITMAP
1E00
7100
6180
E780
E780
F300
F000
7800
3800
1800
0800
0800
0800
0000
1C00
1C00
1C00
1C00
ENDCHAR
STARTCHAR 0621
ENCODING 1569
SWIDTH 425 0
DWIDTH 13 0
BBX 9 11 2 2
BITMAP
1C00
3E00
7E00
4200
C080
F380
FF80
FE00
3800
2000
4000
ENDCHAR
STARTCHAR 0622
ENCODING 1570
SWIDTH 196 0
DWIDTH 6 0
BBX 6 22 0 4
BITMAP
64
BC
00
10
10
30
30
30
10
10
18
18
18
18
18
18
18
18
18
08
10
10
ENDCHAR
STARTCHAR 0623
ENCODING 1571
SWIDTH 196 0
DWIDTH 6 0
BBX 4 23 1 4
BITMAP
30
40
70
C0
00
20
20
60
60
60
20
20
30
30
30
30
30
30
30
30
10
10
20
ENDCHAR
STARTCHAR 0624
ENCODING 1572
SWIDTH 425 0
DWIDTH 13 0
BBX 12 20 1 -3
BITMAP
0300
0400
0300
0400
0000
0060
00F0
00F0
0190
0190
01F0
00F0
0070
0010
0030
0070
00E0
83C0
7F80
1F00
ENDCHAR
STARTCHAR 0625
ENCODING 1573
SWIDTH 196 0
DWIDTH 6 0
BBX 4 26 1 -3
BITMAP
20
20
60
60
60
20
20
30
30
30
30
30
30
30
30
30
10
20
20
00
00
00
60
80
70
80
ENDCHAR
STARTCHAR 0626
ENCODING 1574
SWIDTH 654 0
DWIDTH 20 0
BBX 18 17 1 -1
BITMAP
300000
400380
7007C0
C00FC0
0018C0
001040
202000
402000
402000
803F80
803F80
803F80
800100
E01F00
FFFE00
7FF800
3FC000
ENDCHAR
STARTCHAR 0627
ENCODING 1575
SWIDTH 196 0
DWIDTH 6 0
BBX 3 19 2 4
BITMAP
40
40
C0
C0
C0
40
40
60
60
60
60
60
60
60
60
60
20
40
40
ENDCHAR
STARTCHAR 0628
ENCODING 1576
SWIDTH 720 0
DWIDTH 22 0
BBX 21 17 1 -2
BITMAP
400010
400010
800038
800018
800018
800008
C00008
F00008
7FFFF8
3FFFF8
1FFFF8
000000
000000
002000
007000
007000
003000
ENDCHAR
STARTCHAR 0629
ENCODING 1577
SWIDTH 294 0
DWIDTH 9 0
BBX 8 17 0 4
BITMAP
08
4E
FE
E4
20
00
00
10
1C
1E
3F
23
21
63
7F
7F
3C
ENDCHAR
STARTCHAR 062A
ENCODING 1578
SWIDTH 720 0
DWIDTH 22 0
BBX 21 16 1 4
BITMAP
001000
009C00
01FC00
01C800
004000
400010
400010
800038
800018
800018
800008
C00008
F00008
7FFFF8
3FFFF8
1FFFF8
ENDCHAR
STARTCHAR 062B
ENCODING 1579
SWIDTH 720 0
DWIDTH 22 0
BBX 21 20 1 4
BITMAP
008000
00E000
01E000
004000
001000
009C00
01FC00
01C800
004000
400010
400010
800038
800018
800018
800008
C00008
F00008
7FFFF8
3FFFF8
1FFFF8
ENDCHAR
STARTCHAR 062C
ENCODING 1580
SWIDTH 556 0
DWIDTH 17 0
BBX 15 19 1 -6
BITMAP
3FFC
7FFC
7FFC
03E0
0E00
1800
2000
4000
8080
81E0
81C0
8040
8000
C000
F000
7E00
3FFE
1FF8
03F0
ENDCHAR
STARTCHAR 062D
ENCODING 1581
SWIDTH 556 0
DWIDTH 17 0
BBX 15 19 1 -6
BITMAP
3FFC
7FFC
7FFC
03E0
0E00
1800
2000
4000
8000
8000
8000
8000
8000
C000
F000
7E00
3FFE
1FF8
03F0
ENDCHAR
STARTCHAR 062E
ENCODING 1582
SWIDTH 556 0
DWIDTH 17 0
BBX 15 26 1 -6
BITMAP
0100
0380
0380
0100
0000
0000
0000
3FFC
7FFC
7FFC
03E0
0E00
1800
2000
4000
8000
8000
8000
8000
8000
C000
F000
7E00
3FFE
1FF8
03F0
ENDCHAR
STARTCHAR 062F
ENCODING 1583
SWIDTH 327 0
DWIDTH 10 0
BBX 9 13 1 4
BITMAP
0400
0600
0700
0300
0180
0080
0080
0080
0080
8080
FF80
FF80
7F80
ENDCHAR
STARTCHAR 0630
ENCODING 1584
SWIDTH 327 0
DWIDTH 10 0
BBX 9 20 1 4
BITMAP
1000
3800
3800
1800
0000
0000
0000
0400
0600
0700
0300
0180
0080
0080
0080
0080
8080
FF80
FF80
7F80
ENDCHAR
STARTCHAR 0631
ENCODING 1585
SWIDTH 490 0
DWIDTH 15 0
BBX 14 16 1 -3
BITMAP
0010
0018
001C
001C
000C
0004
0004
0004
0004
000C
001C
0038
0078
C1F0
3FC0
0F80
ENDCHAR
STARTCHAR 0632
ENCODING 1586
SWIDTH 490 0
DWIDTH 15 0
BBX 14 23 1 -3
BITMAP
0040
0070
00E0
0020
0000
0000
0000
0010
0018
001C
001C
000C
0004
0004
0004
0004
000C
001C
0038
0078
C1F0
3FC0
0F80
ENDCHAR
STARTCHAR 0633
ENCODING 1587
SWIDTH 818 0
DWIDTH 25 0
BBX 24 15 1 -2
BITMAP
000401
000603
000611
200611
400209
400219
8003FF
8003FF
8003F7
800200
C00600
E03E00
FFFC00
7FF800
1FC000
ENDCHAR
STARTCHAR 0634
ENCODING 1588
SWIDTH 818 0
DWIDTH 25 0
BBX 24 26 1 -2
BITMAP
000020
000070
000070
000020
000004
00004E
00007E
0000E4
000020
000000
000000
000401
000603
000611
200611
400209
400219
8003FF
8003FF
8003F7
800200
C00600
E03E00
FFFC00
7FF800
1FC000
ENDCHAR
STARTCHAR 0635
ENCODING 1589
SWIDTH 1112 0
DWIDTH 34 0
BBX 33 15 1 -2
BITMAP
0004003E00
000600FF00
000601FF80
2006038380
40020E0180
4002380380
8003FFFF80
8003FFFF80
8003FFFF80
8002000000
C006000000
E03C000000
FFFC000000
7FF8000000
1FC0000000
ENDCHAR
STARTCHAR 0636
ENCODING 1590
SWIDTH 1112 0
DWIDTH 34 0
BBX 33 21 1 -2
BITMAP
0000080000
00000E0000
00001E0000
0000040000
0000000000
0000000000
0004003E00
000600FF00
000601FF80
2006038380
40020E0180
4002380380
8003FFFF80
8003FFFF80
8003FFFF80
8002000000
C006000000
E03C000000
FFFC000000
7FF8000000
1FC0000000
ENDCHAR
STARTCHAR 0637
ENCODING 1591
SWIDTH 589 0
DWIDTH 18 0
BBX 19 20 -1 5
BITMAP
040000
070000
070000
030000
020000
030000
030000
030000
010000
010000
010000
010780
011FC0
017FE0
01E0E0
038060
0600E0
FFFFE0
FFFFE0
FFFFE0
ENDCHAR
STARTCHAR 0638
ENCODING 1592
SWIDTH 589 0
DWIDTH 18 0
BBX 19 20 -1 5
BITMAP
040000
070000
070000
030800
020E00
031C00
030400
030000
010000
010000
010000
010780
011FC0
017FE0
01E0E0
038060
0600E0
FFFFE0
FFFFE0
FFFFE0
ENDCHAR
STARTCHAR 0639
ENCODING 1593
SWIDTH 556 0
DWIDTH 17 0
BBX 15 25 1 -6
BITMAP
1C00
3F00
7F00
F000
C000
8000
8010
C070
F1F0
FFC0
7F00
3C00
3000
2000
4000
8000
8000
8000
8000
C000
E000
FC00
7FFE
3FF8
07F0
ENDCHAR
STARTCHAR 063A
ENCODING 1594
SWIDTH 556 0
DWIDTH 17 0
BBX 15 32 1 -6
BITMAP
0800
1E00
1C00
0C00
0000
0000
0000
1C00
3F00
7F00
F000
C000
8000
8010
C070
F1F0
FFC0
7F00
3C00
3000
2000
4000
8000
8000
8000
8000
C000
E000
FC00
7FFE
3FF8
07F0
ENDCHAR
STARTCHAR 0640
ENCODING 1600
SWIDTH 196 0
DWIDTH 6 0
BBX 7 3 -1 4
BITMAP
FE
FE
FE
ENDCHAR
STARTCHAR 0641
ENCODING 1601
SWIDTH 785 0
DWIDTH 24 0
BBX 23 18 1 4
BITMAP
000020
000070
000070
000020
000000
000000
000000
40001C
80001E
80003E
800036
800072
800072
C0003E
F8000E
7FFFFE
3FFFFE
0FFFFE
ENDCHAR
STARTCHAR 0642
ENCODING 1602
SWIDTH 589 0
DWIDTH 18 0
BBX 17 24 1 -2
BITMAP
000400
004E00
007E00
00E400
002000
000000
000000
000000
000E00
001F00
001F00
003380
203180
403F80
403F80
401E80
800080
800080
800180
C00380
F00F00
7FFF00
3FFC00
0FF000
ENDCHAR
STARTCHAR 0643
ENCODING 1603
SWIDTH 621 0
DWIDTH 19 0
BBX 18 21 1 4
BITMAP
000400
000300
000780
000780
000380
002300
006100
00C100
008100
01F100
01F180
001180
403180
806180
8FC080
800080
800080
E000C0
FFFFC0
7FFFC0
3FFFC0
ENDCHAR
STARTCHAR 0644
ENCODING 1604
SWIDTH 523 0
DWIDTH 16 0
BBX 15 25 1 0
BITMAP
0010
0018
001C
001C
000C
0008
0008
000C
000C
000C
0004
0004
2004
2004
4004
4006
8006
8006
8006
8006
C00E
E03C
7FFC
7FF8
1FE0
ENDCHAR
STARTCHAR 0645
ENCODING 1605
SWIDTH 327 0
DWIDTH 10 0
BBX 9 17 1 -6
BITMAP
1C00
1E00
3F00
2780
0380
1F80
7F80
FF80
E000
8000
8000
8000
8000
C000
4000
4000
4000
ENDCHAR
STARTCHAR 0646
ENCODING 1606
SWIDTH 523 0
DWIDTH 16 0
BBX 15 20 1 -2
BITMAP
0100
01C0
0380
0080
0000
0004
0006
0006
2006
4002
4002
4002
8002
8002
8002
C00E
E03E
FFFC
7FF8
1FE0
ENDCHAR
STARTCHAR 0647
ENCODING 1607
SWIDTH 294 0
DWIDTH 9 0
BBX 7 10 1 4
BITMAP
20
38
7C
7E
4E
82
C6
FE
FC
78
ENDCHAR
STARTCHAR 0648
ENCODING 1608
SWIDTH 425 0
DWIDTH 13 0
BBX 12 15 1 -3
BITMAP
0060
00F0
00F0
0190
0190
01F0
00F0
0070
0010
0030
0070
00E0
83C0
7F80
1F00
ENDCHAR
STARTCHAR 0649
ENCODING 1609
SWIDTH 654 0
DWIDTH 20 0
BBX 18 16 1 -1
BITMAP
000380
0007C0
000FC0
0018C0
001040
202000
402000
402000
803F80
803F80
803F80
800100
E01F00
FFFE00
7FF800
3FC000
ENDCHAR
STARTCHAR 064A
ENCODING 1610
SWIDTH 654 0
DWIDTH 20 0
BBX 18 21 1 -6
BITMAP
000380
0007C0
000FC0
0018C0
001040
202000
402000
402000
803F80
803F80
803F80
800100
E01F00
FFFE00
7FF800
3FC000
004000
027000
07F000
072000
010000
ENDCHAR
STARTCHAR 064B
ENCODING 1611
SWIDTH 196 0
DWIDTH 6 0
BBX 5 5 1 19
BITMAP
08
30
C8
30
C0
ENDCHAR
STARTCHAR 064C
ENCODING 1612
SWIDTH 229 0
DWIDTH 7 0
BBX 6 6 1 19
BITMAP
0C
14
DC
4C
5C
60
ENDCHAR
STARTCHAR 064D
ENCODING 1613
SWIDTH 196 0
DWIDTH 6 0
BBX 5 5 1 -4
BITMAP
08
30
C8
30
C0
ENDCHAR
STARTCHAR 064E
ENCODING 1614
SWIDTH 196 0
DWIDTH 6 0
BBX 5 3 1 19
BITMAP
08
30
C0
ENDCHAR
STARTCHAR 064F
ENCODING 1615
SWIDTH 229 0
DWIDTH 7 0
BBX 4 7 2 19
BITMAP
30
50
70
30
30
40
80
ENDCHAR
STARTCHAR 0650
ENCODING 1616
SWIDTH 196 0
DWIDTH 6 0
BBX 5 3 1 -1
BITMAP
08
30
C0
ENDCHAR
STARTCHAR 0651
ENCODING 1617
SWIDTH 229 0
DWIDTH 7 0
BBX 6 4 1 19
BITMAP
04
A4
B8
C0
ENDCHAR
STARTCHAR 0652
ENCODING 1618
SWIDTH 163 0
DWIDTH 5 0
BBX 4 4 1 19
BITMAP
60
90
90
E0
ENDCHAR
STARTCHAR 0653
ENCODING 1619
SWIDTH 196 0
DWIDTH 6 0
BBX 5 2 1 21
BITMAP
C0
78
ENDCHAR
STARTCHAR 0654
ENCODING 1620
SWIDTH 196 0
DWIDTH 6 0
BBX 4 4 1 23
BITMAP
30
40
70
C0
ENDCHAR
STARTCHAR 0655
ENCODING 1621
SWIDTH 196 0
DWIDTH 6 0
BBX 4 4 1 -2
BITMAP
30
40
70
C0
ENDCHAR
STARTCHAR 0660
ENCODING 1632
SWIDTH 523 0
DWIDTH 16 0
BBX 4 7 6 7
BITMAP
40
60
F0
F0
F0
70
10
ENDCHAR
STARTCHAR 0661
ENCODING 1633
SWIDTH 523 0
DWIDTH 16 0
BBX 5 18 5 4
BITMAP
80
C0
E0
E0
70
70
38
38
18
18
18
08
08
08
08
08
08
08
ENDCHAR
STARTCHAR 0662
ENCODING 1634
SWIDTH 523 0
DWIDTH 16 0
BBX 9 18 3 4
BITMAP
8080
C080
F180
FF80
7F80
3F00
3800
1C00
1C00
0C00
0C00
0C00
0400
0400
0400
0400
0400
0400
ENDCHAR
STARTCHAR 0663
ENCODING 1635
SWIDTH 523 0
DWIDTH 16 0
BBX 13 18 2 4
BITMAP
0108
4198
E1F8
FFF0
FEE0
7C00
3000
3800
1800
1800
0C00
0C00
0C00
0C00
0C00
0400
0800
0800
ENDCHAR
STARTCHAR 0664
ENCODING 1636
SWIDTH 523 0
DWIDTH 16 0
BBX 7 18 5 4
BITMAP
04
0C
18
30
40
C0
F0
FC
FC
38
10
20
40
C0
F0
FE
FE
3E
ENDCHAR
STARTCHAR 0665
ENCODING 1637
SWIDTH 523 0
DWIDTH 16 0
BBX 11 12 3 8
BITMAP
0E00
1F00
3F80
67C0
41C0
8060
8040
C040
E0C0
FF80
FF00
7E00
ENDCHAR
STARTCHAR 0666
ENCODING 1638
SWIDTH 523 0
DWIDTH 16 0
BBX 10 18 3 4
BITMAP
8000
8300
FE00
FE00
FE00
0200
0200
0200
0200
0200
0300
0300
0380
0380
03C0
0180
0180
0080
ENDCHAR
STARTCHAR 0667
ENCODING 1639
SWIDTH 523 0
DWIDTH 16 0
BBX 12 18 2 4
BITMAP
8000
C010
C010
E030
E030
F070
F060
7840
3880
1880
0D00
0D00
0500
0600
0600
0200
0200
0200
ENDCHAR
STARTCHAR 0668
ENCODING 1640
SWIDTH 523 0
DWIDTH 16 0
BBX 13 17 2 5
BITMAP
0200
0600
0600
0A00
0B00
0B00
0980
0980
11C0
30E0
30F0
6078
E078
C030
C030
8010
8000
ENDCHAR
STARTCHAR 0669
ENCODING 1641
SWIDTH 523 0
DWIDTH 16 0
BBX 10 18 3 4
BITMAP
1E00
3E00
7F00
6300
4300
C300
FF00
7F00
3F00
0300
0300
0100
0180
0180
0180
01C0
0180
0080
ENDCHAR
STARTCHAR 066A
ENCODING 1642
SWIDTH 523 0
DWIDTH 16 0
BBX 12 21 2 3
BITMAP
7030
7830
7860
7060
00C0
00C0
0180
0180
0300
0300
0600
0600
0C00
0800
1800
1000
3000
20E0
60F0
40F0
C0E0
ENDCHAR
STARTCHAR 066B
ENCODING 1643
SWIDTH 327 0
DWIDTH 10 0
BBX 4 7 3 1
BITMAP
60
F0
F0
70
20
40
80
ENDCHAR
STARTCHAR 066C
ENCODING 1644
SWIDTH 327 0
DWIDTH 10 0
BBX 4 10 3 4
BITMAP
20
60
C0
80
80
E0
F0
F0
F0
70
ENDCHAR
STARTCHAR 066D
ENCODING 1645
SWIDTH 523 0
DWIDTH 16 0
BBX 10 11 3 11
BITMAP
0C00
6D80
6F80
3B00
DCC0
F3C0
DCC0
3B00
6F80
6D80
0C00
ENDCHAR
STARTCHAR 066E
ENCODING 1646
SWIDTH 720 0
DWIDTH 22 0
BBX 21 11 1 4
BITMAP
400010
400010
800038
800018
800018
800008
C00008
F00008
7FFFF8
3FFFF8
1FFFF8
ENDCHAR
STARTCHAR 066F
ENCODING 1647
SWIDTH 589 0
DWIDTH 18 0
BBX 17 16 1 -2
BITMAP
000E00
001F00
001F00
003380
203180
403F80
403F80
401E80
800080
800080
800180
C00380
F00F00
7FFF00
3FFC00
0FF000
ENDCHAR
STARTCHAR 0670
ENCODING 1648
SWIDTH 0 0
DWIDTH 0 0
BBX 2 7 -1 17
BITMAP
80
80
80
40
40
40
40
ENDCHAR
STARTCHAR 0671
ENCODING 1649
SWIDTH 196 0
DWIDTH 6 0
BBX 7 24 0 4
BITMAP
0C
36
FC
80
00
10
10
30
30
30
10
10
18
18
18
18
18
18
18
18
18
08
10
10
ENDCHAR
STARTCHAR 0672
ENCODING 1650
SWIDTH 196 0
DWIDTH 6 0
BBX 5 24 0 4
BITMAP
18
20
20
38
E0
10
10
30
30
30
10
10
18
18
18
18
18
18
18
18
18
08
10
10
ENDCHAR
STARTCHAR 0673
ENCODING 1651
SWIDTH 196 0
DWIDTH 6 0
BBX 5 26 1 -4
BITMAP
20
20
60
60
60
20
20
30
30
30
30
30
30
30
30
30
10
20
20
00
00
10
60
60
38
E0
ENDCHAR
STARTCHAR 0674
ENCODING 1652
SWIDTH 196 0
DWIDTH 6 0
BBX 4 4 1 23
BITMAP
30
40
70
C0
ENDCHAR
STARTCHAR 0675
ENCODING 1653
SWIDTH 196 0
DWIDTH 6 0
BBX 7 19 2 4
BITMAP
40
46
C8
CE
D0
40
40
60
60
60
60
60
60
60
60
60
20
40
40
ENDCHAR
STARTCHAR 0676
ENCODING 1654
SWIDTH 425 0
DWIDTH 13 0
BBX 14 21 1 -3
BITMAP
000C
0010
000C
0010
0000
0000
0060
00F0
00F0
0190
0190
01F0
00F0
0070
0010
0030
0070
00E0
83C0
7F80
1F00
ENDCHAR
STARTCHAR 0677
ENCODING 1655
SWIDTH 425 0
DWIDTH 13 0
BBX 14 22 1 -3
BITMAP
0300
050C
0710
030C
0390
0400
0800
0060
00F0
00F0
0190
0190
01F0
00F0
0070
0010
0030
0070
00E0
83C0
7F80
1F00
ENDCHAR
STARTCHAR 0678
ENCODING 1656
SWIDTH 654 0
DWIDTH 20 0
BBX 19 22 1 -1
BITMAP
000060
000080
000060
000080
000000
000000
000380
0007C0
000FC0
0018C0
001040
202000
402000
402000
803F80
803F80
803F80
800100
E01F00
FFFE00
7FF800
3FC000
ENDCHAR
STARTCHAR 0679
ENCODING 1657
SWIDTH 720 0
DWIDTH 22 0
BBX 21 22 1 4
BITMAP
008000
00C000
008000
004000
004000
004000
004000
005E00
006200
03FE00
000000
400010
400010
800038
800018
800018
800008
C00008
F00008
7FFFF8
3FFFF8
1FFFF8
ENDCHAR
STARTCHAR 067A
ENCODING 1658
SWIDTH 720 0
DWIDTH 22 0
BBX 21 20 1 4
BITMAP
004000
007000
00E000
002000
002000
007000
007000
001000
000000
400010
400010
800038
800018
800018
800008
C00008
F00008
7FFFF8
3FFFF8
1FFFF8
ENDCHAR
STARTCHAR 067B
ENCODING 1659
SWIDTH 720 0
DWIDTH 22 0
BBX 21 20 1 -5
BITMAP
400010
400010
800038
800018
800018
800008
C00008
F00008
7FFFF8
3FFFF8
1FFFF8
000000
002000
003800
007000
001000
001000
003800
003800
001800
ENDCHAR
STARTCHAR 067C
ENCODING 1660
SWIDTH 720 0
DWIDTH 22 0
BBX 21 19 1 1
BITMAP
001000
009C00
01FC00
01C800
004000
400010
400010
800038
800018
800018
800008
C00008
F00008
7FFFF8
3FFFF8
1FFFF8
004800
004800
007000
ENDCHAR
STARTCHAR 067D
ENCODING 1661
SWIDTH 720 0
DWIDTH 22 0
BBX 21 20 1 4
BITMAP
001000
009C00
01F800
01C800
00C000
001000
003800
003800
001000
400010
400010
800038
800018
800018
800008
C00008
F00008
7FFFF8
3FFFF8
1FFFF8
ENDCHAR
STARTCHAR 067E
ENCODING 1662
SWIDTH 720 0
DWIDTH 22 0
BBX 21 21 1 -6
BITMAP
400010
400010
800038
800018
800018
800008
C00008
F00008
7FFFF8
3FFFF8
1FFFF8
000000
000800
009C00
00FC00
01EC00
004000
001000
001C00
003800
000800
ENDCHAR
STARTCHAR 067F
ENCODING 1663
SWIDTH 720 0
DWIDTH 22 0
BBX 21 19 1 4
BITMAP
001000
013C00
01F800
03C800
009800
009C00
00FC00
01C800
404010
400010
800038
800018
800018
800008
C00008
F00008
7FFFF8
3FFFF8
1FFFF8
ENDCHAR
STARTCHAR 0680
ENCODING 1664
SWIDTH 720 0
DWIDTH 22 0
BBX 21 22 1 -7
BITMAP
400010
400010
800038
800018
800018
800008
C00008
F00008
7FFFF8
3FFFF8
1FFFF8
000000
000000
001000
009C00
01FC00
01C800
004800
004E00
00FC00
00E400
004000
ENDCHAR
STARTCHAR 0681
ENCODING 1665
SWIDTH 556 0
DWIDTH 17 0
BBX 15 27 1 -6
BITMAP
00C0
0100
00C0
0100
0000
0000
0000
0000
3FFC
7FFC
7FFC
03E0
0E00
1800
2000
4000
8000
8000
8000
8000
8000
C000
F000
7E00
3FFE
1FF8
03F0
ENDCHAR
STARTCHAR 0682
ENCODING 1666
SWIDTH 556 0
DWIDTH 17 0
BBX 15 30 1 -6
BITMAP
0200
0380
0700
0100
0100
0380
0380
0080
0000
0000
0000
3FFC
7FFC
7FFC
03E0
0E00
1800
2000
4000
8000
8000
8000
8000
8000
C000
F000
7E00
3FFE
1FF8
03F0
ENDCHAR
STARTCHAR 0683
ENCODING 1667
SWIDTH 556 0
DWIDTH 17 0
BBX 15 19 1 -6
BITMAP
3FFC
7FFC
7FFC
03E0
0E00
1800
2000
4040
8270
87F0
8720
8100
8000
C000
F000
7E00
3FFE
1FF8
03F0
ENDCHAR
STARTCHAR 0684
ENCODING 1668
SWIDTH 556 0
DWIDTH 17 0
BBX 15 19 1 -6
BITMAP
3FFC
7FFC
7FFC
03E0
0E00
1800
2100
41C0
83C0
8080
8080
80E0
81C0
C040
F000
7E00
3FFE
1FF8
03F0
ENDCHAR
STARTCHAR 0685
ENCODING 1669
SWIDTH 556 0
DWIDTH 17 0
BBX 15 30 1 -6
BITMAP
0200
0780
0700
0140
00F0
06E0
0720
0700
0200
0000
0000
3FFC
7FFC
7FFC
03E0
0E00
1800
2000
4000
8000
8000
8000
8000
8000
C000
F000
7E00
3FFE
1FF8
03F0
ENDCHAR
STARTCHAR 0686
ENCODING 1670
SWIDTH 556 0
DWIDTH 17 0
BBX 15 19 1 -6
BITMAP
3FFC
7FFC
7FFC
03E0
0E00
1800
2040
4270
87F0
8720
8100
8040
80E0
C0E0
F060
7E00
3FFE
1FF8
03F0
ENDCHAR
STARTCHAR 0687
ENCODING 1671
SWIDTH 556 0
DWIDTH 17 0
BBX 15 19 1 -6
BITMAP
3FFC
7FFC
7FFC
03E0
0E00
1800
2020
4270
83F0
8720
8120
8138
83F8
C390
F080
7E00
3FFE
1FF8
03F0
ENDCHAR
STARTCHAR 0688
ENCODING 1672
SWIDTH 327 0
DWIDTH 10 0
BBX 9 24 1 4
BITMAP
2000
3000
2000
1000
1000
1000
1000
1700
1880
FF80
0000
0400
0600
0700
0300
0180
0080
0080
0080
0080
8080
FF80
FF80
7F80
ENDCHAR
STARTCHAR 0689
ENCODING 1673
SWIDTH 327 0
DWIDTH 10 0
BBX 9 16 1 1
BITMAP
0400
0600
0700
0300
0180
0080
0080
0080
0080
8080
FF80
FF80
7F80
1200
1200
0E00
ENDCHAR
STARTCHAR 068A
ENCODING 1674
SWIDTH 327 0
DWIDTH 10 0
BBX 9 18 1 -1
BITMAP
0400
0600
0700
0300
0180
0080
0080
0080
0080
8080
FF80
FF80
7F80
0000
0800
0E00
0E00
0400
ENDCHAR
STARTCHAR 068B
ENCODING 1675
SWIDTH 327 0
DWIDTH 10 0
BBX 9 29 1 -1
BITMAP
2000
3000
2000
1000
1000
1000
1000
1700
1880
FF80
0000
0400
0600
0700
0300
0180
0080
0080
0080
0080
8080
FF80
FF80
7F80
0000
0800
0E00
0E00
0400
ENDCHAR
STARTCHAR 068C
ENCODING 1676
SWIDTH 327 0
DWIDTH 10 0
BBX 9 20 1 4
BITMAP
0400
4F00
7E00
F200
2000
0000
0000
0400
0600
0700
0300
0180
0080
0080
0080
0080
8080
FF80
FF80
7F80
ENDCHAR
STARTCHAR 068D
ENCODING 1677
SWIDTH 327 0
DWIDTH 10 0
BBX 9 19 1 -2
BITMAP
0400
0600
0700
0300
0180
0080
0080
0080
0080
8080
FF80
FF80
7F80
0000
0200
2700
3F00
7B00
1000
ENDCHAR
STARTCHAR 068E
ENCODING 1678
SWIDTH 327 0
DWIDTH 10 0
BBX 9 23 1 4
BITMAP
2000
3800
7800
1400
0700
2F00
7A00
7000
1000
0000
0400
0600
0700
0300
0180
0080
0080
0080
0080
8080
FF80
FF80
7F80
ENDCHAR
STARTCHAR 068F
ENCODING 1679
SWIDTH 327 0
DWIDTH 10 0
BBX 9 23 1 4
BITMAP
0800
4E00
FC00
E400
6000
0800
1C00
1C00
0C00
0000
0400
0600
0700
0300
0180
0080
0080
0080
0080
8080
FF80
FF80
7F80
ENDCHAR
STARTCHAR 0690
ENCODING 1680
SWIDTH 327 0
DWIDTH 10 0
BBX 9 22 1 4
BITMAP
0C00
4E00
7E00
E400
2400
2700
7E00
7200
3000
0400
0600
0700
0300
0180
0080
0080
0080
0080
8080
FF80
FF80
7F80
ENDCHAR
STARTCHAR 0691
ENCODING 1681
SWIDTH 490 0
DWIDTH 15 0
BBX 14 29 1 -3
BITMAP
0200
0100
0100
0100
0100
0100
0100
0178
0188
0FF8
0000
0000
0000
0010
0018
001C
001C
000C
0004
0004
0004
0004
000C
001C
0038
0078
C1F0
3FC0
0F80
ENDCHAR
STARTCHAR 0692
ENCODING 1682
SWIDTH 490 0
DWIDTH 15 0
BBX 14 22 1 -3
BITMAP
0090
0060
0060
0000
0000
0000
0010
0018
001C
001C
000C
0004
0004
0004
0004
000C
001C
0038
0078
C1F0
3FC0
0F80
ENDCHAR
STARTCHAR 0693
ENCODING 1683
SWIDTH 490 0
DWIDTH 15 0
BBX 14 17 1 -4
BITMAP
0010
0018
001C
001C
000C
0004
0004
0004
0004
000C
001C
0038
0078
C1F8
3FE4
0FA4
0038
ENDCHAR
STARTCHAR 0694
ENCODING 1684
SWIDTH 490 0
DWIDTH 15 0
BBX 15 17 1 -4
BITMAP
0010
0018
001C
001C
000C
0004
0004
0004
0004
000C
001C
0038
0078
C1F8
3FCE
0F9C
0004
ENDCHAR
STARTCHAR 0695
ENCODING 1685
SWIDTH 490 0
DWIDTH 15 0
BBX 14 19 1 -6
BITMAP
0010
0018
001C
001C
000C
0004
0004
0004
0004
000C
001C
0038
0078
C1F0
3FC0
0F80
006C
0028
0010
ENDCHAR
STARTCHAR 0696
ENCODING 1686
SWIDTH 490 0
DWIDTH 15 0
BBX 15 17 1 -4
BITMAP
0010
0018
001C
001C
000C
0404
0704
0F04
0204
000C
001C
0038
0078
C1F8
3FCE
0F9C
0004
ENDCHAR
STARTCHAR 0697
ENCODING 1687
SWIDTH 490 0
DWIDTH 15 0
BBX 14 24 1 -3
BITMAP
0020
0270
03F0
0730
0100
0000
0000
0000
0010
0018
001C
001C
000C
0004
0004
0004
0004
000C
001C
0038
0078
C1F0
3FC0
0F80
ENDCHAR
STARTCHAR 0698
ENCODING 1688
SWIDTH 490 0
DWIDTH 15 0
BBX 14 27 1 -3
BITMAP
0080
00E0
01C0
0040
0010
009C
01F8
01C8
0080
0000
0000
0010
0018
001C
001C
000C
0004
0004
0004
0004
000C
001C
0038
0078
C1F0
3FC0
0F80
ENDCHAR
STARTCHAR 0699
ENCODING 1689
SWIDTH 490 0
DWIDTH 15 0
BBX 14 26 1 -3
BITMAP
0040
0670
07E0
0720
0220
0270
03F0
0730
0100
0000
0010
0018
001C
001C
000C
0004
0004
0004
0004
000C
001C
0038
0078
C1F0
3FC0
0F80
ENDCHAR
STARTCHAR 069A
ENCODING 1690
SWIDTH 818 0
DWIDTH 25 0
BBX 24 21 1 -2
BITMAP
000060
000070
000070
000020
000000
000000
000401
000603
000611
200611
400209
400219
8003FF
8003FF
8003F7
800200
C0060C
E03E0E
FFFC0E
7FF804
1FC000
ENDCHAR
STARTCHAR 069B
ENCODING 1691
SWIDTH 818 0
DWIDTH 25 0
BBX 24 19 1 -6
BITMAP
000401
000603
000611
200611
400209
400219
8003FF
8003FF
8003F7
800200
C00602
E03E27
FFFC3F
7FF879
1FC010
000004
000007
00000F
000002
ENDCHAR
STARTCHAR 069C
ENCODING 1692
SWIDTH 818 0
DWIDTH 25 0
BBX 24 29 1 -6
BITMAP
000080
0001E0
0001C0
000050
00003C
0001B8
0001C8
0001C0
000080
000000
000401
000603
000611
200611
400209
400219
8003FF
8003FF
8003F7
800200
C00602
E03E27
FFFC3F
7FF879
1FC010
000004
000007
00000F
000002
ENDCHAR
STARTCHAR 069D
ENCODING 1693
SWIDTH 1112 0
DWIDTH 34 0
BBX 33 15 1 -2
BITMAP
0004003E00
000600FF00
000601FF80
2006038380
40020E0180
4002380380
8003FFFF80
8003FFFF80
8003FFFF80
8002000000
C006004000
E03C04F000
FFFC07E000
7FF80F2000
1FC0020000
ENDCHAR
STARTCHAR 069E
ENCODING 1694
SWIDTH 1112 0
DWIDTH 34 0
BBX 33 25 1 -2
BITMAP
0000020000
0000038000
0000070000
0000014000
000000F000
000006E000
0000072000
0000070000
0000020000
0000000000
0004003E00
000600FF00
000601FF80
2006038380
40020E0180
4002380380
8003FFFF80
8003FFFF80
8003FFFF80
8002000000
C006000000
E03C000000
FFFC000000
7FF8000000
1FC0000000
ENDCHAR
STARTCHAR 069F
ENCODING 1695
SWIDTH 589 0
DWIDTH 18 0
BBX 19 20 -1 5
BITMAP
040000
070800
071E00
031C00
020500
0303C0
031380
031C80
013C00
010800
010000
010780
011FC0
017FE0
01E0E0
038060
0600E0
FFFFE0
FFFFE0
FFFFE0
ENDCHAR
STARTCHAR 06A0
ENCODING 1696
SWIDTH 556 0
DWIDTH 17 0
BBX 15 34 1 -6
BITMAP
2000
3800
7800
1400
0700
2F00
7A00
7000
1000
1C00
3F00
7F00
F000
C000
8000
8010
C070
F1F0
FFC0
7F00
3C00
3000
2000
4000
8000
8000
8000
8000
C000
E000
FC00
7FFE
3FF8
07F0
ENDCHAR
STARTCHAR 06A1
ENCODING 1697
SWIDTH 785 0
DWIDTH 24 0
BBX 23 11 1 4
BITMAP
40001C
80001E
80003E
800036
800072
800072
C0003E
F8000E
7FFFFE
3FFFFE
0FFFFE
ENDCHAR
STARTCHAR 06A2
ENCODING 1698
SWIDTH 785 0
DWIDTH 24 0
BBX 23 16 1 -1
BITMAP
40001C
80001E
80003E
800036
800072
800072
C0003E
F8000E
7FFFFE
3FFFFE
0FFFFE
000000
000008
00001E
00001C
000004
ENDCHAR
STARTCHAR 06A3
ENCODING 1699
SWIDTH 785 0
DWIDTH 24 0
BBX 23 22 1 -1
BITMAP
000010
00003C
000038
000008
000000
000000
40001C
80001E
80003E
800036
800072
800072
C0003E
F8000E
7FFFFE
3FFFFE
0FFFFE
000000
001000
001C00
003C00
000800
ENDCHAR
STARTCHAR 06A4
ENCODING 1700
SWIDTH 785 0
DWIDTH 24 0
BBX 23 21 1 4
BITMAP
000060
000070
000070
00002C
00000E
00004E
000074
0000E0
000020
000000
40001C
80001E
80003E
800036
800072
800072
C0003E
F8000E
7FFFFE
3FFFFE
0FFFFE
ENDCHAR
STARTCHAR 06A5
ENCODING 1701
SWIDTH 785 0
DWIDTH 24 0
BBX 24 21 1 -6
BITMAP
40001C
80001E
80003E
800036
800072
800072
C0003E
F8000E
7FFFFE
3FFFFE
0FFFFE
000000
000002
000027
00003F
000079
000010
000004
000007
00000F
000002
ENDCHAR
STARTCHAR 06A6
ENCODING 1702
SWIDTH 785 0
DWIDTH 24 0
BBX 23 21 1 4
BITMAP
000008
00009E
0000FC
0000E4
000044
00004E
00007E
0000E4
000020
000000
40001C
80001E
80003E
800036
800072
800072
C0003E
F8000E
7FFFFE
3FFFFE
0FFFFE
ENDCHAR
STARTCHAR 06A7
ENCODING 1703
SWIDTH 589 0
DWIDTH 18 0
BBX 17 22 1 -2
BITMAP
001000
001C00
003800
000800
000000
000000
000E00
001F00
001F00
003380
203180
403F80
403F80
401E80
800080
800080
800180
C00380
F00F00
7FFF00
3FFC00
0FF000
ENDCHAR
STARTCHAR 06A8
ENCODING 1704
SWIDTH 589 0
DWIDTH 18 0
BBX 17 25 1 -2
BITMAP
004000
007000
00F000
002800
000E00
005E00
00E400
00E000
002000
000E00
001F00
001F00
003380
203180
403F80
403F80
401E80
800080
800080
800180
C00380
F00F00
7FFF00
3FFC00
0FF000
ENDCHAR
STARTCHAR 06A9
ENCODING 1705
SWIDTH 818 0
DWIDTH 25 0
BBX 25 19 0 4
BITMAP
00000300
00000F00
00003F00
0000FC00
0001E000
00018000
00030000
00038000
0003E000
0001F000
4000F800
40001C00
40000E00
C0000700
C0000300
E0000180
7FFFFF80
7FFFFF80
1FFFFF80
ENDCHAR
STARTCHAR 06AA
ENCODING 1706
SWIDTH 818 0
DWIDTH 25 0
BBX 25 17 0 4
BITMAP
00020000
001E0000
007E0000
00F80000
01C00000
03000000
06000000
07000000
07F00000
07FF8000
41FFFC00
C00FFE00
C0001F00
E0000180
7FFFFF80
7FFFFF80
1FFFFF80
ENDCHAR
STARTCHAR 06AB
ENCODING 1707
SWIDTH 818 0
DWIDTH 25 0
BBX 25 19 0 4
BITMAP
00000300
00000F00
00003F00
0000FE00
0001FB00
00019100
00030E00
00038000
0003E000
0001F000
4000F800
40001C00
40000E00
C0000700
C0000300
E0000180
7FFFFF80
7FFFFF80
1FFFFF80
ENDCHAR
STARTCHAR 06AC
ENCODING 1708
SWIDTH 621 0
DWIDTH 19 0
BBX 18 21 1 4
BITMAP
008400
01C300
01C780
00C780
000380
002300
006100
00C100
008100
01F100
01F180
001180
403180
806180
8FC080
800080
800080
E000C0
FFFFC0
7FFFC0
3FFFC0
ENDCHAR
STARTCHAR 06AD
ENCODING 1709
SWIDTH 621 0
DWIDTH 19 0
BBX 18 23 1 4
BITMAP
020000
038000
078400
014300
007780
02E780
072380
070300
032100
006100
00C100
008100
01F180
01F180
401180
803180
806080
8FC080
800080
E000C0
FFFFC0
7FFFC0
3FFFC0
ENDCHAR
STARTCHAR 06AE
ENCODING 1710
SWIDTH 621 0
DWIDTH 19 0
BBX 18 31 1 -6
BITMAP
000400
000300
000780
000780
000380
002300
006100
00C100
008100
01F100
01F180
001180
403180
806180
8FC080
800080
800080
E000C0
FFFFC0
7FFFC0
3FFFC0
000000
002000
027000
03F000
073000
010000
004000
007000
00E000
002000
ENDCHAR
STARTCHAR 06AF
ENCODING 1711
SWIDTH 818 0
DWIDTH 25 0
BBX 25 24 0 4
BITMAP
00000100
00000700
00001F00
00003C00
0000F000
0001C300
00030F00
00023F00
0000FC00
0001E000
00018000
00030000
00038000
0003E000
0001F000
4000F800
40001C00
40000E00
C0000700
C0000300
E0000180
7FFFFF80
7FFFFF80
1FFFFF80
ENDCHAR
STARTCHAR 06B0
ENCODING 1712
SWIDTH 818 0
DWIDTH 25 0
BBX 25 24 0 4
BITMAP
00000100
00000700
00001F00
00003C00
0000F000
0001C300
00030F00
00023F00
0000FE00
0001FB00
00019100
00030E00
00038000
0003E000
0001F000
4000F800
40001C00
40000E00
C0000700
C0000300
E0000180
7FFFFF80
7FFFFF80
1FFFFF80
ENDCHAR
STARTCHAR 06B1
ENCODING 1713
SWIDTH 818 0
DWIDTH 25 0
BBX 25 24 0 4
BITMAP
00003100
0001F700
00039F00
00003C00
0000F000
0001C300
00030F00
00023F00
0000FC00
0001E000
00018000
00030000
00038000
0003E000
0001F000
4000F800
40001C00
40000E00
C0000700
C0000300
E0000180
7FFFFF80
7FFFFF80
1FFFFF80
ENDCHAR
STARTCHAR 06B2
ENCODING 1714
SWIDTH 818 0
DWIDTH 25 0
BBX 25 30 0 -2
BITMAP
00000100
00000700
00001F00
00003C00
0000F000
0001C300
00030F00
00023F00
0000FC00
0001E000
00018000
00030000
00038000
0003E000
0001F000
4000F800
40001C00
40000E00
C0000700
C0000300
E0000180
7FFFFF80
7FFFFF80
1FFFFF80
00000000
00010000
00138000
001F8000
00390000
00080000
ENDCHAR
STARTCHAR 06B3
ENCODING 1715
SWIDTH 818 0
DWIDTH 25 0
BBX 25 33 0 -5
BITMAP
00000100
00000700
00001F00
00003C00
0000F000
0001C300
00030F00
00023F00
0000FC00
0001E000
00018000
00030000
00038000
0003E000
0001F000
4000F800
40001C00
40000E00
C0000700
C0000300
E0000180
7FFFFF80
7FFFFF80
1FFFFF80
00000000
00040000
000E0000
000E0000
00040000
00040000
00070000
000E0000
00020000
ENDCHAR
STARTCHAR 06B4
ENCODING 1716
SWIDTH 818 0
DWIDTH 25 0
BBX 25 24 0 4
BITMAP
00018000
0003F300
00036F00
00033F00
00007800
0000E300
00038F00
00023F00
0000FC00
0001E000
00018000
00030000
00038000
0003E000
0001F000
4000F800
40001C00
40000E00
C0000700
C0000300
E0000180
7FFFFF80
7FFFFF80
1FFFFF80
ENDCHAR
STARTCHAR 06B5
ENCODING 1717
SWIDTH 523 0
DWIDTH 16 0
BBX 15 29 1 -1
BITMAP
006C
0028
0010
0000
0000
0018
001C
001C
000C
0008
0008
000C
000C
000C
0004
0004
2004
2004
4004
4006
8006
8006
8006
8006
C00E
E03C
7FFC
7FF8
1FE0
ENDCHAR
STARTCHAR 06B6
ENCODING 1718
SWIDTH 523 0
DWIDTH 16 0
BBX 15 29 1 -1
BITMAP
0010
001C
003C
0008
0000
0018
001C
001C
000C
0008
0008
000C
000C
000C
0004
0004
2004
2004
4004
4006
8006
8006
8006
8006
C00E
E03C
7FFC
7FF8
1FE0
ENDCHAR
STARTCHAR 06B7
ENCODING 1719
SWIDTH 523 0
DWIDTH 16 0
BBX 15 28 1 -1
BITMAP
0030
006C
006C
00E0
0018
001C
001C
000C
0008
0008
000C
000C
000C
0004
0004
2004
2004
4004
4006
8006
8006
8006
8006
C00E
E03C
7FFC
7FF8
1FE0
ENDCHAR
STARTCHAR 06B8
ENCODING 1720
SWIDTH 523 0
DWIDTH 16 0
BBX 15 32 1 -7
BITMAP
0010
0018
001C
001C
000C
0008
0008
000C
000C
000C
0004
0004
2004
2004
4004
4006
8006
8006
8006
8006
C00E
E03C
7FFC
7FF8
1FE0
0000
00C0
04E0
0E40
0680
01C0
00C0
ENDCHAR
STARTCHAR 06B9
ENCODING 1721
SWIDTH 523 0
DWIDTH 16 0
BBX 15 24 1 -6
BITMAP
0100
01C0
0380
0080
0000
0004
0006
0006
2006
4002
4002
4002
8002
8002
8002
C00E
E03E
FFFC
7FF8
1FE0
0100
01C0
0380
0080
ENDCHAR
STARTCHAR 06BA
ENCODING 1722
SWIDTH 523 0
DWIDTH 16 0
BBX 15 15 1 -2
BITMAP
0004
0006
0006
2006
4002
4002
4002
8002
8002
8002
C00E
E03E
FFFC
7FF8
1FE0
ENDCHAR
STARTCHAR 06BB
ENCODING 1723
SWIDTH 523 0
DWIDTH 16 0
BBX 15 27 1 -2
BITMAP
0400
0200
0200
0200
0200
0200
0200
02F0
0310
1FF0
0000
0000
0004
0006
0006
2006
4002
4002
4002
8002
8002
8002
C00E
E03E
FFFC
7FF8
1FE0
ENDCHAR
STARTCHAR 06BC
ENCODING 1724
SWIDTH 523 0
DWIDTH 16 0
BBX 15 23 1 -5
BITMAP
0100
01C0
0380
0080
0000
0004
0006
0006
2006
4002
4002
4002
8002
8002
8002
C00E
E03E
FFFC
7FF8
1FE0
0480
0480
0300
ENDCHAR
STARTCHAR 06BD
ENCODING 1725
SWIDTH 523 0
DWIDTH 16 0
BBX 15 25 1 -2
BITMAP
0400
0700
0F00
0280
00E0
05E0
0F40
0E00
0200
0000
0004
0006
0006
2006
4002
4002
4002
8002
8002
8002
C00E
E03E
FFFC
7FF8
1FE0
ENDCHAR
STARTCHAR 06BE
ENCODING 1726
SWIDTH 458 0
DWIDTH 14 0
BBX 13 13 -1 4
BITMAP
0200
0700
0700
0780
07C0
09E0
10F0
19B0
1F98
0F98
FFF8
FDF8
F070
ENDCHAR
STARTCHAR 06BF
ENCODING 1727
SWIDTH 556 0
DWIDTH 17 0
BBX 15 27 1 -6
BITMAP
0100
0380
0380
0100
0000
0000
0000
0000
3FFC
7FFC
7FFC
03E0
0E00
1800
2040
4270
87F0
8720
8100
8040
80E0
C0E0
F060
7E00
3FFE
1FF8
03F0
ENDCHAR
STARTCHAR 06C0
ENCODING 1728
SWIDTH 294 0
DWIDTH 9 0
BBX 7 15 1 4
BITMAP
18
20
38
60
00
20
38
7C
7E
4E
82
C6
FE
FC
78
ENDCHAR
STARTCHAR 06C1
ENCODING 1729
SWIDTH 392 0
DWIDTH 12 0
BBX 12 8 0 2
BITMAP
0700
0F80
1FC0
31F0
20F0
6070
4000
8000
ENDCHAR
STARTCHAR 06C2
ENCODING 1730
SWIDTH 392 0
DWIDTH 12 0
BBX 12 14 0 2
BITMAP
0600
0800
0600
0800
0000
0000
0700
0F80
1FC0
31F0
20F0
6070
4000
8000
ENDCHAR
STARTCHAR 06C3
ENCODING 1731
SWIDTH 392 0
DWIDTH 12 0
BBX 12 16 0 2
BITMAP
0200
1380
3F00
3900
1000
0000
0000
0000
0700
0F80
1FC0
31F0
20F0
6070
4000
8000
ENDCHAR
STARTCHAR 06C4
ENCODING 1732
SWIDTH 425 0
DWIDTH 13 0
BBX 12 15 1 -3
BITMAP
0060
00F0
00F0
0190
0190
01F0
00F0
0070
0010
0330
05F0
08E0
87C0
7F80
1F00
ENDCHAR
STARTCHAR 06C5
ENCODING 1733
SWIDTH 425 0
DWIDTH 13 0
BBX 12 15 1 -3
BITMAP
0060
00F0
00F0
0190
0190
01F0
00F0
0070
0F10
01F0
0070
00E0
83C0
7F80
1F00
ENDCHAR
STARTCHAR 06C6
ENCODING 1734
SWIDTH 425 0
DWIDTH 13 0
BBX 12 21 1 -3
BITMAP
0090
0060
0060
0000
0000
0000
0060
00F0
00F0
0190
0190
01F0
00F0
0070
0010
0030
0070
00E0
83C0
7F80
1F00
ENDCHAR
STARTCHAR 06C7
ENCODING 1735
SWIDTH 425 0
DWIDTH 13 0
BBX 12 24 1 -3
BITMAP
0020
0070
0060
0060
0050
00C0
0180
0000
0000
0060
00F0
00F0
0190
0190
01F0
00F0
0070
0010
0030
0070
00E0
83C0
7F80
1F00
ENDCHAR
STARTCHAR 06C8
ENCODING 1736
SWIDTH 425 0
DWIDTH 13 0
BBX 12 25 1 -2
BITMAP
0080
0040
0040
0040
0040
0040
0040
0040
0000
0000
0060
00F0
00F0
0190
0190
01F0
00F0
0070
0010
0030
0070
00E0
83C0
7F80
1F00
ENDCHAR
STARTCHAR 06C9
ENCODING 1737
SWIDTH 425 0
DWIDTH 13 0
BBX 12 21 1 -3
BITMAP
0060
0060
0090
0000
0000
0000
0060
00F0
00F0
0190
0190
01F0
00F0
0070
0010
0030
0070
00E0
83C0
7F80
1F00
ENDCHAR
STARTCHAR 06CA
ENCODING 1738
SWIDTH 425 0
DWIDTH 13 0
BBX 12 23 1 -3
BITMAP
0020
0270
03F0
0730
0100
0000
0000
0000
0060
00F0
00F0
0190
0190
01F0
00F0
0070
0010
0030
0070
00E0
83C0
7F80
1F00
ENDCHAR
STARTCHAR 06CB
ENCODING 1739
SWIDTH 425 0
DWIDTH 13 0
BBX 13 26 1 -3
BITMAP
0100
03C0
0380
00A0
0078
0270
0390
0780
0100
0000
0000
0060
00F0
00F0
0190
0190
01F0
00F0
0070
0010
0030
0070
00E0
83C0
7F80
1F00
ENDCHAR
STARTCHAR 06CC
ENCODING 1740
SWIDTH 654 0
DWIDTH 20 0
BBX 18 16 1 -1
BITMAP
000380
0007C0
000FC0
0018C0
001040
202000
402000
402000
803F80
803F80
803F80
800100
E01F00
FFFE00
7FF800
3FC000
ENDCHAR
STARTCHAR 06CD
ENCODING 1741
SWIDTH 654 0
DWIDTH 20 0
BBX 20 16 -1 -1
BITMAP
0000E0
0001F0
0003F0
000630
000410
180800
700800
900800
200FE0
200FE0
200FE0
200040
3807C0
3FFF80
1FFE00
0FF000
ENDCHAR
STARTCHAR 06CE
ENCODING 1742
SWIDTH 654 0
DWIDTH 20 0
BBX 18 17 1 -1
BITMAP
048000
030380
0307C0
000FC0
0018C0
001040
202000
402000
402000
803F80
803F80
803F80
800100
E01F00
FFFE00
7FF800
3FC000
ENDCHAR
STARTCHAR 06CF
ENCODING 1743
SWIDTH 425 0
DWIDTH 13 0
BBX 12 22 1 -3
BITMAP
0180
01C0
01C0
0080
0000
0000
0000
0060
00F0
00F0
0190
0190
01F0
00F0
0070
0010
0030
0070
00E0
83C0
7F80
1F00
ENDCHAR
STARTCHAR 06D0
ENCODING 1744
SWIDTH 654 0
DWIDTH 20 0
BBX 18 21 1 -6
BITMAP
000380
0007C0
000FC0
0018C0
001040
202000
402000
402000
803F80
803F80
803F80
800100
E01F00
FFFE00
7FF800
3FC000
000000
000000
030000
000000
010000
ENDCHAR
STARTCHAR 06D1
ENCODING 1745
SWIDTH 654 0
DWIDTH 20 0
BBX 18 21 1 -6
BITMAP
000380
0007C0
000FC0
0018C0
001040
202000
402000
402000
803F80
803F80
803F80
800100
E01F00
FFFE00
7FF800
3FC000
000000
000000
00C000
030000
00C000
ENDCHAR
STARTCHAR 06D2
ENCODING 1746
SWIDTH 818 0
DWIDTH 25 0
BBX 24 13 1 -1
BITMAP
003000
007800
00F800
018800
078000
0F0000
3E0000
780000
600000
800000
FFFFFF
FFFFFC
FFFFF8
ENDCHAR
STARTCHAR 06D3
ENCODING 1747
SWIDTH 818 0
DWIDTH 25 0
BBX 24 16 1 -1
BITMAP
030000
040000
038000
043000
007800
00F800
018800
078000
0F0000
3E0000
780000
600000
800000
FFFFFF
FFFFFC
FFFFF8
ENDCHAR
STARTCHAR 06D4
ENCODING 1748
SWIDTH 196 0
DWIDTH 6 0
BBX 5 3 1 4
BITMAP
F8
F8
F8
ENDCHAR
STARTCHAR 06D5
ENCODING 1749
SWIDTH 294 0
DWIDTH 9 0
BBX 7 10 1 4
BITMAP
20
38
7C
7E
4E
82
C6
FE
FC
78
ENDCHAR
STARTCHAR 06D6
ENCODING 1750
SWIDTH 0 0
DWIDTH 0 0
BBX 14 11 -7 16
BITMAP
1000
0800
0800
0800
081C
0A24
3FFC
4000
8000
8000
FFE0
ENDCHAR
STARTCHAR 06D7
ENCODING 1751
SWIDTH 0 0
DWIDTH 0 0
BBX 11 11 -5 16
BITMAP
1080
1A80
0A00
0980
0A80
0B80
0840
3FC0
4000
8000
FFE0
ENDCHAR
STARTCHAR 06D8
ENCODING 1752
SWIDTH 0 0
DWIDTH 0 0
BBX 6 4 -3 16
BITMAP
08
14
34
FC
ENDCHAR
STARTCHAR 06D9
ENCODING 1753
SWIDTH 0 0
DWIDTH 0 0
BBX 6 9 -3 16
BITMAP
84
C4
C4
24
18
08
08
38
38
ENDCHAR
STARTCHAR 06DA
ENCODING 1754
SWIDTH 0 0
DWIDTH 0 0
BBX 7 9 -4 16
BITMAP
7E
18
60
80
88
88
80
60
3E
ENDCHAR
STARTCHAR 06DB
ENCODING 1755
SWIDTH 0 0
DWIDTH 0 0
BBX 2 4 -1 16
BITMAP
80
C0
C0
80
ENDCHAR
STARTCHAR 06DC
ENCODING 1756
SWIDTH 0 0
DWIDTH 0 0
BBX 12 6 -6 17
BITMAP
0250
0250
81F0
8200
8200
7C00
ENDCHAR
STARTCHAR 06DD
ENCODING 1757
SWIDTH 1145 0
DWIDTH 35 0
BBX 33 33 1 -6
BITMAP
0007F00000
003FFE0000
03F80FC000
02C0032000
047FFF2000
06FFFF2000
0F8000F800
1C00001C00
3800000C00
3000000600
6000000300
6000000300
C000000100
C000000180
C000000180
8000000180
8000000180
8000000180
C000000180
C000000180
C000000100
6000000300
6000000300
3000000600
3800000C00
1C00001C00
0F8000F800
06FFFF2000
047FFF2000
02C0032000
03F80FC000
003FFE0000
0007F00000
ENDCHAR
STARTCHAR 06DE
ENCODING 1758
SWIDTH 1112 0
DWIDTH 34 0
BBX 31 32 1 -5
BITMAP
00010000
00038000
00064000
00042000
00083000
0FFFFFE0
0C600420
0CC00220
0D800120
0F0000A0
0E000060
0C000020
1C000030
3C03C028
6C046024
CC042022
CC042022
6C046024
3C03C028
1C000030
0C000020
0E000060
0F0000A0
0D800120
0CC00220
0C600420
0FFFFFE0
00083000
00042000
00064000
00038000
00010000
ENDCHAR
STARTCHAR 06DF
ENCODING 1759
SWIDTH 0 0
DWIDTH 0 0
BBX 2 2 -1 16
BITMAP
C0
C0
ENDCHAR
STARTCHAR 06E0
ENCODING 1760
SWIDTH 0 0
DWIDTH 0 0
BBX 2 2 -1 16
BITMAP
C0
C0
ENDCHAR
STARTCHAR 06E1
ENCODING 1761
SWIDTH 0 0
DWIDTH 0 0
BBX 8 3 -4 16
BITMAP
38
06
FF
ENDCHAR
STARTCHAR 06E2
ENCODING 1762
SWIDTH 0 0
DWIDTH 0 0
BBX 4 7 -2 16
BITMAP
60
90
70
80
80
80
80
ENDCHAR
STARTCHAR 06E3
ENCODING 1763
SWIDTH 0 0
DWIDTH 0 0
BBX 12 6 -6 -5
BITMAP
0250
0250
81F0
8200
8200
7C00
ENDCHAR
STARTCHAR 06E4
ENCODING 1764
SWIDTH 0 0
DWIDTH 0 0
BBX 2 1 -1 16
BITMAP
C0
ENDCHAR
STARTCHAR 06E5
ENCODING 1765
SWIDTH 196 0
DWIDTH 6 0
BBX 5 6 1 16
BITMAP
18
28
18
08
10
E0
ENDCHAR
STARTCHAR 06E6
ENCODING 1766
SWIDTH 360 0
DWIDTH 11 0
BBX 11 6 0 16
BITMAP
0400
1800
3000
4000
8000
FFE0
ENDCHAR
STARTCHAR 06E7
ENCODING 1767
SWIDTH 0 0
DWIDTH 0 0
BBX 11 6 -6 16
BITMAP
0400
0800
1000
6000
8000
FFE0
ENDCHAR
STARTCHAR 06E8
ENCODING 1768
SWIDTH 0 0
DWIDTH 0 0
BBX 8 9 -4 16
BITMAP
08
08
00
43
81
81
81
C2
7C
ENDCHAR
STARTCHAR 06E9
ENCODING 1769
SWIDTH 621 0
DWIDTH 19 0
BBX 17 25 1 0
BITMAP
008000
014000
022000
049000
094800
12A400
255200
4A2900
942580
5A2900
2A5200
165400
165800
165800
165800
165800
165800
165800
165800
165800
17D800
141400
27F200
400300
FFFF00
ENDCHAR
STARTCHAR 06EA
ENCODING 1770
SWIDTH 0 0
DWIDTH 0 0
BBX 6 5 -3 -5
BITMAP
20
48
84
48
30
ENDCHAR
STARTCHAR 06EB
ENCODING 1771
SWIDTH 0 0
DWIDTH 0 0
BBX 6 5 -3 16
BITMAP
20
48
84
48
30
ENDCHAR
STARTCHAR 06EC
ENCODING 1772
SWIDTH 0 0
DWIDTH 0 0
BBX 2 2 -1 16
BITMAP
C0
C0
ENDCHAR
STARTCHAR 06ED
ENCODING 1773
SWIDTH 0 0
DWIDTH 0 0
BBX 4 7 -2 -6
BITMAP
60
90
70
80
80
80
80
ENDCHAR
STARTCHAR 06F0
ENCODING 1776
SWIDTH 523 0
DWIDTH 16 0
BBX 4 7 6 7
BITMAP
40
60
F0
F0
F0
70
10
ENDCHAR
STARTCHAR 06F1
ENCODING 1777
SWIDTH 523 0
DWIDTH 16 0
BBX 5 18 5 4
BITMAP
80
C0
E0
E0
70
70
38
38
18
18
18
08
08
08
08
08
08
08
ENDCHAR
STARTCHAR 06F2
ENCODING 1778
SWIDTH 523 0
DWIDTH 16 0
BBX 9 18 3 4
BITMAP
8080
C080
F180
FF80
7F80
3F00
3800
1C00
1C00
0C00
0C00
0C00
0400
0400
0400
0400
0400
0400
ENDCHAR
STARTCHAR 06F3
ENCODING 1779
SWIDTH 523 0
DWIDTH 16 0
BBX 13 18 2 4
BITMAP
0108
4198
E1F8
FFF0
FEE0
7C00
3000
3800
1800
1800
0C00
0C00
0C00
0C00
0C00
0400
0800
0800
ENDCHAR
STARTCHAR 06F4
ENCODING 1780
SWIDTH 523 0
DWIDTH 16 0
BBX 11 18 3 4
BITMAP
8380
8440
C800
E820
F860
FFC0
7FC0
7F80
3000
3800
1800
1800
1800
1800
1800
1800
1000
1000
ENDCHAR
STARTCHAR 06F5
ENCODING 1781
SWIDTH 523 0
DWIDTH 16 0
BBX 12 18 2 4
BITMAP
0400
0600
0700
0700
0380
05C0
09C0
10E0
1060
2060
6020
6030
4010
E010
E220
FFE0
7FC0
3D80
ENDCHAR
STARTCHAR 06F6
ENCODING 1782
SWIDTH 523 0
DWIDTH 16 0
BBX 10 18 3 4
BITMAP
0E00
1F80
2000
4000
4040
E0C0
FFC0
FF80
7E00
0C00
0C00
1800
1000
1000
3000
2000
2000
2000
ENDCHAR
STARTCHAR 06F7
ENCODING 1783
SWIDTH 523 0
DWIDTH 16 0
BBX 12 18 2 4
BITMAP
8000
C010
C010
E030
E030
F070
F060
7840
3880
1880
0D00
0D00
0500
0600
0600
0200
0200
0200
ENDCHAR
STARTCHAR 06F8
ENCODING 1784
SWIDTH 523 0
DWIDTH 16 0
BBX 13 17 2 5
BITMAP
0200
0600
0600
0A00
0B00
0B00
0980
0980
11C0
30E0
30F0
6078
E078
C030
C030
8010
8000
ENDCHAR
STARTCHAR 06F9
ENCODING 1785
SWIDTH 523 0
DWIDTH 16 0
BBX 10 18 3 4
BITMAP
1E00
3E00
7F00
6300
4300
C300
FF00
7F00
3F00
0300
0300
0100
0180
0180
0180
01C0
0180
0080
ENDCHAR
STARTCHAR 06FA
ENCODING 1786
SWIDTH 818 0
DWIDTH 25 0
BBX 24 25 1 -2
BITMAP
000080
0001E0
0001C0
000050
00003C
0001B8
0001C8
0001C0
000080
000000
000401
000603
000611
200611
400209
400219
8003FF
8003FF
8003F7
800200
C0060C
E03E0E
FFFC0E
7FF804
1FC000
ENDCHAR
STARTCHAR 06FB
ENCODING 1787
SWIDTH 1112 0
DWIDTH 34 0
BBX 33 21 1 -2
BITMAP
0000080000
00000E0000
00001E0000
0000040000
0000000000
0000000000
0004003E00
000600FF00
000601FF80
2006038380
40020E0180
4002380380
8003FFFF80
8003FFFF80
8003FFFF80
8002000000
C006010000
E03C01C000
FFFC038000
7FF8008000
1FC0000000
ENDCHAR
STARTCHAR 06FC
ENCODING 1788
SWIDTH 556 0
DWIDTH 17 0
BBX 15 32 1 -6
BITMAP
0800
1E00
1C00
0C00
0000
0000
0000
1C00
3F00
7F00
F000
C000
8000
8010
C070
F1F0
FFC0
7F00
3C00
3000
2000
4080
80E0
81E0
8040
8000
C000
E000
FC00
7FFE
3FF8
07F0
ENDCHAR
STARTCHAR 06FD
ENCODING 1789
SWIDTH 425 0
DWIDTH 13 0
BBX 9 18 2 -5
BITMAP
1C00
3E00
7E00
4200
C080
F380
FF80
FE00
3800
2000
4000
0000
1200
1200
1200
1200
1200
1200
ENDCHAR
STARTCHAR 06FE
ENCODING 1790
SWIDTH 327 0
DWIDTH 10 0
BBX 9 17 1 -6
BITMAP
1C00
1E00
3F00
2780
0380
1F80
7F80
FF80
E000
8000
8000
8900
8900
C900
4900
4900
4900
ENDCHAR
STARTCHAR 1E80
ENCODING 7808
SWIDTH 949 0
DWIDTH 29 0
BBX 28 28 1 0
BITMAP
001C0000
001E0000
000E0000
00070000
00000000
00000000
E00F0070
E01F0070
E01F00E0
E01B00E0
601B80E0
703B80C0
703981C0
7031C1C0
3071C1C0
3870C180
3860C380
3860E380
18E0E300
1CE06300
1CC07700
0CC07700
0DC07600
0DC03600
0F803E00
07803E00
07801C00
07001C00
ENDCHAR
STARTCHAR 1E81
ENCODING 7809
SWIDTH 720 0
DWIDTH 22 0
BBX 22 22 0 0
BITMAP
01E000
00E000
007000
003000
000000
000000
E0381C
60781C
707818
707C38
707C38
30EC30
38CC30
38CE70
19CE60
1DC660
1D86E0
0D87E0
0F87C0
0F83C0
0703C0
070380
ENDCHAR
STARTCHAR 1E82
ENCODING 7810
SWIDTH 949 0
DWIDTH 29 0
BBX 28 28 1 0
BITMAP
00038000
00078000
00070000
000E0000
00000000
00000000
E00F0070
E01F0070
E01F00E0
E01B00E0
601B80E0
703B80C0
703981C0
7031C1C0
3071C1C0
3870C180
3860C380
3860E380
18E0E300
1CE06300
1CC07700
0CC07700
0DC07600
0DC03600
0F803E00
07803E00
07801C00
07001C00
ENDCHAR
STARTCHAR 1E83
ENCODING 7811
SWIDTH 720 0
DWIDTH 22 0
BBX 22 22 0 0
BITMAP
001C00
003800
003000
006000
000000
000000
E0381C
60781C
707818
707C38
707C38
30EC30
38CC30
38CE70
19CE60
1DC660
1D86E0
0D87E0
0F87C0
0F83C0
0703C0
070380
ENDCHAR
STARTCHAR 1E84
ENCODING 7812
SWIDTH 949 0
DWIDTH 29 0
BBX 28 27 1 0
BITMAP
0071C000
0071C000
0071C000
00000000
00000000
E00F0070
E01F0070
E01F00E0
E01B00E0
601B80E0
703B80C0
703981C0
7031C1C0
3071C1C0
3870C180
3860C380
3860E380
18E0E300
1CE06300
1CC07700
0CC07700
0DC07600
0DC03600
0F803E00
07803E00
07801C00
07001C00
ENDCHAR
STARTCHAR 1E85
ENCODING 7813
SWIDTH 720 0
DWIDTH 22 0
BBX 22 21 0 0
BITMAP
01C700
01C700
01C700
000000
000000
E0381C
60781C
707818
707C38
707C38
30EC30
38CC30
38CE70
19CE60
1DC660
1D86E0
0D87E0
0F87C0
0F83C0
0703C0
070380
ENDCHAR
STARTCHAR 1EA0
ENCODING 7840
SWIDTH 687 0
DWIDTH 21 0
BBX 21 27 0 -5
BITMAP
00F000
00F000
01F800
01F800
019800
039C00
039C00
030E00
070E00
060700
0E0700
0E0300
0FFF80
1FFF80
1FFFC0
3801C0
3801C0
3800E0
7000E0
7000F0
700070
E00078
000000
000000
007000
007000
007000
ENDCHAR
STARTCHAR 1EA1
ENCODING 7841
SWIDTH 556 0
DWIDTH 17 0
BBX 15 21 1 -5
BITMAP
0FE0
3FF8
3FFC
703C
601C
001C
007C
1FFC
3F9C
701C
E01C
E03C
F07C
7FFC
7FEC
1F8E
0000
0000
0380
0380
0380
ENDCHAR
STARTCHAR 1EA2
ENCODING 7842
SWIDTH 687 0
DWIDTH 21 0
BBX 21 28 0 0
BITMAP
01F000
001800
001C00
007800
006000
000000
00F000
00F000
01F800
01F800
019800
039C00
039C00
030E00
070E00
060700
0E0700
0E0300
0FFF80
1FFF80
1FFFC0
3801C0
3801C0
3800E0
7000E0
7000F0
700070
E00078
ENDCHAR
STARTCHAR 1EA3
ENCODING 7843
SWIDTH 556 0
DWIDTH 17 0
BBX 15 24 1 0
BITMAP
07C0
00E0
0060
00E0
01C0
0180
0000
0000
0FE0
3FF8
3FFC
703C
601C
001C
007C
1FFC
3F9C
701C
E01C
E03C
F07C
7FFC
7FEC
1F8E
ENDCHAR
STARTCHAR 1EA4
ENCODING 7844
SWIDTH 687 0
DWIDTH 21 0
BBX 21 28 0 0
BITMAP
003800
006000
000000
00F000
039C00
000000
00F000
00F000
01F800
01F800
019800
039C00
039C00
030E00
070E00
060700
0E0700
0E0300
0FFF80
1FFF80
1FFFC0
3801C0
3801C0
3800E0
7000E0
7000F0
700070
E00078
ENDCHAR
STARTCHAR 1EA5
ENCODING 7845
SWIDTH 556 0
DWIDTH 17 0
BBX 15 28 1 0
BITMAP
00E0
01C0
01C0
0380
0000
0000
0380
07C0
0EE0
1C70
0000
0000
0FE0
3FF8
3FFC
703C
601C
001C
007C
1FFC
3F9C
701C
E01C
E03C
F07C
7FFC
7FEC
1F8E
ENDCHAR
STARTCHAR 1EA6
ENCODING 7846
SWIDTH 687 0
DWIDTH 21 0
BBX 21 28 0 0
BITMAP
01C000
006000
000000
00F000
039C00
000000
00F000
00F000
01F800
01F800
019800
039C00
039C00
030E00
070E00
060700
0E0700
0E0300
0FFF80
1FFF80
1FFFC0
3801C0
3801C0
3800E0
7000E0
7000F0
700070
E00078
ENDCHAR
STARTCHAR 1EA7
ENCODING 7847
SWIDTH 556 0
DWIDTH 17 0
BBX 15 28 1 0
BITMAP
0E00
0700
0700
0380
0000
0000
0380
07C0
0EE0
1C70
0000
0000
0FE0
3FF8
3FFC
703C
601C
001C
007C
1FFC
3F9C
701C
E01C
E03C
F07C
7FFC
7FEC
1F8E
ENDCHAR
STARTCHAR 1EA8
ENCODING 7848
SWIDTH 687 0
DWIDTH 21 0
BBX 21 28 0 0
BITMAP
01F000
001800
007800
00F000
039C00
000000
00F000
00F000
01F800
01F800
019800
039C00
039C00
030E00
070E00
060700
0E0700
0E0300
0FFF80
1FFF80
1FFFC0
3801C0
3801C0
3800E0
7000E0
7000F0
700070
E00078
ENDCHAR
STARTCHAR 1EA9
ENCODING 7849
SWIDTH 556 0
DWIDTH 17 0
BBX 15 28 1 0
BITMAP
07C0
00E0
00E0
01C0
0100
0000
0380
07C0
0EE0
1C70
0000
0000
0FE0
3FF8
3FFC
703C
601C
001C
007C
1FFC
3F9C
701C
E01C
E03C
F07C
7FFC
7FEC
1F8E
ENDCHAR
STARTCHAR 1EAA
ENCODING 7850
SWIDTH 687 0
DWIDTH 21 0
BBX 21 28 0 0
BITMAP
03C200
063C00
000000
00F000
039C00
000000
00F000
00F000
01F800
01F800
019800
039C00
039C00
030E00
070E00
060700
0E0700
0E0300
0FFF80
1FFF80
1FFFC0
3801C0
3801C0
3800E0
7000E0
7000F0
700070
E00078
ENDCHAR
STARTCHAR 1EAB
ENCODING 7851
SWIDTH 556 0
DWIDTH 17 0
BBX 15 27 1 0
BITMAP
0F38
1FF0
39F0
0000
0000
0380
07C0
0EE0
1C70
0000
0000
0FE0
3FF8
3FFC
703C
601C
001C
007C
1FFC
3F9C
701C
E01C
E03C
F07C
7FFC
7FEC
1F8E
ENDCHAR
STARTCHAR 1EAC
ENCODING 7852
SWIDTH 687 0
DWIDTH 21 0
BBX 21 30 0 -5
BITMAP
00F000
039C00
000000
00F000
00F000
01F800
01F800
019800
039C00
039C00
030E00
070E00
060700
0E0700
0E0300
0FFF80
1FFF80
1FFFC0
3801C0
3801C0
3800E0
7000E0
7000F0
700070
E00078
000000
000000
007000
007000
007000
ENDCHAR
STARTCHAR 1EAD
ENCODING 7853
SWIDTH 556 0
DWIDTH 17 0
BBX 15 27 1 -5
BITMAP
0380
07C0
0EE0
1C70
0000
0000
0FE0
3FF8
3FFC
703C
601C
001C
007C
1FFC
3F9C
701C
E01C
E03C
F07C
7FFC
7FEC
1F8E
0000
0000
0380
0380
0380
ENDCHAR
STARTCHAR 1EAE
ENCODING 7854
SWIDTH 687 0
DWIDTH 21 0
BBX 21 28 0 0
BITMAP
003800
006000
000000
030400
01F800
000000
00F000
00F000
01F800
01F800
019800
039C00
039C00
030E00
070E00
060700
0E0700
0E0300
0FFF80
1FFF80
1FFFC0
3801C0
3801C0
3800E0
7000E0
7000F0
700070
E00078
ENDCHAR
STARTCHAR 1EAF
ENCODING 7855
SWIDTH 556 0
DWIDTH 17 0
BBX 15 28 1 0
BITMAP
00E0
01C0
0180
0380
0000
0000
1830
0C30
0FE0
03C0
0000
0000
0FE0
3FF8
3FFC
703C
601C
001C
007C
1FFC
3F9C
701C
E01C
E03C
F07C
7FFC
7FEC
1F8E
ENDCHAR
STARTCHAR 1EB0
ENCODING 7856
SWIDTH 687 0
DWIDTH 21 0
BBX 21 28 0 0
BITMAP
01C000
006000
000000
030400
01F800
000000
00F000
00F000
01F800
01F800
019800
039C00
039C00
030E00
070E00
060700
0E0700
0E0300
0FFF80
1FFF80
1FFFC0
3801C0
3801C0
3800E0
7000E0
7000F0
700070
E00078
ENDCHAR
STARTCHAR 1EB1
ENCODING 7857
SWIDTH 556 0
DWIDTH 17 0
BBX 15 28 1 0
BITMAP
0F00
0700
0380
0180
0000
0000
1830
0C30
0FE0
03C0
0000
0000
0FE0
3FF8
3FFC
703C
601C
001C
007C
1FFC
3F9C
701C
E01C
E03C
F07C
7FFC
7FEC
1F8E
ENDCHAR
STARTCHAR 1EB2
ENCODING 7858
SWIDTH 687 0
DWIDTH 21 0
BBX 21 28 0 0
BITMAP
01F000
001800
007800
030400
01F800
000000
00F000
00F000
01F800
01F800
019800
039C00
039C00
030E00
070E00
060700
0E0700
0E0300
0FFF80
1FFF80
1FFFC0
3801C0
3801C0
3800E0
7000E0
7000F0
700070
E00078
ENDCHAR
STARTCHAR 1EB3
ENCODING 7859
SWIDTH 556 0
DWIDTH 17 0
BBX 15 28 1 0
BITMAP
07C0
0060
0060
01E0
0180
0000
1830
0C30
0FE0
03C0
0000
0000
0FE0
3FF8
3FFC
703C
601C
001C
007C
1FFC
3F9C
701C
E01C
E03C
F07C
7FFC
7FEC
1F8E
ENDCHAR
STARTCHAR 1EB4
ENCODING 7860
SWIDTH 687 0
DWIDTH 21 0
BBX 21 28 0 0
BITMAP
03E200
063E00
000000
030400
01F800
000000
00F000
00F000
01F800
01F800
019800
039C00
039C00
030E00
070E00
060700
0E0700
0E0300
0FFF80
1FFF80
1FFFC0
3801C0
3801C0
3800E0
7000E0
7000F0
700070
E00078
ENDCHAR
STARTCHAR 1EB5
ENCODING 7861
SWIDTH 556 0
DWIDTH 17 0
BBX 15 27 1 0
BITMAP
0F18
1FF8
18F0
0000
0000
1830
0C30
0FE0
03C0
0000
0000
0FE0
3FF8
3FFC
703C
601C
001C
007C
1FFC
3F9C
701C
E01C
E03C
F07C
7FFC
7FEC
1F8E
ENDCHAR
STARTCHAR 1EB6
ENCODING 7862
SWIDTH 687 0
DWIDTH 21 0
BBX 21 30 0 -5
BITMAP
030400
01F800
000000
00F000
00F000
01F800
01F800
019800
039C00
039C00
030E00
070E00
060700
0E0700
0E0300
0FFF80
1FFF80
1FFFC0
3801C0
3801C0
3800E0
7000E0
7000F0
700070
E00078
000000
000000
007000
007000
007000
ENDCHAR
STARTCHAR 1EB7
ENCODING 7863
SWIDTH 556 0
DWIDTH 17 0
BBX 15 27 1 -5
BITMAP
1830
0C30
0FE0
03C0
0000
0000
0FE0
3FF8
3FFC
703C
601C
001C
007C
1FFC
3F9C
701C
E01C
E03C
F07C
7FFC
7FEC
1F8E
0000
0000
0380
0380
0380
ENDCHAR
STARTCHAR 1EB8
ENCODING 7864
SWIDTH 687 0
DWIDTH 21 0
BBX 17 27 2 -5
BITMAP
FFFF80
FFFF80
FFFF80
E00000
E00000
E00000
E00000
E00000
E00000
FFFF00
FFFF00
FFFF00
E00000
E00000
E00000
E00000
E00000
E00000
E00000
FFFF80
FFFF80
FFFF80
000000
000000
01C000
01C000
01C000
ENDCHAR
STARTCHAR 1EB9
ENCODING 7865
SWIDTH 556 0
DWIDTH 17 0
BBX 15 21 1 -5
BITMAP
07C0
1FF0
3FF8
783C
701C
E00E
E00E
FFFE
FFFE
E000
E000
700E
783C
3FFC
1FF8
07E0
0000
0000
0380
0380
0380
ENDCHAR
STARTCHAR 1EBA
ENCODING 7866
SWIDTH 687 0
DWIDTH 21 0
BBX 17 28 2 0
BITMAP
03E000
007000
007000
00E000
00C000
000000
FFFF80
FFFF80
FFFF80
E00000
E00000
E00000
E00000
E00000
E00000
FFFF00
FFFF00
FFFF00
E00000
E00000
E00000
E00000
E00000
E00000
E00000
FFFF80
FFFF80
FFFF80
ENDCHAR
STARTCHAR 1EBB
ENCODING 7867
SWIDTH 556 0
DWIDTH 17 0
BBX 15 24 1 0
BITMAP
07C0
00E0
0060
00E0
01C0
0180
0000
0000
07C0
1FF0
3FF8
783C
701C
E00E
E00E
FFFE
FFFE
E000
E000
700E
783C
3FFC
1FF8
07E0
ENDCHAR
STARTCHAR 1EBC
ENCODING 7868
SWIDTH 687 0
DWIDTH 21 0
BBX 17 28 2 0
BITMAP
078C00
0FFC00
0FF800
0C7800
000000
000000
FFFF80
FFFF80
FFFF80
E00000
E00000
E00000
E00000
E00000
E00000
FFFF00
FFFF00
FFFF00
E00000
E00000
E00000
E00000
E00000
E00000
E00000
FFFF80
FFFF80
FFFF80
ENDCHAR
STARTCHAR 1EBD
ENCODING 7869
SWIDTH 556 0
DWIDTH 17 0
BBX 15 22 1 0
BITMAP
0F18
1FF8
1FF0
18E0
0000
0000
07C0
1FF0
3FF8
783C
701C
E00E
E00E
FFFE
FFFE
E000
E000
700E
783C
3FFC
1FF8
07E0
ENDCHAR
STARTCHAR 1EBE
ENCODING 7870
SWIDTH 687 0
DWIDTH 21 0
BBX 17 28 2 0
BITMAP
00F000
01C000
000000
03E000
063000
000000
FFFF80
FFFF80
FFFF80
E00000
E00000
E00000
E00000
E00000
E00000
FFFF00
FFFF00
FFFF00
E00000
E00000
E00000
E00000
E00000
E00000
E00000
FFFF80
FFFF80
FFFF80
ENDCHAR
STARTCHAR 1EBF
ENCODING 7871
SWIDTH 556 0
DWIDTH 17 0
BBX 15 28 1 0
BITMAP
00E0
01C0
01C0
0380
0000
0000
0380
07C0
0EE0
1C70
0000
0000
07C0
1FF0
3FF8
783C
701C
E00E
E00E
FFFE
FFFE
E000
E000
700E
783C
3FFC
1FF8
07E0
ENDCHAR
STARTCHAR 1EC0
ENCODING 7872
SWIDTH 687 0
DWIDTH 21 0
BBX 17 28 2 0
BITMAP
070000
018000
000000
03E000
063000
000000
FFFF80
FFFF80
FFFF80
E00000
E00000
E00000
E00000
E00000
E00000
FFFF00
FFFF00
FFFF00
E00000
E00000
E00000
E00000
E00000
E00000
E00000
FFFF80
FFFF80
FFFF80
ENDCHAR
STARTCHAR 1EC1
ENCODING 7873
SWIDTH 556 0
DWIDTH 17 0
BBX 15 28 1 0
BITMAP
0E00
0700
0700
0380
0000
0000
0380
07C0
0EE0
1C70
0000
0000
07C0
1FF0
3FF8
783C
701C
E00E
E00E
FFFE
FFFE
E000
E000
700E
783C
3FFC
1FF8
07E0
ENDCHAR
STARTCHAR 1EC2
ENCODING 7874
SWIDTH 687 0
DWIDTH 21 0
BBX 17 28 2 0
BITMAP
03E000
007000
00E000
03E000
063000
000000
FFFF80
FFFF80
FFFF80
E00000
E00000
E00000
E00000
E00000
E00000
FFFF00
FFFF00
FFFF00
E00000
E00000
E00000
E00000
E00000
E00000
E00000
FFFF80
FFFF80
FFFF80
ENDCHAR
STARTCHAR 1EC3
ENCODING 7875
SWIDTH 556 0
DWIDTH 17 0
BBX 15 28 1 0
BITMAP
07C0
00E0
00E0
01C0
0100
0000
0380
07C0
0EE0
1C70
0000
0000
07C0
1FF0
3FF8
783C
701C
E00E
E00E
FFFE
FFFE
E000
E000
700E
783C
3FFC
1FF8
07E0
ENDCHAR
STARTCHAR 1EC4
ENCODING 7876
SWIDTH 687 0
DWIDTH 21 0
BBX 17 28 2 0
BITMAP
0F8800
18F800
000000
03E000
063000
000000
FFFF80
FFFF80
FFFF80
E00000
E00000
E00000
E00000
E00000
E00000
FFFF00
FFFF00
FFFF00
E00000
E00000
E00000
E00000
E00000
E00000
E00000
FFFF80
FFFF80
FFFF80
ENDCHAR
STARTCHAR 1EC5
ENCODING 7877
SWIDTH 556 0
DWIDTH 17 0
BBX 15 27 1 0
BITMAP
0F38
1FF0
39F0
0000
0000
0380
07C0
0EE0
1C70
0000
0000
07C0
1FF0
3FF8
783C
701C
E00E
E00E
FFFE
FFFE
E000
E000
700E
783C
3FFC
1FF8
07E0
ENDCHAR
STARTCHAR 1EC6
ENCODING 7878
SWIDTH 687 0
DWIDTH 21 0
BBX 17 30 2 -5
BITMAP
03E000
063000
000000
FFFF80
FFFF80
FFFF80
E00000
E00000
E00000
E00000
E00000
E00000
FFFF00
FFFF00
FFFF00
E00000
E00000
E00000
E00000
E00000
E00000
E00000
FFFF80
FFFF80
FFFF80
000000
000000
01C000
01C000
01C000
ENDCHAR
STARTCHAR 1EC7
ENCODING 7879
SWIDTH 556 0
DWIDTH 17 0
BBX 15 27 1 -5
BITMAP
0380
07C0
0EE0
1C70
0000
0000
07C0
1FF0
3FF8
783C
701C
E00E
E00E
FFFE
FFFE
E000
E000
700E
783C
3FFC
1FF8
07E0
0000
0000
0380
0380
0380
ENDCHAR
STARTCHAR 1EC8
ENCODING 7880
SWIDTH 294 0
DWIDTH 9 0
BBX 6 28 2 0
BITMAP
F0
1C
1C
38
20
00
70
70
70
70
70
70
70
70
70
70
70
70
70
70
70
70
70
70
70
70
70
70
ENDCHAR
STARTCHAR 1EC9
ENCODING 7881
SWIDTH 229 0
DWIDTH 7 0
BBX 6 24 1 0
BITMAP
F0
1C
1C
1C
38
20
00
00
70
70
70
70
70
70
70
70
70
70
70
70
70
70
70
70
ENDCHAR
STARTCHAR 1ECA
ENCODING 7882
SWIDTH 294 0
DWIDTH 9 0
BBX 3 27 3 -5
BITMAP
E0
E0
E0
E0
E0
E0
E0
E0
E0
E0
E0
E0
E0
E0
E0
E0
E0
E0
E0
E0
E0
E0
00
00
E0
E0
E0
ENDCHAR
STARTCHAR 1ECB
ENCODING 7883
SWIDTH 229 0
DWIDTH 7 0
BBX 3 27 2 -5
BITMAP
E0
E0
E0
00
00
00
E0
E0
E0
E0
E0
E0
E0
E0
E0
E0
E0
E0
E0
E0
E0
E0
00
00
E0
E0
E0
ENDCHAR
STARTCHAR 1ECC
ENCODING 7884
SWIDTH 785 0
DWIDTH 24 0
BBX 22 27 1 -5
BITMAP
00FE00
07FF80
0FFFC0
1F03E0
3C00F0
380070
780038
700038
700038
70001C
F0001C
F0001C
70001C
700038
700038
780038
380078
3C00F0
1F03E0
0FFFC0
07FF80
00FC00
000000
000000
007800
007800
007800
ENDCHAR
STARTCHAR 1ECD
ENCODING 7885
SWIDTH 556 0
DWIDTH 17 0
BBX 15 21 1 -5
BITMAP
07E0
1FF0
3FF8
783C
701E
E00E
E00E
E00E
E00E
E00E
E00E
701E
783C
3FF8
1FF0
07C0
0000
0000
0380
0380
0380
ENDCHAR
STARTCHAR 1ECE
ENCODING 7886
SWIDTH 785 0
DWIDTH 24 0
BBX 22 28 1 0
BITMAP
00F800
000E00
000E00
003C00
003000
000000
00FE00
07FF80
0FFFC0
1F03E0
3C00F0
380070
780038
700038
700038
70001C
F0001C
F0001C
70001C
700038
700038
780038
380078
3C00F0
1F03E0
0FFFC0
07FF80
00FC00
ENDCHAR
STARTCHAR 1ECF
ENCODING 7887
SWIDTH 556 0
DWIDTH 17 0
BBX 15 24 1 0
BITMAP
07C0
00E0
0060
00E0
01C0
0180
0000
0000
07E0
1FF0
3FF8
783C
701E
E00E
E00E
E00E
E00E
E00E
E00E
701E
783C
3FF8
1FF0
07C0
ENDCHAR
STARTCHAR 1ED0
ENCODING 7888
SWIDTH 785 0
DWIDTH 24 0
BBX 22 28 1 0
BITMAP
001C00
003800
000000
007800
01CE00
000000
00FE00
07FF80
0FFFC0
1F03E0
3C00F0
380070
780038
700038
700038
70001C
F0001C
F0001C
70001C
700038
700038
780038
380078
3C00F0
1F03E0
0FFFC0
07FF80
00FC00
ENDCHAR
STARTCHAR 1ED1
ENCODING 7889
SWIDTH 556 0
DWIDTH 17 0
BBX 15 28 1 0
BITMAP
00E0
01C0
01C0
0380
0000
0000
0380
07C0
0EE0
1C70
0000
0000
07E0
1FF0
3FF8
783C
701E
E00E
E00E
E00E
E00E
E00E
E00E
701E
783C
3FF8
1FF0
07C0
ENDCHAR
STARTCHAR 1ED2
ENCODING 7890
SWIDTH 785 0
DWIDTH 24 0
BBX 22 28 1 0
BITMAP
00E000
003000
000000
007800
01CE00
000000
00FE00
07FF80
0FFFC0
1F03E0
3C00F0
380070
780038
700038
700038
70001C
F0001C
F0001C
70001C
700038
700038
780038
380078
3C00F0
1F03E0
0FFFC0
07FF80
00FC00
ENDCHAR
STARTCHAR 1ED3
ENCODING 7891
SWIDTH 556 0
DWIDTH 17 0
BBX 15 28 1 0
BITMAP
0E00
0700
0700
0380
0000
0000
0380
07C0
0EE0
1C70
0000
0000
07E0
1FF0
3FF8
783C
701E
E00E
E00E
E00E
E00E
E00E
E00E
701E
783C
3FF8
1FF0
07C0
ENDCHAR
STARTCHAR 1ED4
ENCODING 7892
SWIDTH 785 0
DWIDTH 24 0
BBX 22 28 1 0
BITMAP
00FC00
000C00
003C00
007800
01CE00
000000
00FE00
07FF80
0FFFC0
1F03E0
3C00F0
380070
780038
700038
700038
70001C
F0001C
F0001C
70001C
700038
700038
780038
380078
3C00F0
1F03E0
0FFFC0
07FF80
00FC00
ENDCHAR
STARTCHAR 1ED5
ENCODING 7893
SWIDTH 556 0
DWIDTH 17 0
BBX 15 28 1 0
BITMAP
07C0
00E0
00E0
01C0
0100
0000
0380
07C0
0EE0
1C70
0000
0000
07E0
1FF0
3FF8
783C
701E
E00E
E00E
E00E
E00E
E00E
E00E
701E
783C
3FF8
1FF0
07C0
ENDCHAR
STARTCHAR 1ED6
ENCODING 7894
SWIDTH 785 0
DWIDTH 24 0
BBX 22 28 1 0
BITMAP
01E100
031F00
000000
007800
01CE00
000000
00FE00
07FF80
0FFFC0
1F03E0
3C00F0
380070
780038
700038
700038
70001C
F0001C
F0001C
70001C
700038
700038
780038
380078
3C00F0
1F03E0
0FFFC0
07FF80
00FC00
ENDCHAR
STARTCHAR 1ED7
ENCODING 7895
SWIDTH 556 0
DWIDTH 17 0
BBX 15 27 1 0
BITMAP
0F38
1FF0
39F0
0000
0000
0380
07C0
0EE0
1C70
0000
0000
07E0
1FF0
3FF8
783C
701E
E00E
E00E
E00E
E00E
E00E
E00E
701E
783C
3FF8
1FF0
07C0
ENDCHAR
STARTCHAR 1ED8
ENCODING 7896
SWIDTH 785 0
DWIDTH 24 0
BBX 22 30 1 -5
BITMAP
007800
01CE00
000000
00FE00
07FF80
0FFFC0
1F03E0
3C00F0
380070
780038
700038
700038
70001C
F0001C
F0001C
70001C
700038
700038
780038
380078
3C00F0
1F03E0
0FFFC0
07FF80
00FC00
000000
000000
007800
007800
007800
ENDCHAR
STARTCHAR 1ED9
ENCODING 7897
SWIDTH 556 0
DWIDTH 17 0
BBX 15 27 1 -5
BITMAP
0380
07C0
0EE0
1C70
0000
0000
07E0
1FF0
3FF8
783C
701E
E00E
E00E
E00E
E00E
E00E
E00E
701E
783C
3FF8
1FF0
07C0
0000
0000
0380
0380
0380
ENDCHAR
STARTCHAR 1EDA
ENCODING 7898
SWIDTH 883 0
DWIDTH 27 0
BBX 25 28 1 0
BITMAP
001C0000
003C0000
00380000
00700000
00000000
00000000
00FE0380
07FF8380
0FFFC380
1F03E180
3C00F180
38007100
78003E00
70003C00
70003800
70001C00
F0001C00
F0001C00
70001C00
70003C00
70003800
78003800
38007800
3C00F000
1F03E000
0FFFC000
07FF8000
00FC0000
ENDCHAR
STARTCHAR 1EDB
ENCODING 7899
SWIDTH 654 0
DWIDTH 20 0
BBX 18 22 1 0
BITMAP
00E000
01C000
01C000
038000
000000
000000
07E1C0
1FF1C0
3FF9C0
783C40
701E40
E00E80
E00F00
E00E00
E00E00
E00E00
E00E00
701C00
783C00
3FF800
1FF000
07C000
ENDCHAR
STARTCHAR 1EDC
ENCODING 7900
SWIDTH 883 0
DWIDTH 27 0
BBX 25 28 1 0
BITMAP
00E00000
00F00000
00700000
00380000
00000000
00000000
00FE0380
07FF8380
0FFFC380
1F03E180
3C00F180
38007100
78003E00
70003C00
70003800
70001C00
F0001C00
F0001C00
70001C00
70003C00
70003800
78003800
38007800
3C00F000
1F03E000
0FFFC000
07FF8000
00FC0000
ENDCHAR
STARTCHAR 1EDD
ENCODING 7901
SWIDTH 654 0
DWIDTH 20 0
BBX 18 22 1 0
BITMAP
0F0000
070000
038000
018000
000000
000000
07E1C0
1FF1C0
3FF9C0
783C40
701E40
E00E80
E00F00
E00E00
E00E00
E00E00
E00E00
701C00
783C00
3FF800
1FF000
07C000
ENDCHAR
STARTCHAR 1EDE
ENCODING 7902
SWIDTH 883 0
DWIDTH 27 0
BBX 25 28 1 0
BITMAP
00F80000
000E0000
000E0000
003C0000
00300000
00000000
00FE0380
07FF8380
0FFFC380
1F03E180
3C00F180
38007100
78003E00
70003C00
70003800
70001C00
F0001C00
F0001C00
70001C00
70003C00
70003800
78003800
38007800
3C00F000
1F03E000
0FFFC000
07FF8000
00FC0000
ENDCHAR
STARTCHAR 1EDF
ENCODING 7903
SWIDTH 654 0
DWIDTH 20 0
BBX 18 24 1 0
BITMAP
07C000
00E000
006000
00E000
01C000
018000
000000
000000
07E1C0
1FF1C0
3FF9C0
783C40
701E40
E00E80
E00F00
E00E00
E00E00
E00E00
E00E00
701C00
783C00
3FF800
1FF000
07C000
ENDCHAR
STARTCHAR 1EE0
ENCODING 7904
SWIDTH 883 0
DWIDTH 27 0
BBX 25 28 1 0
BITMAP
00E30000
01FF0000
03FF0000
031E0000
00000000
00000000
00FE0380
07FF8380
0FFFC380
1F03E180
3C00F180
38007100
78003E00
70003C00
70003800
70001C00
F0001C00
F0001C00
70001C00
70003C00
70003800
78003800
38007800
3C00F000
1F03E000
0FFFC000
07FF8000
00FC0000
ENDCHAR
STARTCHAR 1EE1
ENCODING 7905
SWIDTH 654 0
DWIDTH 20 0
BBX 18 22 1 0
BITMAP
0F3800
1FF000
1FF000
39E000
000000
000000
07E1C0
1FF1C0
3FF9C0
783C40
701E40
E00E80
E00F00
E00E00
E00E00
E00E00
E00E00
701C00
783C00
3FF800
1FF000
07C000
ENDCHAR
STARTCHAR 1EE2
ENCODING 7906
SWIDTH 883 0
DWIDTH 27 0
BBX 25 27 1 -5
BITMAP
00FE0380
07FF8380
0FFFC380
1F03E180
3C00F180
38007100
78003E00
70003C00
70003800
70001C00
F0001C00
F0001C00
70001C00
70003C00
70003800
78003800
38007800
3C00F000
1F03E000
0FFFC000
07FF8000
00FC0000
00000000
00000000
00780000
00780000
00780000
ENDCHAR
STARTCHAR 1EE3
ENCODING 7907
SWIDTH 654 0
DWIDTH 20 0
BBX 18 21 1 -5
BITMAP
07E1C0
1FF1C0
3FF9C0
783C40
701E40
E00E80
E00F00
E00E00
E00E00
E00E00
E00E00
701C00
783C00
3FF800
1FF000
07C000
000000
000000
038000
038000
038000
ENDCHAR
STARTCHAR 1EE4
ENCODING 7908
SWIDTH 720 0
DWIDTH 22 0
BBX 18 27 2 -5
BITMAP
E001C0
E001C0
E001C0
E001C0
E001C0
E001C0
E001C0
E001C0
E001C0
E001C0
E001C0
E001C0
E001C0
E001C0
E001C0
7001C0
700380
780380
3C0F80
3FFF00
1FFE00
07F800
000000
000000
01E000
01E000
01E000
ENDCHAR
STARTCHAR 1EE5
ENCODING 7909
SWIDTH 556 0
DWIDTH 17 0
BBX 13 21 2 -5
BITMAP
E038
E038
E038
E038
E038
E038
E038
E038
E038
E038
E038
E078
F0F8
7FD8
7F98
1F18
0000
0000
0F00
0F00
0F00
ENDCHAR
STARTCHAR 1EE6
ENCODING 7910
SWIDTH 720 0
DWIDTH 22 0
BBX 18 28 2 0
BITMAP
03E000
003000
003800
00F000
00C000
000000
E001C0
E001C0
E001C0
E001C0
E001C0
E001C0
E001C0
E001C0
E001C0
E001C0
E001C0
E001C0
E001C0
E001C0
E001C0
7001C0
700380
780380
3C0F80
3FFF00
1FFE00
07F800
ENDCHAR
STARTCHAR 1EE7
ENCODING 7911
SWIDTH 556 0
DWIDTH 17 0
BBX 13 24 2 0
BITMAP
0F00
01C0
00C0
01C0
0380
0200
0000
0000
E038
E038
E038
E038
E038
E038
E038
E038
E038
E038
E038
E078
F0F8
7FD8
7F98
1F18
ENDCHAR
STARTCHAR 1EE8
ENCODING 7912
SWIDTH 850 0
DWIDTH 26 0
BBX 23 28 2 0
BITMAP
007000
007000
00E000
00C000
000000
000000
E001CE
E001CE
E001CE
E001C2
E001C2
E001C6
E001CC
E001F0
E001C0
E001C0
E001C0
E001C0
E001C0
E001C0
E001C0
7001C0
700380
780380
3C0F80
3FFF00
1FFE00
07F800
ENDCHAR
STARTCHAR 1EE9
ENCODING 7913
SWIDTH 687 0
DWIDTH 21 0
BBX 18 22 2 0
BITMAP
01C000
038000
030000
070000
000000
000000
E039C0
E039C0
E039C0
E038C0
E038C0
E03880
E03B00
E03E00
E03800
E03800
E03800
E07800
F0F800
7FD800
7F9800
1F1800
ENDCHAR
STARTCHAR 1EEA
ENCODING 7914
SWIDTH 850 0
DWIDTH 26 0
BBX 23 28 2 0
BITMAP
038000
01C000
01C000
00E000
000000
000000
E001CE
E001CE
E001CE
E001C2
E001C2
E001C6
E001CC
E001F0
E001C0
E001C0
E001C0
E001C0
E001C0
E001C0
E001C0
7001C0
700380
780380
3C0F80
3FFF00
1FFE00
07F800
ENDCHAR
STARTCHAR 1EEB
ENCODING 7915
SWIDTH 687 0
DWIDTH 21 0
BBX 18 22 2 0
BITMAP
1E0000
0E0000
070000
030000
000000
000000
E039C0
E039C0
E039C0
E038C0
E038C0
E03880
E03B00
E03E00
E03800
E03800
E03800
E07800
F0F800
7FD800
7F9800
1F1800
ENDCHAR
STARTCHAR 1EEC
ENCODING 7916
SWIDTH 850 0
DWIDTH 26 0
BBX 23 28 2 0
BITMAP
03E000
003000
003800
00F000
00C000
000000
E001CE
E001CE
E001CE
E001C2
E001C2
E001C6
E001CC
E001F0
E001C0
E001C0
E001C0
E001C0
E001C0
E001C0
E001C0
7001C0
700380
780380
3C0F80
3FFF00
1FFE00
07F800
ENDCHAR
STARTCHAR 1EED
ENCODING 7917
SWIDTH 687 0
DWIDTH 21 0
BBX 18 24 2 0
BITMAP
0F0000
01C000
00C000
01C000
038000
020000
000000
000000
E039C0
E039C0
E039C0
E038C0
E038C0
E03880
E03B00
E03E00
E03800
E03800
E03800
E07800
F0F800
7FD800
7F9800
1F1800
ENDCHAR
STARTCHAR 1EEE
ENCODING 7918
SWIDTH 850 0
DWIDTH 26 0
BBX 23 28 2 0
BITMAP
03CC00
07FC00
0FFC00
0C7800
000000
000000
E001CE
E001CE
E001CE
E001C2
E001C2
E001C6
E001CC
E001F0
E001C0
E001C0
E001C0
E001C0
E001C0
E001C0
E001C0
7001C0
700380
780380
3C0F80
3FFF00
1FFE00
07F800
ENDCHAR
STARTCHAR 1EEF
ENCODING 7919
SWIDTH 687 0
DWIDTH 21 0
BBX 18 22 2 0
BITMAP
1E3000
3FF000
3FE000
31C000
000000
000000
E039C0
E039C0
E039C0
E038C0
E038C0
E03880
E03B00
E03E00
E03800
E03800
E03800
E07800
F0F800
7FD800
7F9800
1F1800
ENDCHAR
STARTCHAR 1EF0
ENCODING 7920
SWIDTH 850 0
DWIDTH 26 0
BBX 23 27 2 -5
BITMAP
E001CE
E001CE
E001CE
E001C2
E001C2
E001C6
E001CC
E001F0
E001C0
E001C0
E001C0
E001C0
E001C0
E001C0
E001C0
7001C0
700380
780380
3C0F80
3FFF00
1FFE00
07F800
000000
000000
01E000
01E000
01E000
ENDCHAR
STARTCHAR 1EF1
ENCODING 7921
SWIDTH 687 0
DWIDTH 21 0
BBX 18 21 2 -5
BITMAP
E039C0
E039C0
E039C0
E038C0
E038C0
E03880
E03B00
E03E00
E03800
E03800
E03800
E07800
F0F800
7FD800
7F9800
1F1800
000000
000000
0F0000
0F0000
0F0000
ENDCHAR
STARTCHAR 1EF2
ENCODING 7922
SWIDTH 687 0
DWIDTH 21 0
BBX 20 28 0 0
BITMAP
01C000
00E000
006000
007000
000000
000000
F00070
7800E0
3801E0
3C01C0
1E0380
0E0780
0F0700
078E00
039E00
03DC00
01F800
00F000
007000
007000
007000
007000
007000
007000
007000
007000
007000
007000
ENDCHAR
STARTCHAR 1EF3
ENCODING 7923
SWIDTH 523 0
DWIDTH 16 0
BBX 14 28 1 -6
BITMAP
0E00
0F00
0700
0380
0000
0000
E01C
E01C
E018
7038
7038
3870
3870
3860
1CE0
1CE0
0CC0
0FC0
0FC0
0780
0780
0300
0700
0700
0E00
7E00
7C00
7800
ENDCHAR
STARTCHAR 1EF4
ENCODING 7924
SWIDTH 687 0
DWIDTH 21 0
BBX 20 27 0 -5
BITMAP
F00070
7800E0
3801E0
3C01C0
1E0380
0E0780
0F0700
078E00
039E00
03DC00
01F800
00F000
007000
007000
007000
007000
007000
007000
007000
007000
007000
007000
000000
000000
007000
007000
007000
ENDCHAR
STARTCHAR 1EF5
ENCODING 7925
SWIDTH 523 0
DWIDTH 16 0
BBX 14 22 1 -6
BITMAP
E01C
E01C
E018
7038
7038
3870
3870
3860
1CE0
1CE0
0CC0
0FC0
0FC0
0780
0780
0300
0700
0700
0E78
7E78
7C78
7800
ENDCHAR
STARTCHAR 1EF6
ENCODING 7926
SWIDTH 687 0
DWIDTH 21 0
BBX 20 28 0 0
BITMAP
01F000
001C00
001C00
007800
006000
000000
F00070
7800E0
3801E0
3C01C0
1E0380
0E0780
0F0700
078E00
039E00
03DC00
01F800
00F000
007000
007000
007000
007000
007000
007000
007000
007000
007000
007000
ENDCHAR
STARTCHAR 1EF7
ENCODING 7927
SWIDTH 523 0
DWIDTH 16 0
BBX 14 30 1 -6
BITMAP
0F80
00C0
00E0
00C0
0380
0300
0000
0000
E01C
E01C
E018
7038
7038
3870
3870
3860
1CE0
1CE0
0CC0
0FC0
0FC0
0780
0780
0300
0700
0700
0E00
7E00
7C00
7800
ENDCHAR
STARTCHAR 1EF8
ENCODING 7928
SWIDTH 687 0
DWIDTH 21 0
BBX 20 28 0 0
BITMAP
01E300
03FF00
03FE00
031C00
000000
000000
F00070
7800E0
3801E0
3C01C0
1E0380
0E0780
0F0700
078E00
039E00
03DC00
01F800
00F000
007000
007000
007000
007000
007000
007000
007000
007000
007000
007000
ENDCHAR
STARTCHAR 1EF9
ENCODING 7929
SWIDTH 523 0
DWIDTH 16 0
BBX 14 28 1 -6
BITMAP
1E30
1FF0
3FF0
31E0
0000
0000
E01C
E01C
E018
7038
7038
3870
3870
3860
1CE0
1CE0
0CC0
0FC0
0FC0
0780
0780
0300
0700
0700
0E00
7E00
7C00
7800
ENDCHAR
STARTCHAR 200C
ENCODING 8204
SWIDTH 0 0
DWIDTH 0 0
BBX 2 24 -1 -4
BITMAP
C0
C0
C0
C0
C0
C0
C0
C0
C0
C0
C0
C0
C0
C0
C0
C0
C0
C0
C0
C0
C0
C0
C0
C0
ENDCHAR
STARTCHAR 200D
ENCODING 8205
SWIDTH 0 0
DWIDTH 0 0
BBX 6 25 -3 -4
BITMAP
84
CC
30
30
FC
B4
30
30
30
30
30
30
30
30
30
30
30
30
30
30
30
30
30
30
30
ENDCHAR
STARTCHAR 200E
ENCODING 8206
SWIDTH 0 0
DWIDTH 0 0
BBX 8 26 -1 -4
BITMAP
08
0C
06
FF
C6
CC
C8
C0
C0
C0
C0
C0
C0
C0
C0
C0
C0
C0
C0
C0
C0
C0
C0
C0
C0
C0
ENDCHAR
STARTCHAR 200F
ENCODING 8207
SWIDTH 0 0
DWIDTH 0 0
BBX 8 26 -7 -4
BITMAP
10
30
60
FF
63
33
13
03
03
03
03
03
03
03
03
03
03
03
03
03
03
03
03
03
03
03
ENDCHAR
STARTCHAR 2013
ENCODING 8211
SWIDTH 556 0
DWIDTH 17 0
BBX 17 3 0 7
BITMAP
FFFF80
FFFF80
FFFF80
ENDCHAR
STARTCHAR 2014
ENCODING 8212
SWIDTH 1014 0
DWIDTH 31 0
BBX 31 3 0 7
BITMAP
FFFFFFFE
FFFFFFFE
FFFFFFFE
ENDCHAR
STARTCHAR 2015
ENCODING 8213
SWIDTH 1014 0
DWIDTH 31 0
BBX 29 3 1 7
BITMAP
FFFFFFF8
FFFFFFF8
FFFFFFF8
ENDCHAR
STARTCHAR 2017
ENCODING 8215
SWIDTH 556 0
DWIDTH 17 0
BBX 18 8 0 -10
BITMAP
FFFFC0
FFFFC0
FFFFC0
000000
000000
FFFFC0
FFFFC0
FFFFC0
ENDCHAR
STARTCHAR 2018
ENCODING 8216
SWIDTH 229 0
DWIDTH 7 0
BBX 3 7 2 15
BITMAP
60
C0
C0
80
E0
E0
E0
ENDCHAR
STARTCHAR 2019
ENCODING 8217
SWIDTH 229 0
DWIDTH 7 0
BBX 3 7 2 15
BITMAP
E0
E0
E0
60
60
C0
80
ENDCHAR
STARTCHAR 201A
ENCODING 8218
SWIDTH 229 0
DWIDTH 7 0
BBX 3 7 2 -4
BITMAP
E0
E0
E0
60
60
C0
80
ENDCHAR
STARTCHAR 201B
ENCODING 8219
SWIDTH 229 0
DWIDTH 7 0
BBX 3 7 2 15
BITMAP
E0
E0
E0
C0
C0
60
20
ENDCHAR
STARTCHAR 201C
ENCODING 8220
SWIDTH 327 0
DWIDTH 10 0
BBX 8 7 1 15
BITMAP
23
66
C6
C4
E7
E7
E7
ENDCHAR
STARTCHAR 201D
ENCODING 8221
SWIDTH 327 0
DWIDTH 10 0
BBX 8 7 1 15
BITMAP
E7
E7
E7
23
63
66
C4
ENDCHAR
STARTCHAR 201E
ENCODING 8222
SWIDTH 327 0
DWIDTH 10 0
BBX 8 7 1 -4
BITMAP
E7
E7
E7
23
63
66
C4
ENDCHAR
STARTCHAR 2020
ENCODING 8224
SWIDTH 556 0
DWIDTH 17 0
BBX 15 27 1 -5
BITMAP
0380
0380
0380
0380
0380
0380
FFFE
FFFE
FFFE
0380
0380
0380
0380
0380
0380
0380
0380
0380
0380
0380
0380
0380
0380
0380
0380
0380
0380
ENDCHAR
STARTCHAR 2021
ENCODING 8225
SWIDTH 556 0
DWIDTH 17 0
BBX 15 27 1 -5
BITMAP
0380
0380
0380
0380
0380
0380
FFFE
FFFE
FFFE
0380
0380
0380
0380
0380
0380
0380
0380
0380
FFFE
FFFE
FFFE
0380
0380
0380
0380
0380
0380
ENDCHAR
STARTCHAR 2022
ENCODING 8226
SWIDTH 360 0
DWIDTH 11 0
BBX 7 8 2 7
BITMAP
38
FC
FE
FE
FE
FE
FC
38
ENDCHAR
STARTCHAR 2026
ENCODING 8230
SWIDTH 1014 0
DWIDTH 31 0
BBX 23 3 4 0
BITMAP
E0380E
E0380E
E0380E
ENDCHAR
STARTCHAR 202A
ENCODING 8234
SWIDTH 0 0
DWIDTH 0 0
BBX 8 23 -1 -4
BITMAP
FF
C0
C0
C0
C0
C0
C0
C0
C0
C0
C0
C0
C0
C0
C0
C0
C0
C0
C0
C0
C0
C0
C0
ENDCHAR
STARTCHAR 202B
ENCODING 8235
SWIDTH 0 0
DWIDTH 0 0
BBX 8 23 -7 -4
BITMAP
FF
03
03
03
03
03
03
03
03
03
03
03
03
03
03
03
03
03
03
03
03
03
03
ENDCHAR
STARTCHAR 202C
ENCODING 8236
SWIDTH 0 0
DWIDTH 0 0
BBX 8 26 -4 -4
BITMAP
FF
FF
FF
FF
FF
FF
FF
18
18
18
18
18
18
18
18
18
18
18
18
18
18
18
18
18
18
18
ENDCHAR
STARTCHAR 202D
ENCODING 8237
SWIDTH 0 0
DWIDTH 0 0
BBX 8 25 -4 -4
BITMAP
FF
C0
C0
C0
C0
FF
18
18
18
18
18
18
18
18
18
18
18
18
18
18
18
18
18
18
18
ENDCHAR
STARTCHAR 202E
ENCODING 8238
SWIDTH 0 0
DWIDTH 0 0
BBX 8 25 -4 -4
BITMAP
FF
03
03
03
03
FF
18
18
18
18
18
18
18
18
18
18
18
18
18
18
18
18
18
18
18
ENDCHAR
STARTCHAR 2030
ENCODING 8240
SWIDTH 1014 0
DWIDTH 31 0
BBX 29 22 1 0
BITMAP
3C060000
7E0C0000
E70C0000
C3180000
C3180000
C3180000
C3300000
C3300000
E7600000
7E600000
3C600000
00C781E0
00CFC3F0
019CE738
01986618
01986618
03186618
03186618
06186618
061CE738
0C0FC3F0
0C0781E0
ENDCHAR
STARTCHAR 2032
ENCODING 8242
SWIDTH 196 0
DWIDTH 6 0
BBX 4 8 2 14
BITMAP
70
70
F0
E0
E0
E0
C0
C0
ENDCHAR
STARTCHAR 2033
ENCODING 8243
SWIDTH 360 0
DWIDTH 11 0
BBX 8 8 2 14
BITMAP
77
77
F7
E7
EE
EE
CE
CC
ENDCHAR
STARTCHAR 2039
ENCODING 8249
SWIDTH 327 0
DWIDTH 10 0
BBX 6 14 2 1
BITMAP
0C
1C
38
30
70
E0
E0
E0
E0
70
30
38
1C
0C
ENDCHAR
STARTCHAR 203A
ENCODING 8250
SWIDTH 327 0
DWIDTH 10 0
BBX 6 14 2 1
BITMAP
C0
E0
60
70
38
18
1C
1C
18
38
70
60
E0
C0
ENDCHAR
STARTCHAR 203C
ENCODING 8252
SWIDTH 523 0
DWIDTH 16 0
BBX 10 22 3 0
BITMAP
E3C0
E3C0
E3C0
E3C0
E3C0
E3C0
E1C0
E1C0
E1C0
E1C0
E180
E180
E180
C180
C180
C180
C180
0000
0000
E1C0
E1C0
E1C0
ENDCHAR
STARTCHAR 203E
ENCODING 8254
SWIDTH 327 0
DWIDTH 10 0
BBX 11 3 0 19
BITMAP
FFE0
FFE0
FFE0
ENDCHAR
STARTCHAR 2044
ENCODING 8260
SWIDTH 163 0
DWIDTH 5 0
BBX 19 23 -7 -1
BITMAP
0000E0
0000C0
000180
000380
000300
000600
000C00
001C00
001800
003000
007000
00E000
00C000
018000
038000
030000
060000
0C0000
1C0000
180000
300000
700000
E00000
ENDCHAR
STARTCHAR 206A
ENCODING 8298
SWIDTH 0 0
DWIDTH 0 0
BBX 8 25 -4 -4
BITMAP
FF
18
18
18
18
FF
18
18
18
18
18
18
18
18
18
18
18
18
18
18
18
18
18
18
18
ENDCHAR
STARTCHAR 206B
ENCODING 8299
SWIDTH 0 0
DWIDTH 0 0
BBX 8 25 -4 -4
BITMAP
FF
C3
C3
C3
C3
FF
18
18
18
18
18
18
18
18
18
18
18
18
18
18
18
18
18
18
18
ENDCHAR
STARTCHAR 206C
ENCODING 8300
SWIDTH 0 0
DWIDTH 0 0
BBX 6 26 -3 -4
BITMAP
FC
FC
78
78
30
30
30
30
30
30
30
30
30
30
30
30
30
30
30
30
30
30
30
30
30
30
ENDCHAR
STARTCHAR 206D
ENCODING 8301
SWIDTH 0 0
DWIDTH 0 0
BBX 6 26 -3 -4
BITMAP
20
30
30
78
78
FC
FC
30
30
30
30
30
30
30
30
30
30
30
30
30
30
30
30
30
30
30
ENDCHAR
STARTCHAR 206E
ENCODING 8302
SWIDTH 0 0
DWIDTH 0 0
BBX 6 25 -3 -4
BITMAP
30
58
84
84
68
30
30
30
30
30
30
30
30
30
30
30
30
30
30
30
30
30
30
30
30
ENDCHAR
STARTCHAR 206F
ENCODING 8303
SWIDTH 0 0
DWIDTH 0 0
BBX 8 25 -4 -4
BITMAP
F8
18
18
18
18
FF
18
18
18
18
18
18
18
18
18
18
18
18
18
18
18
18
18
18
18
ENDCHAR
STARTCHAR 207F
ENCODING 8319
SWIDTH 360 0
DWIDTH 11 0
BBX 9 11 1 8
BITMAP
CE00
DF80
FF80
E380
E180
C180
C180
C180
C180
C180
C180
ENDCHAR
STARTCHAR 20A3
ENCODING 8355
SWIDTH 556 0
DWIDTH 17 0
BBX 16 22 0 0
BITMAP
1FFF
1FFF
1FFF
1800
1800
1800
1800
1800
1FFC
1FFC
1FFC
1800
1800
1800
1800
FFC0
FFC0
FFC0
1800
1800
1800
1800
ENDCHAR
STARTCHAR 20A4
ENCODING 8356
SWIDTH 556 0
DWIDTH 17 0
BBX 15 22 1 0
BITMAP
07E0
1FF8
3FF8
3C3C
781C
700E
7000
7000
7000
FFC0
FFC0
FFC0
1800
FFC0
FFC0
FFC0
1800
3000
7F86
FFFE
FFFE
C0FC
ENDCHAR
STARTCHAR 20A7
ENCODING 8359
SWIDTH 1112 0
DWIDTH 34 0
BBX 32 22 1 0
BITMAP
FFC00000
FFF1C000
FFF9C000
E079C000
E03DC000
E01DC000
E01FFFF0
E01FFFFC
E03FFFFE
E079CE0E
FFF9CE07
FFF1CF00
FFC1CFF0
E001C7FC
E001C1FE
E001C03F
E001C007
E001DC07
E001CE0F
E001F7FE
E001F3FC
E00071F8
ENDCHAR
STARTCHAR 20AA
ENCODING 8362
SWIDTH 818 0
DWIDTH 25 0
BBX 21 16 2 0
BITMAP
FFF838
FFFC38
FFFE38
E00E38
E00E38
E38E38
E38E38
E38E38
E38E38
E38E38
E38E38
E38038
E38038
E3FFF8
E3FFF0
E3FFE0
ENDCHAR
STARTCHAR 20AB
ENCODING 8363
SWIDTH 523 0
DWIDTH 16 0
BBX 12 18 2 4
BITMAP
00C0
00C0
01F0
00C0
1EC0
3FC0
71C0
60C0
E0C0
C0C0
C0C0
60C0
60C0
71C0
3FC0
1EC0
0000
FFF0
ENDCHAR
STARTCHAR 20AC
ENCODING 8364
SWIDTH 556 0
DWIDTH 17 0
BBX 17 22 0 0
BITMAP
007E00
03FF80
07FF00
0F8100
1E0000
1C0000
380000
380000
FFFE00
FFFE00
380000
380000
FFFC00
FFFC00
380000
380000
1C0000
1E0000
0F8100
07FF00
03FF00
00FE00
ENDCHAR
STARTCHAR 2105
ENCODING 8453
SWIDTH 883 0
DWIDTH 27 0
BBX 25 23 1 -1
BITMAP
1F006000
3F806000
71C0C000
60C1C000
60018000
C0038000
C0030000
60C70000
60C60000
71CE0000
3F8C7C00
1F18FE00
0019C700
00318380
00318180
00630180
00630180
00C18180
00C18380
0181C700
0380FE00
03007C00
07000000
ENDCHAR
STARTCHAR 2113
ENCODING 8467
SWIDTH 327 0
DWIDTH 10 0
BBX 10 22 0 0
BITMAP
0700
0F80
1FC0
1DC0
1CC0
1880
1980
1900
1B00
1A00
1E00
1C00
1800
3800
7800
F800
5800
1800
1C80
1F80
1F80
0F00
ENDCHAR
STARTCHAR 2116
ENCODING 8470
SWIDTH 1080 0
DWIDTH 33 0
BBX 30 22 2 0
BITMAP
F0038000
F0038000
F8038000
FC0383E0
FC0387F0
FE038FF8
EF039E3C
E7039C1C
E7839C1C
E3839C1C
E1C39C1C
E1E39E3C
E0E38FF8
E07387F0
E07B83E0
E03B8000
E01F8000
E01F9FFC
E00F9FFC
E00F9FFC
E0078000
E0038000
ENDCHAR
STARTCHAR 2122
ENCODING 8482
SWIDTH 1014 0
DWIDTH 31 0
BBX 24 13 3 9
BITMAP
FFCE07
FFCE07
0C0F0F
0C0F0F
0C0D0B
0C0D9B
0C0D9B
0C0D9B
0C0C93
0C0CF3
0C0CF3
0C0C63
0C0C63
ENDCHAR
STARTCHAR 2126
ENCODING 8486
SWIDTH 785 0
DWIDTH 24 0
BBX 20 22 2 0
BITMAP
01FC00
07FF00
1FFF80
3E07C0
3C03E0
7801E0
7000F0
F000F0
F00070
F00070
E00070
F00070
700070
7000E0
7000E0
3800C0
3801C0
1C0380
070700
FF8FF0
FF8FF0
FF8FF0
ENDCHAR
STARTCHAR 212E
ENCODING 8494
SWIDTH 621 0
DWIDTH 19 0
BBX 16 16 1 0
BITMAP
07E0
1C18
300C
3006
7007
7007
F007
FFFF
F000
F000
7000
7000
3002
3006
1C1C
07F0
ENDCHAR
STARTCHAR 2153
ENCODING 8531
SWIDTH 850 0
DWIDTH 26 0
BBX 24 22 2 0
BITMAP
180030
380060
7800E0
F801C0
D80180
980300
180700
180E00
180C00
181800
183800
0070FC
0061FE
00C18E
01C00E
03803C
03003E
060006
0C0007
1C0386
1801FE
3000F8
ENDCHAR
STARTCHAR 2154
ENCODING 8532
SWIDTH 850 0
DWIDTH 26 0
BBX 25 22 0 0
BITMAP
1F000C00
3F801800
71C03800
61C07000
01806000
0380C000
0E01C000
1C038000
38030000
7FC60000
FFCE0000
001C3E00
00187F80
0030E380
00700380
00E00F00
00C00F00
01800180
03000180
0700E380
06007F80
0C003E00
ENDCHAR
STARTCHAR 215B
ENCODING 8539
SWIDTH 850 0
DWIDTH 26 0
BBX 23 23 2 0
BITMAP
180030
380060
7800E0
F800C0
980180
180380
180700
180600
180C00
181C00
183800
0030F8
0061FC
00E18E
00C186
01818C
038078
0701FE
06038E
0C0306
1C038E
1801FC
3000F8
ENDCHAR
STARTCHAR 215C
ENCODING 8540
SWIDTH 850 0
DWIDTH 26 0
BBX 24 23 1 0
BITMAP
3E0018
FF0030
C30070
030060
1C00C0
1F01C0
038380
C38300
E38600
7F0E00
3E0C00
00187C
0030FE
0070C7
0060C3
00C0C6
01C03C
0380FF
0301C7
060183
0E01C7
0C00FE
18007C
ENDCHAR
STARTCHAR 215D
ENCODING 8541
SWIDTH 850 0
DWIDTH 26 0
BBX 24 23 1 0
BITMAP
7F0018
7F0030
400070
DE0060
FF00C0
E301C0
038380
C38300
C30600
7F0E00
3C0C00
00187C
0030FE
0070C7
0060C3
00C0C6
01C03C
0380FF
0301C7
060183
0E01C7
0C00FE
18007C
ENDCHAR
STARTCHAR 215E
ENCODING 8542
SWIDTH 850 0
DWIDTH 26 0
BBX 24 23 1 0
BITMAP
FF0038
FF0030
020060
0600E0
0C01C0
0C0180
180300
180700
380600
300C00
301C00
00387C
0030FE
0060C7
00E0C3
00C0C6
01803C
0300FF
0701C7
060183
0C01C7
1C00FE
38007C
ENDCHAR
STARTCHAR 2190
ENCODING 8592
SWIDTH 1014 0
DWIDTH 31 0
BBX 29 11 1 2
BITMAP
02000000
06000000
0C000000
38000000
7FFFFFF8
FFFFFFF8
38000000
1C000000
0E000000
06000000
03000000
ENDCHAR
STARTCHAR 2191
ENCODING 8593
SWIDTH 523 0
DWIDTH 16 0
BBX 11 27 2 -7
BITMAP
0400
0E00
0F00
1F80
3FC0
66E0
C620
0600
0600
0600
0600
0600
0600
0600
0600
0600
0600
0600
0600
0600
0600
0600
0600
0600
0600
0600
0600
ENDCHAR
STARTCHAR 2192
ENCODING 8594
SWIDTH 1014 0
DWIDTH 31 0
BBX 29 11 1 2
BITMAP
00000200
00000300
00000180
000000E0
FFFFFFF0
FFFFFFF8
000000E0
000001C0
00000380
00000300
00000600
ENDCHAR
STARTCHAR 2193
ENCODING 8595
SWIDTH 523 0
DWIDTH 16 0
BBX 11 27 2 -7
BITMAP
0600
0600
0600
0600
0600
0600
0600
0600
0600
0600
0600
0600
0600
0600
0600
0600
0600
0600
0600
8620
6660
37C0
1F80
1F00
0E00
0600
0400
ENDCHAR
STARTCHAR 2194
ENCODING 8596
SWIDTH 1014 0
DWIDTH 31 0
BBX 29 11 1 2
BITMAP
02000200
06000300
0C000180
380000E0
7FFFFFF0
FFFFFFF8
380000E0
1C0001C0
0E000380
06000300
03000600
ENDCHAR
STARTCHAR 2195
ENCODING 8597
SWIDTH 523 0
DWIDTH 16 0
BBX 11 28 2 -6
BITMAP
0400
0E00
0F00
1F80
3DC0
64E0
C420
0400
0400
0400
0400
0400
0400
0400
0400
0400
0400
0400
0400
0400
0400
8420
64E0
35C0
1F80
0F00
0E00
0600
ENDCHAR
STARTCHAR 21A8
ENCODING 8616
SWIDTH 523 0
DWIDTH 16 0
BBX 11 31 2 -9
BITMAP
0400
0E00
0F00
1F80
3DC0
64E0
C420
0400
0400
0400
0400
0400
0400
0400
0400
0400
0400
0400
0400
0400
0400
8420
64E0
35C0
1F80
0F00
0E00
0600
0000
0000
FFE0
ENDCHAR
STARTCHAR 2202
ENCODING 8706
SWIDTH 490 0
DWIDTH 15 0
BBX 14 22 1 0
BITMAP
01E0
03F0
07F8
0E38
0C18
1C0C
000C
000C
007C
07FC
1F0C
380C
7018
7018
E018
E030
E030
E070
F1E0
FFC0
7F80
3E00
ENDCHAR
STARTCHAR 2206
ENCODING 8710
SWIDTH 621 0
DWIDTH 19 0
BBX 17 21 1 0
BITMAP
008000
00C000
00C000
01C000
01E000
03E000
027000
067000
047000
043800
0C3800
081C00
181C00
101E00
300E00
200E00
600700
400700
C00780
C00380
FFFF80
ENDCHAR
STARTCHAR 220F
ENCODING 8719
SWIDTH 850 0
DWIDTH 26 0
BBX 21 28 2 -6
BITMAP
FFFFF8
FFFFF8
FFFFF8
E00038
E00038
E00038
E00038
E00038
E00038
E00038
E00038
E00038
E00038
E00038
E00038
E00038
E00038
E00038
E00038
E00038
E00038
E00038
E00038
E00038
E00038
E00038
E00038
E00038
ENDCHAR
STARTCHAR 2211
ENCODING 8721
SWIDTH 720 0
DWIDTH 22 0
BBX 19 28 2 -6
BITMAP
FFFFE0
FFFFE0
FFFFE0
700000
780000
3C0000
1E0000
0F0000
078000
038000
03C000
01E000
00F000
007800
007000
00E000
01E000
03C000
078000
0F0000
0E0000
1C0000
380000
780000
F00000
FFFFE0
FFFFE0
FFFFE0
ENDCHAR
STARTCHAR 2212
ENCODING 8722
SWIDTH 589 0
DWIDTH 18 0
BBX 14 3 2 10
BITMAP
FFFC
FFFC
FFFC
ENDCHAR
STARTCHAR 2215
ENCODING 8725
SWIDTH 163 0
DWIDTH 5 0
BBX 19 23 -7 -1
BITMAP
0000E0
0000C0
000180
000380
000300
000600
000C00
001C00
001800
003000
007000
00E000
00C000
018000
038000
030000
060000
0C0000
1C0000
180000
300000
700000
E00000
ENDCHAR
STARTCHAR 2219
ENCODING 8729
SWIDTH 294 0
DWIDTH 9 0
BBX 3 3 3 9
BITMAP
E0
E0
E0
ENDCHAR
STARTCHAR 221A
ENCODING 8730
SWIDTH 556 0
DWIDTH 17 0
BBX 16 28 1 -1
BITMAP
0001
0001
0003
0002
0002
0002
0002
0002
0006
0004
0004
0004
0804
3C04
CC0C
0E0C
0608
0708
0388
0388
01D8
01D8
00F0
00F0
0070
0070
0030
0030
ENDCHAR
STARTCHAR 221E
ENCODING 8734
SWIDTH 720 0
DWIDTH 22 0
BBX 18 10 2 6
BITMAP
001E00
3C3F80
7F7F80
7FE1C0
C3C0C0
C3C0C0
7FE1C0
7F7F80
3C3F80
001E00
ENDCHAR
STARTCHAR 221F
ENCODING 8735
SWIDTH 981 0
DWIDTH 30 0
BBX 20 19 5 0
BITMAP
C00000
C00000
C00000
C00000
C00000
C00000
C00000
C00000
C00000
C00000
C00000
C00000
C00000
C00000
C00000
C00000
C00000
FFFFF0
FFFFF0
ENDCHAR
STARTCHAR 2229
ENCODING 8745
SWIDTH 720 0
DWIDTH 22 0
BBX 18 22 2 0
BITMAP
03F000
0FFC00
1FFE00
3E0F00
780380
700180
6001C0
6001C0
E000C0
E000C0
C000C0
C000C0
C000C0
C000C0
C000C0
C000C0
C000C0
C000C0
C000C0
C000C0
C000C0
C000C0
ENDCHAR
STARTCHAR 222B
ENCODING 8747
SWIDTH 261 0
DWIDTH 8 0
BBX 8 31 0 -4
BITMAP
07
0F
0F
08
18
18
18
18
18
18
18
18
18
18
18
18
18
18
18
18
18
18
18
18
18
08
08
C8
F8
F0
60
ENDCHAR
STARTCHAR 2248
ENCODING 8776
SWIDTH 556 0
DWIDTH 17 0
BBX 15 11 1 5
BITMAP
3E02
FF86
FFFE
C3FE
80F8
0000
3E02
FF86
FFFE
C3FE
80F8
ENDCHAR
STARTCHAR 2260
ENCODING 8800
SWIDTH 556 0
DWIDTH 17 0
BBX 15 22 1 0
BITMAP
0018
0018
0030
0030
0060
0060
0060
FFFE
FFFE
FFFE
0180
0300
0300
FFFE
FFFE
FFFE
0C00
0C00
1800
1800
3000
3000
ENDCHAR
STARTCHAR 2261
ENCODING 8801
SWIDTH 589 0
DWIDTH 18 0
BBX 14 15 2 4
BITMAP
FFFC
FFFC
FFFC
0000
0000
0000
FFFC
FFFC
FFFC
0000
0000
0000
FFFC
FFFC
FFFC
ENDCHAR
STARTCHAR 2264
ENCODING 8804
SWIDTH 556 0
DWIDTH 17 0
BBX 15 19 1 1
BITMAP
0002
001E
007E
03FC
0FE0
7F00
FC00
E000
FC00
7F00
0FE0
03FC
007E
001E
0002
0000
FFFE
FFFE
FFFE
ENDCHAR
STARTCHAR 2265
ENCODING 8805
SWIDTH 556 0
DWIDTH 17 0
BBX 15 19 1 1
BITMAP
8000
F000
FC00
7F80
0FE0
01FC
007E
000E
007E
01FC
0FE0
7F80
FC00
F000
8000
0000
FFFE
FFFE
FFFE
ENDCHAR
STARTCHAR 2302
ENCODING 8962
SWIDTH 621 0
DWIDTH 19 0
BBX 14 17 2 0
BITMAP
0100
0380
04C0
0C60
1830
3018
600C
C004
C004
C004
C004
C004
C004
C004
C004
C004
FFFC
ENDCHAR
STARTCHAR 2310
ENCODING 8976
SWIDTH 589 0
DWIDTH 18 0
BBX 14 9 2 6
BITMAP
FFFC
FFFC
FFFC
C000
C000
C000
C000
C000
C000
ENDCHAR
STARTCHAR 2320
ENCODING 8992
SWIDTH 621 0
DWIDTH 19 0
BBX 7 34 8 -8
BITMAP
3C
2E
44
40
C0
C0
C0
C0
C0
C0
C0
C0
C0
C0
C0
C0
C0
C0
C0
C0
C0
C0
C0
C0
C0
C0
C0
C0
C0
C0
C0
C0
C0
C0
ENDCHAR
STARTCHAR 2321
ENCODING 8993
SWIDTH 621 0
DWIDTH 19 0
BBX 6 34 4 -8
BITMAP
0C
0C
0C
0C
0C
0C
0C
0C
0C
0C
0C
0C
0C
0C
0C
0C
0C
0C
0C
0C
0C
0C
0C
0C
0C
0C
0C
0C
0C
0C
0C
EC
F8
60
ENDCHAR
STARTCHAR 2500
ENCODING 9472
SWIDTH 720 0
DWIDTH 22 0
BBX 22 3 0 8
BITMAP
FFFFFC
FFFFFC
FFFFFC
ENDCHAR
STARTCHAR 2502
ENCODING 9474
SWIDTH 621 0
DWIDTH 19 0
BBX 3 37 7 -9
BITMAP
E0
E0
E0
E0
E0
E0
E0
E0
E0
E0
E0
E0
E0
E0
E0
E0
E0
E0
E0
E0
E0
E0
E0
E0
E0
E0
E0
E0
E0
E0
E0
E0
E0
E0
E0
E0
E0
ENDCHAR
ENDFONT
